<svg width="825" height="404" fill="none" xmlns="http://www.w3.org/2000/svg">
  <path d="M361.086 9.846c-2.719.937-5.542 1.389-7.765 2.794-3.377 2.133-5.713.007-8.395-1.143-.868-.37-1.812-.586-2.638-1.03-1.303-.7-3.103-1.27-3.614-2.39-.397-.869.487-3.099 1.436-3.665C343.355 2.48 346.882-.12 350.7.91c3.48.938 7.282.711 10.485 3.801 2.995 2.889 4.842 5.594 5.739 9.649.74 3.338 2.081 6.735 5.331 9.08 1.408 1.018 1.963 3.547 2.39 5.502.522 2.4.482 4.92.726 7.381.195 1.952.306 3.733-1.369 5.337-2.57 2.46-1.772 5.877-2.02 8.964-.082.99-.014 1.992-.014 3.13h-3.287c0-1.402.085-2.768-.014-4.12-.604-8.153-.78-16.378-2.067-24.422-.694-4.324-1.45-9.037-4.58-12.69-.382-.448-.431-1.185-.934-2.676ZM335.543 12.817c-.255 1.857-.439 3.604-.745 5.331-.9 5.096-1.665 10.229-2.832 15.266-1.2 5.184.151 10.082.877 15.106.28 1.924 1.037 4.337-1.33 5.796-.554.34-1.384.897-1.756.707-.519-.267-.995-1.127-1.025-1.755-.116-2.402-.046-4.813-.046-7-1.868-1.738-3.847-3.138-5.194-4.995-.868-1.196-1.123-3.067-1.1-4.63.037-2.529.868-5.067.738-7.57-.146-2.857.38-4.948 3.361-5.727 2.997-.784 3.408-3.315 3.876-5.7.464-2.363 2.406-4.565 5.176-4.83ZM355.659 45.156l5.918 2.117c-.093 1.073-.169 1.975-.255 2.96-2.062.408-4.076.67-5.983 1.27-.545.174-1.048 1.313-1.095 2.04-.081 1.197.228 2.42.383 3.733h-5.491c.262-1.308.647-2.467.668-3.63.012-.712-.343-1.683-.877-2.096-.819-.635-1.934-.89-3.041-1.356 1.362-5.098 6.245-1.656 9.52-4.338-1.763-.262-2.867-.542-3.976-.56-1.953-.033-3.479-.478-3.769-2.74-.288-2.25.468-3.427 2.941-3.624.856-.068 1.761-1.204 2.397-2.04 1.027-1.352 2.022-1.695 3.052-.193 1.339 1.95 3.23 3.9.478 6.269-.526.454-.591 1.442-.87 2.188Z" fill="#231F20"/>
  <path d="M361.158 19.017c.228 1.567.344 2.376.497 3.442-1.322.404-2.571.976-3.872 1.143-3.25.417-3.259.343-3.561 3.932 1.534.818 3.431 1.414 2.536 4.057-.726 2.146-2.039 1.655-3.802 1.379v-6.34c-1.114-.575-3.042-2.04-3.436-1.704-2.392 2.033-2.334 3.408-.392 5.705-.026.088-.023.213-.081.255-.958.7-1.926 1.389-2.888 2.082-.441-1.702-2.575-3.223-.552-5.205.155-.15.099-.517.178-1.027-2.41-1.5-8.015.874-6.792-5.8l22.165-1.92Z" fill="#231F20"/>
  <path d="M415.609 194.637c1.854.969 3.317 1.731 5.4 2.821-.684 3.452-1.398 7.142-2.182 10.819-.065.311-.655.761-.926.712-.329-.056-.749-.54-.824-.9-.143-.711-.044-1.469-.104-2.204-.227-2.738.768-5.634-1.299-8.156-.441-.538-.065-1.743-.065-3.092ZM27.106 232.386c.693-1.324 1.603-2.583 2.027-3.987.524-1.728.668-3.573.933-5.374.292-1.975.146-4.117.881-5.9 1.473-3.568 1.225-7.289 1.821-10.919.211-1.28 2.48-3.037 3.911-3.139 3.626-.257 7.398-.107 10.936.675 2.313.51 4.65 2.081 6.351 3.797 1.25 1.261 1.759 3.473 2.12 5.355 1.035 5.374-1.927 9.421-4.609 13.685-2.69 4.279-6.739 5.102-11.13 5.573-4.148.445-8.298.846-12.446 1.268-.264-.346-.531-.691-.795-1.034Z" fill="white"/>
  <path d="M470.555 69.403c.965-10.859 6.76-10.859 6.76-10.859l.483 21.717s-8.208 0-7.243-10.858Zm5.876 30.948c-.127.543-1.777.881-2.779 1.018-1.273.172-2.686-.257-3.858.128-1.357.442-3.373 1.302-3.591 2.311-.54 2.49-2.036 4.184-3.918 5.139-1.408.717-3.616.617-5.198.084-3.327-1.124-6.473-2.784-9.704-4.196-1.413-.617-2.809-1.347-4.292-1.704-2.507-.605-1.61-2.077-1.06-3.732 5.904 0 11.871-.024 17.835.02.981.007 2.081.07 2.918.504 2.466 1.275 3.579 1.089 4.575-1.396.322-.8.436-1.667-.051-2.24 2.322-.475 4.911-.772 7.054-.415.473.378.909.786 1.248 1.25.633.862 1.053 2.256.821 3.229Zm-22.376 19.464c-2.585-.767-5.02-2.364-7.187-4.043-1.111-.86-1.515-2.633-2.447-4.386 5.361-.647 9.005 1.843 12.939 3.109.893.287 1.346 1.938 2.104 3.123-2.31 1.006-4.15 2.573-5.409 2.197Zm-1.571-39.317c-7.971.09-7.523-12.171-7.523-12.171l10.885-.424v12c-.956.358-2.056.581-3.362.595Zm11.81 13.812c2.48-1.053 5.881-.728 8.484.57l-8.816.019c.121-.306.212-.538.332-.589ZM420.81 69.435l16.12-.626c.357 5.46-.626 12.709-8.597 12.797-7.971.09-7.523-12.17-7.523-12.17Zm-5.484 31.22c-4.992.872-7.361.132-8.235-2.501-.337-1.013.148-1.5 3.765-3.805 1.535 1.315 3.05 2.608 4.862 4.16-.111.618-.258 1.409-.392 2.146Zm-47.154 29.196c-2.487 2.791-6.389 3.341-15.552 3.591l20.356-60.791-.005.055s-.03.225-.085.605c.869 17.457-1.274 45.948-4.714 56.54Zm-16.338 20.874a3.742 3.742 0 0 1-3.742-3.74 3.743 3.743 0 0 1 7.486 0 3.743 3.743 0 0 1-3.744 3.74Zm0 14.605a3.743 3.743 0 0 1-3.742-3.742 3.743 3.743 0 0 1 7.486 0 3.745 3.745 0 0 1-3.744 3.742Zm0 16.846a3.74 3.74 0 1 1 0-7.481 3.745 3.745 0 0 1 3.744 3.742 3.742 3.742 0 0 1-3.744 3.739Zm-21.041-56.421c-2.431-5.875-3.456-13.796-3.456-20.394 0-7.425-.181-20.382-.309-28.572 4.995 15.126 15.345 45.834 19.018 56.718-7.774-.199-12.46-3.672-15.253-7.752Zm-56.183 79.639c-.292 2.218-1.004 4.518-2.132 6.428-.454.77-2.544.939-3.822.791-3.141-.362-5.809.067-7.988 2.617-.684-.644-2.155-1.423-1.593-2.666.974-2.17 3.47-1.736 1.735-4.011-1.619-2.123-8.989-9.342-8.124-16.99.137-.028.267-.06.418-.07 6.071-.44 12.158-.642 18.242-.86.55-.02 1.471.371 1.62.786.691 1.934 1.447 3.911 1.658 5.928.279 2.659.334 5.404-.014 8.047ZM504.603 94.737c-6.308 0-12.618-.033-18.927.011-1.935.014-2.902-.712-2.979-2.735-.292-7.922-.763-15.839-.958-23.76-.162-6.674-.03-13.353-.04-20.03 0-.737.221-1.725-.16-2.17-2.029-2.36-3.941-4.833-6.801-6.393-.882-.483-1.684-1.922-1.735-2.96-.202-3.979-.054-7.971-.107-11.958-.009-.782-.216-2.175-.531-2.233-1.851-.352-3.84-.753-5.621-.378-.831.176-1.775 2.033-1.842 3.178-.23 3.881-.051 7.783-.111 11.678-.033 2.116-.485 4.087-2.921 4.768-3.668 1.025-5.955 3.974-5.957 7.727-.003 5.262 0 10.534 0 16.117l-14.362.558s-.538 14.962 8.572 16.592c.215.109.424.236.649.33 1.705.7 1.877 1.77 1.805 3.233-.042.832-.009 1.67-.009 2.504 0 .96.011 1.692.044 2.33-.276.939-1.007 2.733-2.601 3.783l-18.641.04V83.884a11.379 11.379 0 0 0 1.679-.513c.494-.05.919-.143 1.174-.4.104-.105.199-.214.301-.318 5.211-3.134 5.925-10.28 5.549-16.005l-16.428.637c-.367.007-.736.021-1.107.044l-4.646.181s-.536 15.229 8.845 16.615c.383.626.691 1.268.861 1.917.772 2.94.192 6.234.192 9.549l-12.274-4.069c3.612-7.348 1.179-13.89-1.823-22.141-.105-.788-.292-1.532-.729-2.012-3.301-9.225-14.925-7.442-28.572-6.262-1.009-.049-2.199.107-2.986-.366-2.663-1.595-5.038-1.257-7.381.572l-.028-.222-.102.29c-.144.048-.464.178-.089.26l-23.343 67.521 1.698-46.203c2.461 2.409 6.449 6.445 8.65 4.873 2.714-1.938 3.489-10.852 3.489-10.852s-5.816-1.938-8.92-1.938c-3.101 0-4.266-2.712-9.306 0 0 0-10.082 1.55-10.082 5.425 0 3.876 1.549 8.526 5.041 6.588 2.37-1.317 5.099-4.06 7.212-5.2l-.023 47.059-21.141-60.062c-.139-2.244-.306-4.972-.431-7.082-.682-.967-1.499-1.437-2.596-1.52l-.044-.126.002.125c-.911-.06-2.013.137-3.421.575 0 0-64.36.339-71.419 63.996a8.212 8.212 0 0 0-.643 3.294c.019 2.731.014 5.462.021 8.192 0 .353-.028.677-.023 1.032.004.932.018 1.82.032 2.705.005 6.501-.002 13.004-.002 19.504v31.294c.225.183.54.325.863.459a42.706 42.706 0 0 0-.668 4.235 5.186 5.186 0 0 0-.207 1.593c.037 2.967-.083 5.939.07 8.898.046.897.71 1.803 1.215 2.628.896 1.466 2.091 2.78 2.793 4.324 1.056 2.316 1.559 4.901 2.742 7.133 1.079 2.033 5.765 2.43 6.807.587 1.672-2.961 4.222-3.406 7.091-3.211 3.802.257 6.584-1.722 9.143-4.052.753-.684 1.238-2.024 1.266-3.079.128-5.005.1-10.015.03-15.02-.018-1.451.685-3.208-1.327-4.154-.199-.093.082-1.449.323-2.161.195-.582.888-1.043.967-1.611.395-2.902.824-5.816.937-8.74.156-3.98.01-7.972.051-11.96.028-2.687-.074-5.406.297-8.051.439-3.102 1.33-6.139 2.019-9.203.102-.45.104-.93.257-1.359 1.174-3.273 2.317-6.561 3.598-9.795.489-1.237 1.311-2.343 2.018-3.572 2.448 1.699 3.225 3.241 3.202 5.559-.126 12.238-.181 24.481-.012 36.717.014.943.083 1.88.13 2.821-.019.269-.047.503-.058.809-.383 9.966.332 53.547.332 53.547l3.614-2.167.415-45.508 9.293-.283s30.153 24.256 32.932 25.218c2.781.962 10.907-16.775 13.686-15.599 2.782 1.175 12.618 17.737 15.399 16.775 2.779-.962 26.517-27.569 28.761-27.462 1.515.072 7.671.338 11.534.503l6.135 2.065c-.245-.793-.129-3.653-.28-4.465-.218-1.168.007-2.413-.139-3.602-.522-4.245-1.2-8.473-1.659-12.725-.406-3.744-.513-7.523-.916-11.269-.39-3.605-.991-7.187-1.494-10.75.111-.023.19-.044.285-.067 2.137 4.384 6.166 10.321 12.469 10.805 8.669.666 18.349 5.323 26.496-6.424.251-.315.485-.658.694-1.043 1.086-1.713 2.143-3.718 3.164-6.099 1.503-2.643 3.118-5.225 4.561-7.901 1.324-2.455 1.983-5.478 3.823-7.402 3.139-3.278 4.574-6.957 4.591-11.276.018-4.986 4.057-6.561 7.224-8.881.512-.376 1.394-.209 2.036-.461 1.348-.529 2.87-.918 3.923-1.827 1.399-1.208 2.299-2.984 3.649-4.266.749-.714 1.972-1.282 2.993-1.303 6.307-.116 12.617-.06 18.927-.058 1.454 0 2.953-.034 2.994-2.007.047-2.073-1.512-1.97-2.943-1.968ZM433.523 391.905c-4.099-2.305-3.473-3.821-3.473-3.821.624-1.787 1.903-3.574 1.842-5.325-.139-3.904-.909-7.789-1.48-11.674-.236-1.612-.672-3.193-.935-4.804-.501-3.06-.969-6.127-1.44-9.192h-.158c-1.025-13.888-4.776-63.97-5.855-68.506-1.253-5.272-1.821-2.919-1.821-2.919s.768 26.368 1.023 24.318c.257-2.047.513 28.93 1.83 36.105.833 4.523 1.109 9.138 1.202 11.932-.582.151-.733.204-.872.204-21.99.014-43.979.012-65.966.042-3.477.004-6.954.123-10.429.241-3.568.123-7.134.408-10.702.452-7.251.088-14.505.06-21.757.083-.183 0-.366.061-.55.07-5.323.301-10.647.776-15.974.82a3.298 3.298 0 0 1-1.213-.213c-.25-5.877-1.366-32.152-1.828-40.926-.522-9.904.418-32.528.418-32.528-.313-1.251-4.8 2.919-4.695 8.133.104 5.211 1.299 66.851 1.299 66.851.004 3.097.549 3.589 3.505 3.556 6.096-.071 12.19-.136 18.284-.109 1.425.007 2.847.397 5.088.731-.831 2.494-1.68 4.506-2.146 6.602-.385 1.725-.759 3.445 1.004 5.061 2.292 2.1 4.974 1.558 7.528 1.759 2.273.181 4.565.177 6.857.146 2.526.121 7.108.021 9.961-1.938 4.097-2.816 12.915-11.899 12.915-11.899 5.17-.026 10.341-.009 15.512-.009 4.718 0 9.439-.058 14.153.055 0 0 5.069 9.549 5.069 16.717 0 7.168-2.84 18.521 3.192 19.501 3.155.513 7.467.492 11.139.552 2.376.118 4.716.329 7.071.837 1.909 1.384 15.229.359 19.328-.408 4.099-.77 7.173-8.193 3.074-10.497Z" fill="#231F20"/>
  <path d="M405.344 391.137s3.841-3.329 12.552-1.792c8.711 1.537 11.785 3.329 10.504 6.143-1.28 2.817-12.81 4.864-18.189 3.072-5.38-1.792-4.867-7.423-4.867-7.423Z" fill="white"/>
  <path d="M409.596 183.914c.16.478 3.338 48.449 4.451 50.833 1.111 2.383 1.747.16 1.747-1.111 0-1.273-2.065-51.787-2.065-51.787l-4.133 2.065ZM30.44 233.267c4.515-.078 7.5-.275 8.955-.591 3.064-.628 5.586-1.523 7.57-2.682 1.983-1.161 3.839-2.745 5.565-4.75 1.023-1.182 1.907-2.842 2.651-4.984.747-2.145 1.118-4.025 1.118-5.636 0-1.653-.234-3.188-.705-4.604-.318-.944-1.007-2.221-2.07-3.834-1.458-1.612-2.502-2.595-3.13-2.952-1.26-.667-3.487-1.356-6.68-2.063l-1.062.058-4.67-.118c-1.301 0-2.345.334-3.134 1.004-.51.512-.865 1.514-1.062 3.009-.422 4.247-1.019 8.044-1.784 11.385l-1.789 10.033-.239 3.067a31.247 31.247 0 0 1-.297 2.42l-.06.471c0 .197.274.452.824.767Zm-1.9 3.313c-.199 2.091-.9 5.74-2.096 10.949-.358 1.461-.835 4.424-1.434 8.882-1.594 6.945-2.392 11.405-2.392 13.378 0 1.894.462 3.188 1.392 3.879.926.69 3.698 1.036 8.314 1.036 3.751 0 7.027-.494 9.83-1.481a16.57 16.57 0 0 1 1.48-.71c1.813-.79 3.275-1.699 4.379-2.724 2.208-2.089 3.788-4.085 4.737-5.979 1.58-3.315 2.447-5.306 2.603-5.978.672-3.158 1.009-5.879 1.009-8.17 0-.987-.142-2.082-.415-3.285-.276-1.203-.71-2.517-1.297-3.939-1.025-1.221-1.814-2.06-2.364-2.515-.552-.452-1.775-1.31-3.663-2.573a27.967 27.967 0 0 1-2.422-.89 21.427 21.427 0 0 0-1.12-.237c-1.183-.276-1.97-.433-2.364-.473l-3.66-.118-2.777.118h-2.364l-5.197.415-.178.415ZM1.298 275.174c.67-.197 1.318-.324 1.949-.382.629-.058 1.2-.148 1.712-.267.473-.039.847-.076 1.123-.118 2.793-.197 4.556-.496 5.282-.892.73-.399 1.29-1.032 1.684-1.904 1.023-2.656 1.672-4.74 1.949-6.247.118-.865.215-1.456.294-1.774a30.39 30.39 0 0 0 .235-1.831c.317-1.695.494-2.74.533-3.135.12-1.064.394-2.55.828-4.46.432-1.912.808-4.089 1.123-6.533.158-1.379.276-2.246.355-2.601.865-4.217 1.478-7.467 1.83-9.753 1.536-9.576 2.659-15.843 3.369-18.798.236-2.244.689-5.24 1.359-8.984l.118-2.93c0-.663-.236-1.21-.712-1.639-.907-.821-2.35-1.368-4.326-1.641-1.98-.274-3.538-.41-4.686-.41l-.71.06-1.01-.415c-.039-.473-.057-.828-.057-1.062l.058-.651a283.11 283.11 0 0 1 4.034-.119c5.375 0 8.991.04 10.85.119 1.298.039 2.342.058 3.131.058.868 0 2.264-.033 4.194-.098a73.831 73.831 0 0 1 2.837-.079c5.909 0 10.008.276 12.29.826 3.111.709 5.536 1.829 7.269 3.363 2.558 2.282 4.3 4.398 5.228 6.343.926 1.948 1.387 4.319 1.387 7.11 0 1.498-.303 2.991-.913 4.486-.615 1.493-1.59 2.97-2.93 4.426-.434.473-1.99 1.711-4.675 3.718-.589.355-1.338.784-2.245 1.296l-5.264 2.539c2.84.593 5.243 1.499 7.217 2.723.59.355 1.18.65 1.772.888.552.473 1.086.895 1.599 1.271.51.375.983.742 1.42 1.096 1.064 1.261 1.811 2.367 2.247 3.315l.947 1.834c.273.552.6 1.815.974 3.788.376 1.973.564 3.73.564 5.267 0 1.264-.042 2.133-.121 2.606l-1.241 3.846c-1.733 3.197-3.113 5.536-4.136 7.015-1.026 1.479-2.856 3.285-5.493 5.413-1.42 1.148-3.45 2.23-6.088 3.257-1.143.434-3.565.967-7.267 1.597l-.829.061c-.234 0-1.398.079-3.486.236-1.181.118-2.146.176-2.895.176-1.575 0-4.883-.157-9.927-.473-1.853-.078-3.31-.255-4.372-.53l-5.023-.177-.707.058-2.485.355-1.89-.118-3.487.412c-1.536.316-2.837.473-3.9.473-.313 0-.67-.018-1.064-.058l.178-1.952Z" fill="#231F20"/>
  <path d="M30.44 233.267c4.515-.078 7.5-.275 8.955-.591 3.064-.628 5.586-1.523 7.57-2.682 1.983-1.161 3.839-2.745 5.565-4.75 1.023-1.182 1.907-2.842 2.651-4.984.747-2.145 1.118-4.025 1.118-5.636 0-1.653-.234-3.188-.705-4.604-.318-.944-1.007-2.221-2.07-3.834-1.458-1.612-2.502-2.595-3.13-2.952-1.26-.667-3.487-1.356-6.68-2.063l-1.062.058-4.67-.118c-1.301 0-2.345.334-3.134 1.004-.51.512-.865 1.514-1.062 3.009-.422 4.247-1.019 8.044-1.784 11.385l-1.789 10.033-.239 3.067a31.247 31.247 0 0 1-.297 2.42l-.06.471c0 .197.274.452.824.767Zm-1.9 3.313c-.199 2.091-.9 5.74-2.096 10.949-.358 1.461-.835 4.424-1.434 8.882-1.594 6.945-2.392 11.405-2.392 13.378 0 1.894.462 3.188 1.392 3.879.926.69 3.698 1.036 8.314 1.036 3.751 0 7.027-.494 9.83-1.481a16.57 16.57 0 0 1 1.48-.71c1.813-.79 3.275-1.699 4.379-2.724 2.208-2.089 3.788-4.085 4.737-5.979 1.58-3.315 2.447-5.306 2.603-5.978.672-3.158 1.009-5.879 1.009-8.17 0-.987-.142-2.082-.415-3.285-.276-1.203-.71-2.517-1.297-3.939-1.025-1.221-1.814-2.06-2.364-2.515-.552-.452-1.775-1.31-3.663-2.573a27.967 27.967 0 0 1-2.422-.89 21.427 21.427 0 0 0-1.12-.237c-1.183-.276-1.97-.433-2.364-.473l-3.66-.118-2.777.118h-2.364l-5.197.415-.178.415ZM1.298 275.174c.67-.197 1.318-.324 1.949-.382.629-.058 1.2-.148 1.712-.267.473-.039.847-.076 1.123-.118 2.793-.197 4.556-.496 5.282-.892.73-.399 1.29-1.032 1.684-1.904 1.023-2.656 1.672-4.74 1.949-6.247.118-.865.215-1.456.294-1.774a30.39 30.39 0 0 0 .235-1.831c.317-1.695.494-2.74.533-3.135.12-1.064.394-2.55.828-4.46.432-1.912.808-4.089 1.123-6.533.158-1.379.276-2.246.355-2.601.865-4.217 1.478-7.467 1.83-9.753 1.536-9.576 2.659-15.843 3.369-18.798.236-2.244.689-5.24 1.359-8.984l.118-2.93c0-.663-.236-1.21-.712-1.639-.907-.821-2.35-1.368-4.326-1.641-1.98-.274-3.538-.41-4.686-.41l-.71.06-1.01-.415c-.039-.473-.057-.828-.057-1.062l.058-.651a283.11 283.11 0 0 1 4.034-.119c5.375 0 8.991.04 10.85.119 1.298.039 2.342.058 3.131.058.868 0 2.264-.033 4.194-.098a73.831 73.831 0 0 1 2.837-.079c5.909 0 10.008.276 12.29.826 3.111.709 5.536 1.829 7.269 3.363 2.558 2.282 4.3 4.398 5.228 6.343.926 1.948 1.387 4.319 1.387 7.11 0 1.498-.303 2.991-.913 4.486-.615 1.493-1.59 2.97-2.93 4.426-.434.473-1.99 1.711-4.675 3.718-.589.355-1.338.784-2.245 1.296l-5.264 2.539c2.84.593 5.243 1.499 7.217 2.723.59.355 1.18.65 1.772.888.552.473 1.086.895 1.599 1.271.51.375.983.742 1.42 1.096 1.064 1.261 1.811 2.367 2.247 3.315l.947 1.834c.273.552.6 1.815.974 3.788.376 1.973.564 3.73.564 5.267 0 1.264-.042 2.133-.121 2.606l-1.241 3.846c-1.733 3.197-3.113 5.536-4.136 7.015-1.026 1.479-2.856 3.285-5.493 5.413-1.42 1.148-3.45 2.23-6.088 3.257-1.143.434-3.565.967-7.267 1.597l-.829.061c-.234 0-1.398.079-3.486.236-1.181.118-2.146.176-2.895.176-1.575 0-4.883-.157-9.927-.473-1.853-.078-3.31-.255-4.372-.53l-5.023-.177-.707.058-2.485.355-1.89-.118-3.487.412c-1.536.316-2.837.473-3.9.473-.313 0-.67-.018-1.064-.058l.178-1.952Z" stroke="#231F20" stroke-width=".667" stroke-miterlimit="10"/>
  <path d="M87.237 232.794a23.922 23.922 0 0 0-3.668 3.311c-.315.355-2.109 2.719-5.382 7.091l-2.424.121c.984-2.128 2.812-4.75 5.486-7.864 2.673-3.111 4.995-5.239 6.964-6.382 1.258-.749 2.673-1.182 4.248-1.3.984.273 1.66.644 2.037 1.112.373.471.561 1.037.561 1.7a8.57 8.57 0 0 1-.236 1.989c-.434 2.149-1.297 5.232-2.59 9.252-1.287 4.02-2.442 7.191-3.458 9.516l-3.076 7.27-.237 1.065c.552-.944 1.675-3.054 3.37-6.325 6.429-12.173 11.062-19.684 13.901-22.535 2.09-2.029 4.535-3.044 7.335-3.044 1.575 0 3.055.628 4.435 1.889 1.026.988 1.539 2.288 1.539 3.904 0 1.811-.573 3.368-1.715 4.669-.791.906-1.914 1.361-3.37 1.361-1.225 0-2.084-.285-2.575-.858-.495-.573-.798-2.001-.917-4.286-.512-1.025-1.085-1.537-1.716-1.537s-1.299.333-2.012 1.001c-1.895 1.695-5.47 7.115-10.724 16.26-5.25 9.146-8.54 15.502-9.864 19.061-1.322 3.561-2.398 6.011-3.227 7.347-.43.679-1.236 1.017-2.407 1.017-1.058 0-1.812-.188-2.262-.561a1.807 1.807 0 0 1-.675-1.449c0-.788.197-1.694.594-2.719 1.693-4.138 4.414-11.763 8.16-22.874l4.141-12.649c.276-1.129.474-1.847.59-2.16l.357-.876c0-.388-.395-.893-1.183-1.517Z" fill="#231F20"/>
  <path d="M87.237 232.794a23.922 23.922 0 0 0-3.668 3.311c-.315.355-2.109 2.719-5.382 7.091l-2.424.121c.984-2.128 2.812-4.75 5.486-7.864 2.673-3.111 4.995-5.239 6.964-6.382 1.258-.749 2.673-1.182 4.248-1.3.984.273 1.66.644 2.037 1.112.373.471.561 1.037.561 1.7a8.57 8.57 0 0 1-.236 1.989c-.434 2.149-1.297 5.232-2.59 9.252-1.287 4.02-2.442 7.191-3.458 9.516l-3.076 7.27-.237 1.065c.552-.944 1.675-3.054 3.37-6.325 6.429-12.173 11.062-19.684 13.901-22.535 2.09-2.029 4.535-3.044 7.335-3.044 1.575 0 3.055.628 4.435 1.889 1.026.988 1.539 2.288 1.539 3.904 0 1.811-.573 3.368-1.715 4.669-.791.906-1.914 1.361-3.37 1.361-1.225 0-2.084-.285-2.575-.858-.495-.573-.798-2.001-.917-4.286-.512-1.025-1.085-1.537-1.716-1.537s-1.299.333-2.012 1.001c-1.895 1.695-5.47 7.115-10.724 16.26-5.25 9.146-8.54 15.502-9.864 19.061-1.322 3.561-2.398 6.011-3.227 7.347-.43.679-1.236 1.017-2.407 1.017-1.058 0-1.812-.188-2.262-.561a1.807 1.807 0 0 1-.675-1.449c0-.788.197-1.694.594-2.719 1.693-4.138 4.414-11.763 8.16-22.874l4.141-12.649c.276-1.129.474-1.847.59-2.16l.357-.876c0-.388-.395-.893-1.183-1.517Z" stroke="#231F20" stroke-width=".667" stroke-miterlimit="10"/>
  <path d="M121.295 272.162c.975-.239 1.828-.571 2.561-1.006.448-.235 2.032-1.319 4.758-3.251 4.962-4.847 7.769-7.624 8.419-8.334 1.422-1.537 3.029-3.644 4.82-6.324.487-.67 1.527-2.522 3.111-5.557l1.538-4.078c.552-2.404.828-3.783.828-4.14 0-1.101-.462-2.144-1.376-3.13-.612-.591-1.605-.887-2.985-.887-1.584 0-2.944.255-4.081.767a30.112 30.112 0 0 0-7.005 4.495c-2.842 2.481-5.582 5.663-8.222 9.544-2.64 3.883-4.509 7.124-5.604 9.723-1.503 3.586-2.253 6.266-2.253 8.04 0 1.458.306 2.543.914 3.25.61.709 1.383 1.064 2.318 1.064.327 0 1.078-.058 2.259-.176Zm28.872-38.778c.395-.67.654-1.201.77-1.595.474-1.182.949-1.949 1.425-2.304 1.104-.118 1.914-.176 2.426-.176.673 0 1.325.137 1.956.413l.176.711c0 .239-.097.591-.295 1.064-.116.239-.375.988-.77 2.247l-.473 1.182-3.904 10.58c-1.659 4.769-3.109 8.569-4.352 11.406a82.281 82.281 0 0 0-3.225 8.659c-.907 2.937-1.737 5.033-2.486 6.294l-.237.568c0 .229.209.533.626.911 1.661-.985 3.062-2.049 4.208-3.192 2.956-2.956 4.71-4.79 5.264-5.497.408-.512.796-.985 1.165-1.421.44.397.849.809 1.217 1.245-1.057 1.535-2.834 3.623-5.328 6.264-2.494 2.64-4.744 4.511-6.746 5.617-1.55.825-3.004 1.24-4.364 1.24-.869 0-1.521-.192-1.957-.579-.432-.385-.65-.888-.65-1.507 0-.54.197-1.56.592-3.058.986-2.599 1.674-4.314 2.071-5.142.392-.827.923-2.107 1.596-3.841.392-1.064 1.202-2.916 2.424-5.557-.77.749-1.723 1.852-2.858 3.311-3.284 4.019-7.054 7.821-11.311 11.408-.974.827-3.326 2.149-7.057 3.959-1.378.513-2.999.846-4.864 1.006-1.582-.041-2.638-.197-3.162-.473-.974-.512-1.765-1.321-2.373-2.422-.446-.83-.671-2.11-.671-3.846 0-2.518.564-5.316 1.694-8.392 1.935-5.239 3.888-9.12 5.864-11.645 3.385-4.374 6.739-7.84 10.066-10.402 3.322-2.561 6.377-4.432 9.156-5.615 3.667-1.576 6.853-2.367 9.553-2.367.886 0 1.73.082 2.538.239a11.18 11.18 0 0 1 2.296.707Z" fill="#231F20"/>
  <path d="M121.295 272.162c.975-.239 1.828-.571 2.561-1.006.448-.235 2.032-1.319 4.758-3.251 4.962-4.847 7.769-7.624 8.419-8.334 1.422-1.537 3.029-3.644 4.82-6.324.487-.67 1.527-2.522 3.111-5.557l1.538-4.078c.552-2.404.828-3.783.828-4.14 0-1.101-.462-2.144-1.376-3.13-.612-.591-1.605-.887-2.985-.887-1.584 0-2.944.255-4.081.767a30.112 30.112 0 0 0-7.005 4.495c-2.842 2.481-5.582 5.663-8.222 9.544-2.64 3.883-4.509 7.124-5.604 9.723-1.503 3.586-2.253 6.266-2.253 8.04 0 1.458.306 2.543.914 3.25.61.709 1.383 1.064 2.318 1.064.327 0 1.078-.058 2.259-.176Zm28.872-38.778c.395-.67.654-1.201.77-1.595.474-1.182.949-1.949 1.425-2.304 1.104-.118 1.914-.176 2.426-.176.673 0 1.325.137 1.956.413l.176.711c0 .239-.097.591-.295 1.064-.116.239-.375.988-.77 2.247l-.473 1.182-3.904 10.58c-1.659 4.769-3.109 8.569-4.352 11.406a82.281 82.281 0 0 0-3.225 8.659c-.907 2.937-1.737 5.033-2.486 6.294l-.237.568c0 .229.209.533.626.911 1.661-.985 3.062-2.049 4.208-3.192 2.956-2.956 4.71-4.79 5.264-5.497.408-.512.796-.985 1.165-1.421.44.397.849.809 1.217 1.245-1.057 1.535-2.834 3.623-5.328 6.264-2.494 2.64-4.744 4.511-6.746 5.617-1.55.825-3.004 1.24-4.364 1.24-.869 0-1.521-.192-1.957-.579-.432-.385-.65-.888-.65-1.507 0-.54.197-1.56.592-3.058.986-2.599 1.674-4.314 2.071-5.142.392-.827.923-2.107 1.596-3.841.392-1.064 1.202-2.916 2.424-5.557-.77.749-1.723 1.852-2.858 3.311-3.284 4.019-7.054 7.821-11.311 11.408-.974.827-3.326 2.149-7.057 3.959-1.378.513-2.999.846-4.864 1.006-1.582-.041-2.638-.197-3.162-.473-.974-.512-1.765-1.321-2.373-2.422-.446-.83-.671-2.11-.671-3.846 0-2.518.564-5.316 1.694-8.392 1.935-5.239 3.888-9.12 5.864-11.645 3.385-4.374 6.739-7.84 10.066-10.402 3.322-2.561 6.377-4.432 9.156-5.615 3.667-1.576 6.853-2.367 9.553-2.367.886 0 1.73.082 2.538.239a11.18 11.18 0 0 1 2.296.707Z" stroke="#231F20" stroke-width=".667" stroke-miterlimit="10"/>
  <path d="M160.462 266.074c1.972 0 3.586 1.516 4.851 4.551.628 1.497 1.241 2.483 1.832 2.953.55.515 1.281.77 2.188.77 1.695 0 3.312-.788 4.85-2.367 1.183-1.182 1.775-2.998 1.775-5.446 0-1.891-.67-4.731-2.014-8.522-1.89-5.482-2.837-9.783-2.837-12.901 0-4.536 1.223-8.561 3.668-12.073 2.445-3.512 6.31-5.267 11.592-5.267 2.25 0 4.041.61 5.382 1.831 1.341 1.222 2.011 2.701 2.011 4.433 0 1.182-.325 2.14-.974 2.867-.652.728-1.39 1.095-2.218 1.095-1.738 0-3.292-.84-4.672-2.513-1.383-1.676-2.308-2.65-2.781-2.926-.471-.239-1.204-.355-2.19-.355-1.102 0-2.079.473-2.926 1.421-.851.946-1.271 2.092-1.271 3.434-.002 3.199.949 7.648 2.851 13.344 1.905 5.698 2.847 10.126 2.826 13.283 0 2.015-.622 4.057-1.863 6.127-1.243 2.075-3.176 3.83-5.797 5.272-2.624 1.44-5.315 2.158-8.073 2.158-3.313 0-5.788-.707-7.423-2.128-1.638-1.416-2.455-3.111-2.455-5.081 0-1.183.334-2.138 1.007-2.866.668-.73 1.554-1.094 2.661-1.094Z" fill="#231F20"/>
  <path d="M160.462 266.074c1.972 0 3.586 1.516 4.851 4.551.628 1.497 1.241 2.483 1.832 2.953.55.515 1.281.77 2.188.77 1.695 0 3.312-.788 4.85-2.367 1.183-1.182 1.775-2.998 1.775-5.446 0-1.891-.67-4.731-2.014-8.522-1.89-5.482-2.837-9.783-2.837-12.901 0-4.536 1.223-8.561 3.668-12.073 2.445-3.512 6.31-5.267 11.592-5.267 2.25 0 4.041.61 5.382 1.831 1.341 1.222 2.011 2.701 2.011 4.433 0 1.182-.325 2.14-.974 2.867-.652.728-1.39 1.095-2.218 1.095-1.738 0-3.292-.84-4.672-2.513-1.383-1.676-2.308-2.65-2.781-2.926-.471-.239-1.204-.355-2.19-.355-1.102 0-2.079.473-2.926 1.421-.851.946-1.271 2.092-1.271 3.434-.002 3.199.949 7.648 2.851 13.344 1.905 5.698 2.847 10.126 2.826 13.283 0 2.015-.622 4.057-1.863 6.127-1.243 2.075-3.176 3.83-5.797 5.272-2.624 1.44-5.315 2.158-8.073 2.158-3.313 0-5.788-.707-7.423-2.128-1.638-1.416-2.455-3.111-2.455-5.081 0-1.183.334-2.138 1.007-2.866.668-.73 1.554-1.094 2.661-1.094Z" stroke="#231F20" stroke-width=".667" stroke-miterlimit="10"/>
  <path d="M195.773 266.074c1.972 0 3.586 1.516 4.851 4.551.628 1.497 1.241 2.483 1.832 2.953.55.515 1.281.77 2.188.77 1.696 0 3.312-.788 4.85-2.367 1.184-1.182 1.775-2.998 1.775-5.446 0-1.891-.67-4.731-2.014-8.522-1.89-5.482-2.837-9.783-2.837-12.901 0-4.536 1.223-8.561 3.668-12.073 2.445-3.512 6.31-5.267 11.592-5.267 2.25 0 4.041.61 5.382 1.831 1.341 1.222 2.011 2.701 2.011 4.433 0 1.182-.325 2.14-.974 2.867-.652.728-1.39 1.095-2.218 1.095-1.737 0-3.292-.84-4.672-2.513-1.383-1.676-2.308-2.65-2.781-2.926-.471-.239-1.204-.355-2.19-.355-1.102 0-2.079.473-2.926 1.421-.851.946-1.271 2.092-1.271 3.434-.002 3.199.949 7.648 2.851 13.344 1.905 5.698 2.847 10.126 2.826 13.283 0 2.015-.622 4.057-1.863 6.127-1.243 2.075-3.176 3.83-5.797 5.272-2.624 1.44-5.315 2.158-8.073 2.158-3.313 0-5.788-.707-7.423-2.128-1.638-1.416-2.455-3.111-2.455-5.081 0-1.183.334-2.138 1.007-2.866.668-.73 1.554-1.094 2.661-1.094Z" fill="#231F20"/>
  <path d="M195.773 266.074c1.972 0 3.586 1.516 4.851 4.551.628 1.497 1.241 2.483 1.832 2.953.55.515 1.281.77 2.188.77 1.696 0 3.312-.788 4.85-2.367 1.184-1.182 1.775-2.998 1.775-5.446 0-1.891-.67-4.731-2.014-8.522-1.89-5.482-2.837-9.783-2.837-12.901 0-4.536 1.223-8.561 3.668-12.073 2.445-3.512 6.31-5.267 11.592-5.267 2.25 0 4.041.61 5.382 1.831 1.341 1.222 2.011 2.701 2.011 4.433 0 1.182-.325 2.14-.974 2.867-.652.728-1.39 1.095-2.218 1.095-1.737 0-3.292-.84-4.672-2.513-1.383-1.676-2.308-2.65-2.781-2.926-.471-.239-1.204-.355-2.19-.355-1.102 0-2.079.473-2.926 1.421-.851.946-1.271 2.092-1.271 3.434-.002 3.199.949 7.648 2.851 13.344 1.905 5.698 2.847 10.126 2.826 13.283 0 2.015-.622 4.057-1.863 6.127-1.243 2.075-3.176 3.83-5.797 5.272-2.624 1.44-5.315 2.158-8.073 2.158-3.313 0-5.788-.707-7.423-2.128-1.638-1.416-2.455-3.111-2.455-5.081 0-1.183.334-2.138 1.007-2.866.668-.73 1.554-1.094 2.661-1.094Z" stroke="#231F20" stroke-width=".667" stroke-miterlimit="10"/>
  <path d="M239.602 251.886c1.262.042 3.234-.452 5.915-1.477 1.459-.551 3.392-1.634 5.797-3.25.947-.633 2.03-1.704 3.253-3.222 1.222-1.516 2.148-3.095 2.779-4.729.631-1.635.949-3.318.949-5.052 0-1.145-.337-2.091-1.007-2.84-.671-.746-1.42-1.122-2.248-1.122-1.065 0-2.327.61-3.786 1.834-2.445 2.128-5.008 5.694-7.688 10.696-2.011 3.823-3.333 6.879-3.964 9.162Zm-1.007 3.016c-1.299 3.575-1.949 7.187-1.949 10.843 0 2.67.629 4.812 1.891 6.421.828 1.101 1.953 1.651 3.373 1.651.865 0 1.635-.176 2.306-.531 1.459-.744 2.709-1.628 3.755-2.645 1.047-1.023 2.139-2.356 3.283-4.002 1.144-1.648 2.072-3.491 2.781-5.531h.826c.473 0 1.007.04 1.599.118-1.184 4.398-4.102 8.717-8.755 12.959-2.919 2.632-5.934 3.946-9.047 3.946-2.093 0-3.867-.946-5.324-2.835-1.933-2.485-2.9-5.912-2.9-10.286 0-1.892.285-4.159.858-6.797.571-2.641 1.232-4.848 1.981-6.621a66.367 66.367 0 0 1 3.963-7.804l4.553-6.62c2.96-3.151 4.617-4.885 4.969-5.2 1.383-1.185 2.77-2.077 4.171-2.689a10.722 10.722 0 0 1 4.347-.916c1.933 0 3.626.809 5.088 2.427 1.457 1.62 2.19 3.656 2.19 6.102 0 2.174-.564 4.316-1.687 6.428-1.125 2.114-2.338 3.665-3.637 4.651l-4.911 3.196c-.552.281-2.032.782-4.436 1.514-2.405.731-5.502 1.472-9.288 2.221Z" fill="#231F20"/>
  <path d="M239.602 251.886c1.262.042 3.234-.452 5.915-1.477 1.459-.551 3.392-1.634 5.797-3.25.947-.633 2.03-1.704 3.253-3.222 1.222-1.516 2.148-3.095 2.779-4.729.631-1.635.949-3.318.949-5.052 0-1.145-.337-2.091-1.007-2.84-.671-.746-1.42-1.122-2.248-1.122-1.065 0-2.327.61-3.786 1.834-2.445 2.128-5.008 5.694-7.688 10.696-2.011 3.823-3.333 6.879-3.964 9.162Zm-1.007 3.016c-1.299 3.575-1.949 7.187-1.949 10.843 0 2.67.629 4.812 1.891 6.421.828 1.101 1.953 1.651 3.373 1.651.865 0 1.635-.176 2.306-.531 1.459-.744 2.709-1.628 3.755-2.645 1.047-1.023 2.139-2.356 3.283-4.002 1.144-1.648 2.072-3.491 2.781-5.531h.826c.473 0 1.007.04 1.599.118-1.184 4.398-4.102 8.717-8.755 12.959-2.919 2.632-5.934 3.946-9.047 3.946-2.093 0-3.867-.946-5.324-2.835-1.933-2.485-2.9-5.912-2.9-10.286 0-1.892.285-4.159.858-6.797.571-2.641 1.232-4.848 1.981-6.621a66.367 66.367 0 0 1 3.963-7.804l4.553-6.62c2.96-3.151 4.617-4.885 4.969-5.2 1.383-1.185 2.77-2.077 4.171-2.689a10.722 10.722 0 0 1 4.347-.916c1.933 0 3.626.809 5.088 2.427 1.457 1.62 2.19 3.656 2.19 6.102 0 2.174-.564 4.316-1.687 6.428-1.125 2.114-2.338 3.665-3.637 4.651l-4.911 3.196c-.552.281-2.032.782-4.436 1.514-2.405.731-5.502 1.472-9.288 2.221Z" stroke="#231F20" stroke-width=".667" stroke-miterlimit="10"/>
  <path d="M278.995 232.794a23.925 23.925 0 0 0-3.668 3.311c-.315.355-2.108 2.719-5.381 7.091l-2.425.121c.984-2.128 2.812-4.75 5.487-7.864 2.672-3.111 4.994-5.239 6.964-6.382 1.257-.749 2.672-1.182 4.247-1.3.984.273 1.661.644 2.037 1.112.373.471.561 1.037.561 1.7s-.079 1.326-.236 1.989c-.434 2.149-1.297 5.232-2.589 9.252-1.288 4.02-2.443 7.191-3.459 9.516l-3.076 7.27-.237 1.065c.552-.944 1.675-3.054 3.371-6.325 6.428-12.173 11.061-19.684 13.9-22.535 2.09-2.029 4.535-3.044 7.335-3.044 1.575 0 3.055.628 4.436 1.889 1.025.988 1.538 2.288 1.538 3.904 0 1.811-.573 3.368-1.715 4.669-.791.906-1.913 1.361-3.37 1.361-1.225 0-2.083-.285-2.575-.858-.494-.573-.798-2.001-.917-4.286-.512-1.025-1.085-1.537-1.716-1.537s-1.299.333-2.011 1.001c-1.896 1.695-5.47 7.115-10.725 16.26-5.249 9.146-8.539 15.502-9.863 19.061-1.323 3.561-2.399 6.011-3.227 7.347-.432.679-1.237 1.017-2.408 1.017-1.058 0-1.812-.188-2.262-.561a1.806 1.806 0 0 1-.675-1.449c0-.788.197-1.694.594-2.719 1.693-4.138 4.414-11.763 8.161-22.874l4.141-12.649c.276-1.129.473-1.847.589-2.16l.357-.876c0-.388-.394-.893-1.183-1.517Z" fill="#231F20"/>
  <path d="M278.995 232.794a23.925 23.925 0 0 0-3.668 3.311c-.315.355-2.108 2.719-5.381 7.091l-2.425.121c.984-2.128 2.812-4.75 5.487-7.864 2.672-3.111 4.994-5.239 6.964-6.382 1.257-.749 2.672-1.182 4.247-1.3.984.273 1.661.644 2.037 1.112.373.471.561 1.037.561 1.7s-.079 1.326-.236 1.989c-.434 2.149-1.297 5.232-2.589 9.252-1.288 4.02-2.443 7.191-3.459 9.516l-3.076 7.27-.237 1.065c.552-.944 1.675-3.054 3.371-6.325 6.428-12.173 11.061-19.684 13.9-22.535 2.09-2.029 4.535-3.044 7.335-3.044 1.575 0 3.055.628 4.436 1.889 1.025.988 1.538 2.288 1.538 3.904 0 1.811-.573 3.368-1.715 4.669-.791.906-1.913 1.361-3.37 1.361-1.225 0-2.083-.285-2.575-.858-.494-.573-.798-2.001-.917-4.286-.512-1.025-1.085-1.537-1.716-1.537s-1.299.333-2.011 1.001c-1.896 1.695-5.47 7.115-10.725 16.26-5.249 9.146-8.539 15.502-9.863 19.061-1.323 3.561-2.399 6.011-3.227 7.347-.432.679-1.237 1.017-2.408 1.017-1.058 0-1.812-.188-2.262-.561a1.806 1.806 0 0 1-.675-1.449c0-.788.197-1.694.594-2.719 1.693-4.138 4.414-11.763 8.161-22.874l4.141-12.649c.276-1.129.473-1.847.589-2.16l.357-.876c0-.388-.394-.893-1.183-1.517Z" stroke="#231F20" stroke-width=".667" stroke-miterlimit="10"/>
  <path d="M321.342 206.255c0-1.38.531-2.611 1.596-3.696 1.065-1.082 2.311-1.625 3.728-1.625 1.341 0 2.485.473 3.431 1.419.946.946 1.42 2.031 1.42 3.25 0 1.576-.592 3.016-1.775 4.317-.71.748-2.011 1.122-3.904 1.122-1.262 0-2.327-.434-3.192-1.301-.87-.867-1.304-2.028-1.304-3.486Zm-3.37 26.539c-.829 0-1.439.06-1.833.176-1.856.988-3.215 1.834-4.083 2.543-1.775 1.382-3.449 2.995-5.027 4.848l-3.429.769c3.037-4.101 6.41-7.309 10.119-9.634 3.71-2.326 6.628-3.489 8.76-3.489.907 0 1.587.227 2.041.681.45.452.68 1.034.68 1.744 0 1.933-1.104 5.144-3.313 9.639-.276.552-.928 1.973-1.953 4.256a169.583 169.583 0 0 1-7.579 14.654 102.73 102.73 0 0 0-2.841 5.32 50.978 50.978 0 0 1-1.478 2.775c-1.225 2.052-1.835 3.568-1.835 4.553 0 .276.109.524.325.74.218.215.482.324.8.324.434 0 1.093-.236 1.981-.709 1.48-.786 3.248-2.098 5.303-3.932a32.256 32.256 0 0 0 5.428-6.294h2.608c-1.197 2.128-2.96 4.572-5.292 7.33-2.329 2.759-4.978 4.964-7.947 6.619-2.225 1.261-4.206 1.892-5.936 1.892-1.32 0-2.288-.267-2.907-.798-.619-.533-.928-1.231-.928-2.098 0-3.034 2.229-8.749 6.683-17.141l9.523-17.969c.986-1.852 1.677-3.31 2.069-4.374.239-.67.357-1.122.357-1.361 0-.197-.099-.549-.296-1.064Z" fill="#231F20"/>
  <path d="M321.342 206.255c0-1.38.531-2.611 1.596-3.696 1.065-1.082 2.311-1.625 3.728-1.625 1.341 0 2.485.473 3.431 1.419.946.946 1.42 2.031 1.42 3.25 0 1.576-.592 3.016-1.775 4.317-.71.748-2.011 1.122-3.904 1.122-1.262 0-2.327-.434-3.192-1.301-.87-.867-1.304-2.028-1.304-3.486Zm-3.37 26.539c-.829 0-1.439.06-1.833.176-1.856.988-3.215 1.834-4.083 2.543-1.775 1.382-3.449 2.995-5.027 4.848l-3.429.769c3.037-4.101 6.41-7.309 10.119-9.634 3.71-2.326 6.628-3.489 8.76-3.489.907 0 1.587.227 2.041.681.45.452.68 1.034.68 1.744 0 1.933-1.104 5.144-3.313 9.639-.276.552-.928 1.973-1.953 4.256a169.583 169.583 0 0 1-7.579 14.654 102.73 102.73 0 0 0-2.841 5.32 50.978 50.978 0 0 1-1.478 2.775c-1.225 2.052-1.835 3.568-1.835 4.553 0 .276.109.524.325.74.218.215.482.324.8.324.434 0 1.093-.236 1.981-.709 1.48-.786 3.248-2.098 5.303-3.932a32.256 32.256 0 0 0 5.428-6.294h2.608c-1.197 2.128-2.96 4.572-5.292 7.33-2.329 2.759-4.978 4.964-7.947 6.619-2.225 1.261-4.206 1.892-5.936 1.892-1.32 0-2.288-.267-2.907-.798-.619-.533-.928-1.231-.928-2.098 0-3.034 2.229-8.749 6.683-17.141l9.523-17.969c.986-1.852 1.677-3.31 2.069-4.374.239-.67.357-1.122.357-1.361 0-.197-.099-.549-.296-1.064Z" stroke="#231F20" stroke-width=".667" stroke-miterlimit="10"/>
  <path d="M339.264 251.886c1.262.042 3.233-.452 5.915-1.477 1.459-.551 3.392-1.634 5.797-3.25.947-.633 2.03-1.704 3.253-3.222 1.222-1.516 2.148-3.095 2.779-4.729.631-1.635.949-3.318.949-5.052 0-1.145-.337-2.091-1.007-2.84-.671-.746-1.42-1.122-2.248-1.122-1.065 0-2.327.61-3.786 1.834-2.445 2.128-5.008 5.694-7.688 10.696-2.011 3.823-3.333 6.879-3.964 9.162Zm-1.007 3.016c-1.299 3.575-1.949 7.187-1.949 10.843 0 2.67.629 4.812 1.891 6.421.828 1.101 1.953 1.651 3.373 1.651.865 0 1.635-.176 2.306-.531 1.459-.744 2.709-1.628 3.755-2.645 1.047-1.023 2.139-2.356 3.283-4.002 1.144-1.648 2.072-3.491 2.781-5.531h.826c.473 0 1.007.04 1.599.118-1.184 4.398-4.102 8.717-8.755 12.959-2.919 2.632-5.934 3.946-9.047 3.946-2.093 0-3.868-.946-5.324-2.835-1.933-2.485-2.9-5.912-2.9-10.286 0-1.892.285-4.159.858-6.797.571-2.641 1.232-4.848 1.981-6.621a66.367 66.367 0 0 1 3.963-7.804l4.553-6.62c2.96-3.151 4.617-4.885 4.969-5.2 1.383-1.185 2.77-2.077 4.171-2.689a10.722 10.722 0 0 1 4.347-.916c1.933 0 3.626.809 5.088 2.427 1.457 1.62 2.19 3.656 2.19 6.102 0 2.174-.564 4.316-1.687 6.428-1.125 2.114-2.338 3.665-3.637 4.651l-4.911 3.196c-.552.281-2.032.782-4.436 1.514-2.405.731-5.502 1.472-9.288 2.221Z" fill="#231F20"/>
  <path d="M339.264 251.886c1.262.042 3.233-.452 5.915-1.477 1.459-.551 3.392-1.634 5.797-3.25.947-.633 2.03-1.704 3.253-3.222 1.222-1.516 2.148-3.095 2.779-4.729.631-1.635.949-3.318.949-5.052 0-1.145-.337-2.091-1.007-2.84-.671-.746-1.42-1.122-2.248-1.122-1.065 0-2.327.61-3.786 1.834-2.445 2.128-5.008 5.694-7.688 10.696-2.011 3.823-3.333 6.879-3.964 9.162Zm-1.007 3.016c-1.299 3.575-1.949 7.187-1.949 10.843 0 2.67.629 4.812 1.891 6.421.828 1.101 1.953 1.651 3.373 1.651.865 0 1.635-.176 2.306-.531 1.459-.744 2.709-1.628 3.755-2.645 1.047-1.023 2.139-2.356 3.283-4.002 1.144-1.648 2.072-3.491 2.781-5.531h.826c.473 0 1.007.04 1.599.118-1.184 4.398-4.102 8.717-8.755 12.959-2.919 2.632-5.934 3.946-9.047 3.946-2.093 0-3.868-.946-5.324-2.835-1.933-2.485-2.9-5.912-2.9-10.286 0-1.892.285-4.159.858-6.797.571-2.641 1.232-4.848 1.981-6.621a66.367 66.367 0 0 1 3.963-7.804l4.553-6.62c2.96-3.151 4.617-4.885 4.969-5.2 1.383-1.185 2.77-2.077 4.171-2.689a10.722 10.722 0 0 1 4.347-.916c1.933 0 3.626.809 5.088 2.427 1.457 1.62 2.19 3.656 2.19 6.102 0 2.174-.564 4.316-1.687 6.428-1.125 2.114-2.338 3.665-3.637 4.651l-4.911 3.196c-.552.281-2.032.782-4.436 1.514-2.405.731-5.502 1.472-9.288 2.221Z" stroke="#231F20" stroke-width=".667" stroke-miterlimit="10"/>
  <path d="m417.342 199.87.179-1.713c4.832-.394 8.495-.591 10.991-.591h2.615v.793l-1.833 5.733c-.079.158-1.519 3.804-4.319 10.935l-7.99 20.806c-1.422 3.9-3.786 9.929-7.101 18.083l-1.953 5.144c-1.378 3.742-2.484 6.264-3.313 7.567-1.301 2.119-1.95 3.69-1.95 4.71l.234.942c1.292-.116 2.888-1.004 4.792-2.659 2.784-2.326 5.31-5.3 7.582-8.926.733-.157 1.301-.236 1.705-.236l.658.058c-1.477 2.877-3.066 5.223-4.771 7.033-2.689 2.84-4.545 4.632-5.566 5.381-2.273 1.734-4.449 3.053-6.532 3.962-1.325.591-2.631.883-3.918.883-.682 0-1.195-.176-1.534-.531-.341-.352-.51-.809-.51-1.358 0-1.852 3.155-9.992 9.462-24.411 1.933-4.375 3.944-9.38 6.034-15.016 3.668-9.85 6.486-16.865 8.458-21.042 1.972-4.178 3.41-7.94 4.32-11.29.078-.341.116-.626.116-.851 0-.568-.276-1.097-.826-1.59-.712-.606-2.387-1.211-5.03-1.816Z" fill="#231F20"/>
  <path d="m417.342 199.87.179-1.713c4.832-.394 8.495-.591 10.991-.591h2.615v.793l-1.833 5.733c-.079.158-1.519 3.804-4.319 10.935l-7.99 20.806c-1.422 3.9-3.786 9.929-7.101 18.083l-1.953 5.144c-1.378 3.742-2.484 6.264-3.313 7.567-1.301 2.119-1.95 3.69-1.95 4.71l.234.942c1.292-.116 2.888-1.004 4.792-2.659 2.784-2.326 5.31-5.3 7.582-8.926.733-.157 1.301-.236 1.705-.236l.658.058c-1.477 2.877-3.066 5.223-4.771 7.033-2.689 2.84-4.545 4.632-5.566 5.381-2.273 1.734-4.449 3.053-6.532 3.962-1.325.591-2.631.883-3.918.883-.682 0-1.195-.176-1.534-.531-.341-.352-.51-.809-.51-1.358 0-1.852 3.155-9.992 9.462-24.411 1.933-4.375 3.944-9.38 6.034-15.016 3.668-9.85 6.486-16.865 8.458-21.042 1.972-4.178 3.41-7.94 4.32-11.29.078-.341.116-.626.116-.851 0-.568-.276-1.097-.826-1.59-.712-.606-2.387-1.211-5.03-1.816Z" stroke="#231F20" stroke-width=".667" stroke-miterlimit="10"/>
  <path d="M431.358 251.886c1.262.042 3.234-.452 5.916-1.477 1.459-.551 3.391-1.634 5.797-3.25.946-.633 2.03-1.704 3.252-3.222 1.223-1.516 2.148-3.095 2.779-4.729.631-1.635.949-3.318.949-5.052 0-1.145-.336-2.091-1.007-2.84-.67-.746-1.419-1.122-2.247-1.122-1.065 0-2.327.61-3.786 1.834-2.445 2.128-5.009 5.694-7.688 10.696-2.011 3.823-3.334 6.879-3.965 9.162Zm-1.006 3.016c-1.299 3.575-1.949 7.187-1.949 10.843 0 2.67.629 4.812 1.891 6.421.828 1.101 1.953 1.651 3.373 1.651.865 0 1.635-.176 2.305-.531 1.46-.744 2.71-1.628 3.756-2.645 1.046-1.023 2.139-2.356 3.283-4.002 1.143-1.648 2.071-3.491 2.781-5.531h.826c.473 0 1.007.04 1.598.118-1.183 4.398-4.101 8.717-8.755 12.959-2.918 2.632-5.934 3.946-9.047 3.946-2.092 0-3.867-.946-5.324-2.835-1.932-2.485-2.899-5.912-2.899-10.286 0-1.892.285-4.159.858-6.797.571-2.641 1.232-4.848 1.981-6.621a66.363 66.363 0 0 1 3.962-7.804l4.554-6.62c2.96-3.151 4.616-4.885 4.969-5.2 1.383-1.185 2.77-2.077 4.171-2.689a10.722 10.722 0 0 1 4.347-.916c1.933 0 3.626.809 5.087 2.427 1.457 1.62 2.19 3.656 2.19 6.102 0 2.174-.563 4.316-1.686 6.428-1.125 2.114-2.338 3.665-3.638 4.651l-4.911 3.196c-.552.281-2.032.782-4.435 1.514-2.406.731-5.502 1.472-9.288 2.221Z" fill="#231F20"/>
  <path d="M431.358 251.886c1.262.042 3.234-.452 5.916-1.477 1.459-.551 3.391-1.634 5.797-3.25.946-.633 2.03-1.704 3.252-3.222 1.223-1.516 2.148-3.095 2.779-4.729.631-1.635.949-3.318.949-5.052 0-1.145-.336-2.091-1.007-2.84-.67-.746-1.419-1.122-2.247-1.122-1.065 0-2.327.61-3.786 1.834-2.445 2.128-5.009 5.694-7.688 10.696-2.011 3.823-3.334 6.879-3.965 9.162Zm-1.006 3.016c-1.299 3.575-1.949 7.187-1.949 10.843 0 2.67.629 4.812 1.891 6.421.828 1.101 1.953 1.651 3.373 1.651.865 0 1.635-.176 2.305-.531 1.46-.744 2.71-1.628 3.756-2.645 1.046-1.023 2.139-2.356 3.283-4.002 1.143-1.648 2.071-3.491 2.781-5.531h.826c.473 0 1.007.04 1.598.118-1.183 4.398-4.101 8.717-8.755 12.959-2.918 2.632-5.934 3.946-9.047 3.946-2.092 0-3.867-.946-5.324-2.835-1.932-2.485-2.899-5.912-2.899-10.286 0-1.892.285-4.159.858-6.797.571-2.641 1.232-4.848 1.981-6.621a66.363 66.363 0 0 1 3.962-7.804l4.554-6.62c2.96-3.151 4.616-4.885 4.969-5.2 1.383-1.185 2.77-2.077 4.171-2.689a10.722 10.722 0 0 1 4.347-.916c1.933 0 3.626.809 5.087 2.427 1.457 1.62 2.19 3.656 2.19 6.102 0 2.174-.563 4.316-1.686 6.428-1.125 2.114-2.338 3.665-3.638 4.651l-4.911 3.196c-.552.281-2.032.782-4.435 1.514-2.406.731-5.502 1.472-9.288 2.221Z" stroke="#231F20" stroke-width=".667" stroke-miterlimit="10"/>
  <path d="M480.454 274.111c.775-.153 1.993-.29 3.659-.408 1.665-.118 2.964-.253 3.895-.41 2.44-.195 4.24-.798 5.402-1.813.736-.663 1.221-1.618 1.455-2.866l3.531-16.313c.6-2.917 1.078-4.987 1.438-6.206l.181-1.479 2.814-15.25c.081-.946.396-2.364.958-4.256.559-1.892.976-4.806 1.257-8.749l.898-4.372.768-7.47c0-.704-.255-1.194-.768-1.469-1.144-.626-5.104-1.41-11.884-2.351l.536-1.892 21.949-.118a8.27 8.27 0 0 1 1.077 1.595c.48.788 1.556 2.385 3.233 4.787l3.415 4.79a178.454 178.454 0 0 0 4.19 6.5 102.255 102.255 0 0 1 4.013 6.445c.879 1.458 7.045 11.171 18.502 29.138 2.158 3.352 3.656 5.777 4.494 7.272a156.65 156.65 0 0 0 4.909 8.334 89.006 89.006 0 0 0 1.201-7.685c1.601-7.604 2.536-12.727 2.802-15.365.154-1.458.344-2.84.573-4.141.191-.867.437-2.461.743-4.787l.916-6.618c.035-.749.494-4.169 1.371-10.256.875-6.09 1.315-10.228 1.315-12.419 0-.626-.181-1.507-.542-2.641-1.163-.744-4.037-1.467-8.614-2.172a100.976 100.976 0 0 1-3.795-.709c-.123-.591-.181-1.043-.181-1.361v-.531l.768-.058c.747 0 5.579.218 14.492.659 1.538.074 2.582.108 3.134.108 2.602 0 5.184-.118 7.748-.354 1.814-.158 3.213-.237 4.201-.237-.16.891-.392 1.744-.705 2.555-5.547.505-9.059.995-10.544 1.472-.819.278-1.378.617-1.67 1.013-.292.397-.752 2.205-1.373 5.423-.842 4.571-1.394 7.921-1.659 10.049-.267 2.126-.552 3.923-.858 5.379a282.521 282.521 0 0 0-.745 4.019l-2.232 16.138-4.001 24.114c-.8 5.284-1.218 8.376-1.257 9.28h-1.413c-.395 0-1.005-.037-1.831-.116a55.501 55.501 0 0 0-2.813-4.666l-17.127-26.459a52.646 52.646 0 0 1-1.977-3.189l-4.31-6.38-13.654-21.203c-1.877-2.835-3.473-5.058-4.791-6.674a13.484 13.484 0 0 0-1.078-1.683 28.909 28.909 0 0 1-1.436-2.156c-.2-.276-.48-.707-.84-1.299-.318 1.18-.738 3.329-1.257 6.441l-1.376 7.569c-.721 4.372-1.958 11.014-3.714 19.918l-1.378 7.094-1.438 10.52c-.357 2.956-.817 5.675-1.376 8.158-.559 2.483-.839 4.514-.839 6.09 0 .471.255.983.767 1.535.945.396 2.225.807 3.837 1.242.75.235 1.891.473 3.427.707.273.042 2.38.534 6.316 1.48l-.529 2.07c-.939-.2-2.584-.415-4.931-.654-5.482-.552-9.319-.825-11.511-.825-1.019 0-2.311.039-3.876.118-4.503.197-7.38.297-8.63.297-.668 0-1.742-.021-3.232-.063v-2.186Z" fill="#231F20"/>
  <path d="M480.454 274.111c.775-.153 1.993-.29 3.659-.408 1.665-.118 2.964-.253 3.895-.41 2.44-.195 4.24-.798 5.402-1.813.736-.663 1.221-1.618 1.455-2.866l3.531-16.313c.6-2.917 1.078-4.987 1.438-6.206l.181-1.479 2.814-15.25c.081-.946.396-2.364.958-4.256.559-1.892.976-4.806 1.257-8.749l.898-4.372.768-7.47c0-.704-.255-1.194-.768-1.469-1.144-.626-5.104-1.41-11.884-2.351l.536-1.892 21.949-.118a8.27 8.27 0 0 1 1.077 1.595c.48.788 1.556 2.385 3.233 4.787l3.415 4.79a178.454 178.454 0 0 0 4.19 6.5 102.255 102.255 0 0 1 4.013 6.445c.879 1.458 7.045 11.171 18.502 29.138 2.158 3.352 3.656 5.777 4.494 7.272a156.65 156.65 0 0 0 4.909 8.334 89.006 89.006 0 0 0 1.201-7.685c1.601-7.604 2.536-12.727 2.802-15.365.154-1.458.344-2.84.573-4.141.191-.867.437-2.461.743-4.787l.916-6.618c.035-.749.494-4.169 1.371-10.256.875-6.09 1.315-10.228 1.315-12.419 0-.626-.181-1.507-.542-2.641-1.163-.744-4.037-1.467-8.614-2.172a100.976 100.976 0 0 1-3.795-.709c-.123-.591-.181-1.043-.181-1.361v-.531l.768-.058c.747 0 5.579.218 14.492.659 1.538.074 2.582.108 3.134.108 2.602 0 5.184-.118 7.748-.354 1.814-.158 3.213-.237 4.201-.237-.16.891-.392 1.744-.705 2.555-5.547.505-9.059.995-10.544 1.472-.819.278-1.378.617-1.67 1.013-.292.397-.752 2.205-1.373 5.423-.842 4.571-1.394 7.921-1.659 10.049-.267 2.126-.552 3.923-.858 5.379a282.521 282.521 0 0 0-.745 4.019l-2.232 16.138-4.001 24.114c-.8 5.284-1.218 8.376-1.257 9.28h-1.413c-.395 0-1.005-.037-1.831-.116a55.501 55.501 0 0 0-2.813-4.666l-17.127-26.459a52.646 52.646 0 0 1-1.977-3.189l-4.31-6.38-13.654-21.203c-1.877-2.835-3.473-5.058-4.791-6.674a13.484 13.484 0 0 0-1.078-1.683 28.909 28.909 0 0 1-1.436-2.156c-.2-.276-.48-.707-.84-1.299-.318 1.18-.738 3.329-1.257 6.441l-1.376 7.569c-.721 4.372-1.958 11.014-3.714 19.918l-1.378 7.094-1.438 10.52c-.357 2.956-.817 5.675-1.376 8.158-.559 2.483-.839 4.514-.839 6.09 0 .471.255.983.767 1.535.945.396 2.225.807 3.837 1.242.75.235 1.891.473 3.427.707.273.042 2.38.534 6.316 1.48l-.529 2.07c-.939-.2-2.584-.415-4.931-.654-5.482-.552-9.319-.825-11.511-.825-1.019 0-2.311.039-3.876.118-4.503.197-7.38.297-8.63.297-.668 0-1.742-.021-3.232-.063v-2.186Z" stroke="#231F20" stroke-width=".667" stroke-miterlimit="10"/>
  <path d="M588.517 269.502c0 1.812.422 3.152 1.271 4.017.847.867 2.218 1.303 4.111 1.303 1.851 0 3.725-.907 5.618-2.719 3.392-3.311 6.781-9.004 10.175-17.084 3.389-8.076 5.085-14.442 5.085-19.09 0-1.656-.413-2.968-1.241-3.932-.829-.967-1.773-1.449-2.837-1.449-2.33 0-4.754 1.358-7.278 4.078-4.298 4.574-8.005 10.877-11.118 18.914-2.527 6.545-3.786 11.863-3.786 15.962Zm30.755-26.897c0 9.146-2.772 17.262-8.309 24.353-5.542 7.094-11.288 10.641-17.243 10.641-3.194 0-5.776-1.191-7.748-3.577-1.972-2.383-2.958-6.115-2.958-11.199 0-3.429.77-7.379 2.308-11.851 1.538-4.474 3.529-8.186 5.974-11.144a70.923 70.923 0 0 0 1.893-2.423 29.351 29.351 0 0 1 7.453-6.857c2.877-1.852 5.814-2.777 8.811-2.777 2.76 0 5.089 1.152 6.98 3.456 1.895 2.305 2.839 6.1 2.839 11.378Z" fill="#231F20"/>
  <path d="M588.517 269.502c0 1.812.422 3.152 1.271 4.017.847.867 2.218 1.303 4.111 1.303 1.851 0 3.725-.907 5.618-2.719 3.392-3.311 6.781-9.004 10.175-17.084 3.389-8.076 5.085-14.442 5.085-19.09 0-1.656-.413-2.968-1.241-3.932-.829-.967-1.773-1.449-2.837-1.449-2.33 0-4.754 1.358-7.278 4.078-4.298 4.574-8.005 10.877-11.118 18.914-2.527 6.545-3.786 11.863-3.786 15.962Zm30.755-26.897c0 9.146-2.772 17.262-8.309 24.353-5.542 7.094-11.288 10.641-17.243 10.641-3.194 0-5.776-1.191-7.748-3.577-1.972-2.383-2.958-6.115-2.958-11.199 0-3.429.77-7.379 2.308-11.851 1.538-4.474 3.529-8.186 5.974-11.144a70.923 70.923 0 0 0 1.893-2.423 29.351 29.351 0 0 1 7.453-6.857c2.877-1.852 5.814-2.777 8.811-2.777 2.76 0 5.089 1.152 6.98 3.456 1.895 2.305 2.839 6.1 2.839 11.378Z" stroke="#231F20" stroke-width=".667" stroke-miterlimit="10"/>
  <path d="M636.002 272.162c.974-.239 1.828-.571 2.561-1.006.448-.235 2.032-1.319 4.758-3.251 4.962-4.847 7.769-7.624 8.419-8.334 1.422-1.537 3.029-3.644 4.82-6.324.487-.67 1.526-2.522 3.111-5.557l1.538-4.078c.552-2.404.828-3.783.828-4.14 0-1.101-.462-2.144-1.376-3.13-.612-.591-1.605-.887-2.985-.887-1.585 0-2.944.255-4.081.767a30.112 30.112 0 0 0-7.005 4.495c-2.842 2.481-5.582 5.663-8.222 9.544-2.64 3.883-4.509 7.124-5.604 9.723-1.504 3.586-2.253 6.266-2.253 8.04 0 1.458.306 2.543.914 3.25.61.709 1.383 1.064 2.318 1.064.327 0 1.078-.058 2.259-.176Zm28.872-38.778c.394-.67.654-1.201.77-1.595.473-1.182.949-1.949 1.425-2.304 1.104-.118 1.913-.176 2.426-.176.673 0 1.325.137 1.956.413l.176.711c0 .239-.097.591-.295 1.064-.116.239-.375.988-.77 2.247l-.473 1.182-3.904 10.58c-1.659 4.769-3.109 8.569-4.352 11.406a82.281 82.281 0 0 0-3.225 8.659c-.907 2.937-1.737 5.033-2.486 6.294l-.237.568c0 .229.209.533.626.911 1.661-.985 3.062-2.049 4.208-3.192 2.956-2.956 4.71-4.79 5.264-5.497.408-.512.796-.985 1.164-1.421.441.397.85.809 1.218 1.245-1.057 1.535-2.834 3.623-5.328 6.264-2.494 2.64-4.744 4.511-6.746 5.617-1.55.825-3.004 1.24-4.364 1.24-.87 0-1.521-.192-1.957-.579-.432-.385-.65-.888-.65-1.507 0-.54.197-1.56.592-3.058.985-2.599 1.674-4.314 2.071-5.142.392-.827.923-2.107 1.596-3.841.392-1.064 1.202-2.916 2.424-5.557-.77.749-1.723 1.852-2.858 3.311-3.285 4.019-7.054 7.821-11.311 11.408-.974.827-3.327 2.149-7.057 3.959-1.378.513-2.999.846-4.864 1.006-1.582-.041-2.638-.197-3.162-.473-.974-.512-1.766-1.321-2.373-2.422-.446-.83-.671-2.11-.671-3.846 0-2.518.564-5.316 1.694-8.392 1.934-5.239 3.888-9.12 5.864-11.645 3.385-4.374 6.739-7.84 10.066-10.402 3.322-2.561 6.377-4.432 9.156-5.615 3.667-1.576 6.852-2.367 9.553-2.367.886 0 1.73.082 2.538.239a11.18 11.18 0 0 1 2.296.707Z" fill="#231F20"/>
  <path d="M636.002 272.162c.974-.239 1.828-.571 2.561-1.006.448-.235 2.032-1.319 4.758-3.251 4.962-4.847 7.769-7.624 8.419-8.334 1.422-1.537 3.029-3.644 4.82-6.324.487-.67 1.526-2.522 3.111-5.557l1.538-4.078c.552-2.404.828-3.783.828-4.14 0-1.101-.462-2.144-1.376-3.13-.612-.591-1.605-.887-2.985-.887-1.585 0-2.944.255-4.081.767a30.112 30.112 0 0 0-7.005 4.495c-2.842 2.481-5.582 5.663-8.222 9.544-2.64 3.883-4.509 7.124-5.604 9.723-1.504 3.586-2.253 6.266-2.253 8.04 0 1.458.306 2.543.914 3.25.61.709 1.383 1.064 2.318 1.064.327 0 1.078-.058 2.259-.176Zm28.872-38.778c.394-.67.654-1.201.77-1.595.473-1.182.949-1.949 1.425-2.304 1.104-.118 1.913-.176 2.426-.176.673 0 1.325.137 1.956.413l.176.711c0 .239-.097.591-.295 1.064-.116.239-.375.988-.77 2.247l-.473 1.182-3.904 10.58c-1.659 4.769-3.109 8.569-4.352 11.406a82.281 82.281 0 0 0-3.225 8.659c-.907 2.937-1.737 5.033-2.486 6.294l-.237.568c0 .229.209.533.626.911 1.661-.985 3.062-2.049 4.208-3.192 2.956-2.956 4.71-4.79 5.264-5.497.408-.512.796-.985 1.164-1.421.441.397.85.809 1.218 1.245-1.057 1.535-2.834 3.623-5.328 6.264-2.494 2.64-4.744 4.511-6.746 5.617-1.55.825-3.004 1.24-4.364 1.24-.87 0-1.521-.192-1.957-.579-.432-.385-.65-.888-.65-1.507 0-.54.197-1.56.592-3.058.985-2.599 1.674-4.314 2.071-5.142.392-.827.923-2.107 1.596-3.841.392-1.064 1.202-2.916 2.424-5.557-.77.749-1.723 1.852-2.858 3.311-3.285 4.019-7.054 7.821-11.311 11.408-.974.827-3.327 2.149-7.057 3.959-1.378.513-2.999.846-4.864 1.006-1.582-.041-2.638-.197-3.162-.473-.974-.512-1.766-1.321-2.373-2.422-.446-.83-.671-2.11-.671-3.846 0-2.518.564-5.316 1.694-8.392 1.934-5.239 3.888-9.12 5.864-11.645 3.385-4.374 6.739-7.84 10.066-10.402 3.322-2.561 6.377-4.432 9.156-5.615 3.667-1.576 6.852-2.367 9.553-2.367.886 0 1.73.082 2.538.239a11.18 11.18 0 0 1 2.296.707Z" stroke="#231F20" stroke-width=".667" stroke-miterlimit="10"/>
  <path d="M693.503 206.255c0-1.38.531-2.611 1.596-3.696 1.064-1.082 2.31-1.625 3.727-1.625 1.341 0 2.485.473 3.431 1.419.947.946 1.42 2.031 1.42 3.25 0 1.576-.591 3.016-1.775 4.317-.709.748-2.011 1.122-3.904 1.122-1.262 0-2.326-.434-3.192-1.301-.87-.867-1.303-2.028-1.303-3.486Zm-3.371 26.539c-.828 0-1.438.06-1.833.176-1.856.988-3.215 1.834-4.083 2.543-1.774 1.382-3.449 2.995-5.026 4.848l-3.429.769c3.036-4.101 6.409-7.309 10.119-9.634 3.709-2.326 6.627-3.489 8.759-3.489.907 0 1.587.227 2.042.681.45.452.679 1.034.679 1.744 0 1.933-1.104 5.144-3.312 9.639-.276.552-.928 1.973-1.954 4.256a169.58 169.58 0 0 1-7.578 14.654c-.868 1.5-1.814 3.271-2.842 5.32a50.978 50.978 0 0 1-1.478 2.775c-1.225 2.052-1.835 3.568-1.835 4.553 0 .276.109.524.325.74.218.215.483.324.8.324.434 0 1.093-.236 1.982-.709 1.48-.786 3.247-2.098 5.303-3.932a32.324 32.324 0 0 0 5.428-6.294h2.607c-1.197 2.128-2.96 4.572-5.291 7.33-2.329 2.759-4.978 4.964-7.948 6.619-2.224 1.261-4.205 1.892-5.936 1.892-1.32 0-2.287-.267-2.907-.798-.619-.533-.928-1.231-.928-2.098 0-3.034 2.23-8.749 6.684-17.141l9.522-17.969c.986-1.852 1.678-3.31 2.07-4.374.239-.67.357-1.122.357-1.361 0-.197-.1-.549-.297-1.064Z" fill="#231F20"/>
  <path d="M693.503 206.255c0-1.38.531-2.611 1.596-3.696 1.064-1.082 2.31-1.625 3.727-1.625 1.341 0 2.485.473 3.431 1.419.947.946 1.42 2.031 1.42 3.25 0 1.576-.591 3.016-1.775 4.317-.709.748-2.011 1.122-3.904 1.122-1.262 0-2.326-.434-3.192-1.301-.87-.867-1.303-2.028-1.303-3.486Zm-3.371 26.539c-.828 0-1.438.06-1.833.176-1.856.988-3.215 1.834-4.083 2.543-1.774 1.382-3.449 2.995-5.026 4.848l-3.429.769c3.036-4.101 6.409-7.309 10.119-9.634 3.709-2.326 6.627-3.489 8.759-3.489.907 0 1.587.227 2.042.681.45.452.679 1.034.679 1.744 0 1.933-1.104 5.144-3.312 9.639-.276.552-.928 1.973-1.954 4.256a169.58 169.58 0 0 1-7.578 14.654c-.868 1.5-1.814 3.271-2.842 5.32a50.978 50.978 0 0 1-1.478 2.775c-1.225 2.052-1.835 3.568-1.835 4.553 0 .276.109.524.325.74.218.215.483.324.8.324.434 0 1.093-.236 1.982-.709 1.48-.786 3.247-2.098 5.303-3.932a32.324 32.324 0 0 0 5.428-6.294h2.607c-1.197 2.128-2.96 4.572-5.291 7.33-2.329 2.759-4.978 4.964-7.948 6.619-2.224 1.261-4.205 1.892-5.936 1.892-1.32 0-2.287-.267-2.907-.798-.619-.533-.928-1.231-.928-2.098 0-3.034 2.23-8.749 6.684-17.141l9.522-17.969c.986-1.852 1.678-3.31 2.07-4.374.239-.67.357-1.122.357-1.361 0-.197-.1-.549-.297-1.064Z" stroke="#231F20" stroke-width=".667" stroke-miterlimit="10"/>
  <path d="m723.905 199.87.178-1.713c4.832-.394 8.495-.591 10.991-.591h2.615v.793l-1.833 5.733c-.079.158-1.519 3.804-4.319 10.935l-7.99 20.806c-1.422 3.9-3.786 9.929-7.101 18.083l-1.953 5.144c-1.378 3.742-2.484 6.264-3.312 7.567-1.302 2.119-1.951 3.69-1.951 4.71l.234.942c1.292-.116 2.888-1.004 4.793-2.659 2.783-2.326 5.31-5.3 7.581-8.926.733-.157 1.301-.236 1.705-.236l.659.058c-1.478 2.877-3.067 5.223-4.772 7.033-2.689 2.84-4.545 4.632-5.565 5.381-2.274 1.734-4.45 3.053-6.533 3.962-1.325.591-2.631.883-3.918.883-.682 0-1.195-.176-1.533-.531-.341-.352-.511-.809-.511-1.358 0-1.852 3.155-9.992 9.463-24.411 1.932-4.375 3.943-9.38 6.033-15.016 3.668-9.85 6.486-16.865 8.458-21.042 1.972-4.178 3.41-7.94 4.32-11.29.079-.341.116-.626.116-.851 0-.568-.276-1.097-.826-1.59-.712-.606-2.387-1.211-5.029-1.816Z" fill="#231F20"/>
  <path d="m723.905 199.87.178-1.713c4.832-.394 8.495-.591 10.991-.591h2.615v.793l-1.833 5.733c-.079.158-1.519 3.804-4.319 10.935l-7.99 20.806c-1.422 3.9-3.786 9.929-7.101 18.083l-1.953 5.144c-1.378 3.742-2.484 6.264-3.312 7.567-1.302 2.119-1.951 3.69-1.951 4.71l.234.942c1.292-.116 2.888-1.004 4.793-2.659 2.783-2.326 5.31-5.3 7.581-8.926.733-.157 1.301-.236 1.705-.236l.659.058c-1.478 2.877-3.067 5.223-4.772 7.033-2.689 2.84-4.545 4.632-5.565 5.381-2.274 1.734-4.45 3.053-6.533 3.962-1.325.591-2.631.883-3.918.883-.682 0-1.195-.176-1.533-.531-.341-.352-.511-.809-.511-1.358 0-1.852 3.155-9.992 9.463-24.411 1.932-4.375 3.943-9.38 6.033-15.016 3.668-9.85 6.486-16.865 8.458-21.042 1.972-4.178 3.41-7.94 4.32-11.29.079-.341.116-.626.116-.851 0-.568-.276-1.097-.826-1.59-.712-.606-2.387-1.211-5.029-1.816Z" stroke="#231F20" stroke-width=".667" stroke-miterlimit="10"/>
  <path d="m750.403 199.87.179-1.713c4.832-.394 8.495-.591 10.991-.591h2.614v.793l-1.832 5.733c-.079.158-1.52 3.804-4.32 10.935l-7.989 20.806c-1.422 3.9-3.786 9.929-7.101 18.083l-1.953 5.144c-1.378 3.742-2.485 6.264-3.313 7.567-1.301 2.119-1.951 3.69-1.951 4.71l.235.942c1.292-.116 2.888-1.004 4.792-2.659 2.784-2.326 5.31-5.3 7.581-8.926.733-.157 1.302-.236 1.705-.236l.659.058c-1.478 2.877-3.067 5.223-4.772 7.033-2.688 2.84-4.544 4.632-5.565 5.381-2.273 1.734-4.449 3.053-6.532 3.962-1.325.591-2.631.883-3.918.883-.682 0-1.195-.176-1.534-.531-.341-.352-.51-.809-.51-1.358 0-1.852 3.155-9.992 9.462-24.411 1.933-4.375 3.944-9.38 6.034-15.016 3.668-9.85 6.486-16.865 8.458-21.042 1.972-4.178 3.41-7.94 4.319-11.29.079-.341.116-.626.116-.851 0-.568-.276-1.097-.825-1.59-.713-.606-2.388-1.211-5.03-1.816Z" fill="#231F20"/>
  <path d="m750.403 199.87.179-1.713c4.832-.394 8.495-.591 10.991-.591h2.614v.793l-1.832 5.733c-.079.158-1.52 3.804-4.32 10.935l-7.989 20.806c-1.422 3.9-3.786 9.929-7.101 18.083l-1.953 5.144c-1.378 3.742-2.485 6.264-3.313 7.567-1.301 2.119-1.951 3.69-1.951 4.71l.235.942c1.292-.116 2.888-1.004 4.792-2.659 2.784-2.326 5.31-5.3 7.581-8.926.733-.157 1.302-.236 1.705-.236l.659.058c-1.478 2.877-3.067 5.223-4.772 7.033-2.688 2.84-4.544 4.632-5.565 5.381-2.273 1.734-4.449 3.053-6.532 3.962-1.325.591-2.631.883-3.918.883-.682 0-1.195-.176-1.534-.531-.341-.352-.51-.809-.51-1.358 0-1.852 3.155-9.992 9.462-24.411 1.933-4.375 3.944-9.38 6.034-15.016 3.668-9.85 6.486-16.865 8.458-21.042 1.972-4.178 3.41-7.94 4.319-11.29.079-.341.116-.626.116-.851 0-.568-.276-1.097-.825-1.59-.713-.606-2.388-1.211-5.03-1.816Z" stroke="#231F20" stroke-width=".667" stroke-miterlimit="10"/>
  <path d="M764.421 251.886c1.262.042 3.234-.452 5.916-1.477 1.459-.551 3.391-1.634 5.797-3.25.946-.633 2.03-1.704 3.252-3.222 1.223-1.516 2.148-3.095 2.779-4.729.631-1.635.949-3.318.949-5.052 0-1.145-.336-2.091-1.007-2.84-.67-.746-1.419-1.122-2.247-1.122-1.065 0-2.327.61-3.786 1.834-2.445 2.128-5.009 5.694-7.688 10.696-2.011 3.823-3.334 6.879-3.965 9.162Zm-1.006 3.016c-1.299 3.575-1.949 7.187-1.949 10.843 0 2.67.629 4.812 1.891 6.421.828 1.101 1.953 1.651 3.373 1.651.865 0 1.635-.176 2.305-.531 1.46-.744 2.71-1.628 3.756-2.645 1.046-1.023 2.139-2.356 3.283-4.002 1.143-1.648 2.071-3.491 2.781-5.531h.826c.473 0 1.007.04 1.598.118-1.183 4.398-4.101 8.717-8.755 12.959-2.918 2.632-5.934 3.946-9.047 3.946-2.092 0-3.867-.946-5.324-2.835-1.932-2.485-2.899-5.912-2.899-10.286 0-1.892.285-4.159.858-6.797.571-2.641 1.232-4.848 1.981-6.621a66.363 66.363 0 0 1 3.962-7.804l4.554-6.62c2.96-3.151 4.616-4.885 4.969-5.2 1.383-1.185 2.77-2.077 4.171-2.689a10.722 10.722 0 0 1 4.347-.916c1.933 0 3.626.809 5.087 2.427 1.457 1.62 2.19 3.656 2.19 6.102 0 2.174-.563 4.316-1.686 6.428-1.125 2.114-2.338 3.665-3.638 4.651l-4.911 3.196c-.552.281-2.032.782-4.435 1.514-2.406.731-5.502 1.472-9.288 2.221Z" fill="#231F20"/>
  <path d="M764.421 251.886c1.262.042 3.234-.452 5.916-1.477 1.459-.551 3.391-1.634 5.797-3.25.946-.633 2.03-1.704 3.252-3.222 1.223-1.516 2.148-3.095 2.779-4.729.631-1.635.949-3.318.949-5.052 0-1.145-.336-2.091-1.007-2.84-.67-.746-1.419-1.122-2.247-1.122-1.065 0-2.327.61-3.786 1.834-2.445 2.128-5.009 5.694-7.688 10.696-2.011 3.823-3.334 6.879-3.965 9.162Zm-1.006 3.016c-1.299 3.575-1.949 7.187-1.949 10.843 0 2.67.629 4.812 1.891 6.421.828 1.101 1.953 1.651 3.373 1.651.865 0 1.635-.176 2.305-.531 1.46-.744 2.71-1.628 3.756-2.645 1.046-1.023 2.139-2.356 3.283-4.002 1.143-1.648 2.071-3.491 2.781-5.531h.826c.473 0 1.007.04 1.598.118-1.183 4.398-4.101 8.717-8.755 12.959-2.918 2.632-5.934 3.946-9.047 3.946-2.092 0-3.867-.946-5.324-2.835-1.932-2.485-2.899-5.912-2.899-10.286 0-1.892.285-4.159.858-6.797.571-2.641 1.232-4.848 1.981-6.621a66.363 66.363 0 0 1 3.962-7.804l4.554-6.62c2.96-3.151 4.616-4.885 4.969-5.2 1.383-1.185 2.77-2.077 4.171-2.689a10.722 10.722 0 0 1 4.347-.916c1.933 0 3.626.809 5.087 2.427 1.457 1.62 2.19 3.656 2.19 6.102 0 2.174-.563 4.316-1.686 6.428-1.125 2.114-2.338 3.665-3.638 4.651l-4.911 3.196c-.552.281-2.032.782-4.435 1.514-2.406.731-5.502 1.472-9.288 2.221Z" stroke="#231F20" stroke-width=".667" stroke-miterlimit="10"/>
  <path d="M791.217 266.074c1.971 0 3.586 1.516 4.85 4.551.629 1.497 1.241 2.483 1.833 2.953.55.515 1.28.77 2.187.77 1.696 0 3.313-.788 4.851-2.367 1.183-1.182 1.775-2.998 1.775-5.446 0-1.891-.671-4.731-2.014-8.522-1.89-5.482-2.837-9.783-2.837-12.901 0-4.536 1.223-8.561 3.668-12.073 2.445-3.512 6.309-5.267 11.592-5.267 2.25 0 4.041.61 5.382 1.831 1.34 1.222 2.011 2.701 2.011 4.433 0 1.182-.325 2.14-.975 2.867-.651.728-1.389 1.095-2.217 1.095-1.738 0-3.292-.84-4.672-2.513-1.383-1.676-2.308-2.65-2.782-2.926-.471-.239-1.204-.355-2.19-.355-1.101 0-2.078.473-2.925 1.421-.851.946-1.271 2.092-1.271 3.434-.002 3.199.949 7.648 2.851 13.344 1.904 5.698 2.846 10.126 2.825 13.283 0 2.015-.621 4.057-1.862 6.127-1.244 2.075-3.176 3.83-5.797 5.272-2.624 1.44-5.315 2.158-8.073 2.158-3.313 0-5.788-.707-7.424-2.128-1.637-1.416-2.454-3.111-2.454-5.081 0-1.183.334-2.138 1.007-2.866.668-.73 1.554-1.094 2.661-1.094Z" fill="#231F20"/>
  <path d="M791.217 266.074c1.971 0 3.586 1.516 4.85 4.551.629 1.497 1.241 2.483 1.833 2.953.55.515 1.28.77 2.187.77 1.696 0 3.313-.788 4.851-2.367 1.183-1.182 1.775-2.998 1.775-5.446 0-1.891-.671-4.731-2.014-8.522-1.89-5.482-2.837-9.783-2.837-12.901 0-4.536 1.223-8.561 3.668-12.073 2.445-3.512 6.309-5.267 11.592-5.267 2.25 0 4.041.61 5.382 1.831 1.34 1.222 2.011 2.701 2.011 4.433 0 1.182-.325 2.14-.975 2.867-.651.728-1.389 1.095-2.217 1.095-1.738 0-3.292-.84-4.672-2.513-1.383-1.676-2.308-2.65-2.782-2.926-.471-.239-1.204-.355-2.19-.355-1.101 0-2.078.473-2.925 1.421-.851.946-1.271 2.092-1.271 3.434-.002 3.199.949 7.648 2.851 13.344 1.904 5.698 2.846 10.126 2.825 13.283 0 2.015-.621 4.057-1.862 6.127-1.244 2.075-3.176 3.83-5.797 5.272-2.624 1.44-5.315 2.158-8.073 2.158-3.313 0-5.788-.707-7.424-2.128-1.637-1.416-2.454-3.111-2.454-5.081 0-1.183.334-2.138 1.007-2.866.668-.73 1.554-1.094 2.661-1.094Z" stroke="#231F20" stroke-width=".667" stroke-miterlimit="10"/>
</svg>