<svg width="475" height="49" fill="none" xmlns="http://www.w3.org/2000/svg">
  <path d="M17.758 21.782c2.595-.045 4.311-.159 5.147-.34 1.761-.361 3.21-.876 4.35-1.543 1.14-.668 2.207-1.578 3.2-2.732.587-.68 1.095-1.634 1.523-2.866.43-1.234.643-2.315.643-3.242a8.35 8.35 0 0 0-.405-2.648c-.183-.542-.579-1.277-1.19-2.205-.838-.927-1.438-1.492-1.8-1.697-.724-.384-2.004-.78-3.838-1.187l-.611.033-2.684-.068c-.748 0-1.348.192-1.801.578-.294.294-.498.87-.611 1.73-.243 2.443-.585 4.627-1.025 6.548l-1.028 5.77-.138 1.765c-.045.521-.102.984-.17 1.392l-.035.27c0 .114.157.26.473.442Zm-1.092 1.905c-.114 1.203-.517 3.302-1.205 6.298-.205.84-.48 2.544-.824 5.108-.916 3.994-1.375 6.56-1.375 7.694 0 1.09.266 1.834.8 2.231.532.397 2.126.596 4.779.596 2.156 0 4.039-.284 5.65-.852a9.53 9.53 0 0 1 .85-.408c1.043-.455 1.883-.977 2.517-1.567 1.27-1.201 2.178-2.349 2.723-3.438.908-1.907 1.407-3.052 1.496-3.439.387-1.816.58-3.381.58-4.699 0-.568-.081-1.197-.239-1.889a14.503 14.503 0 0 0-.745-2.265c-.59-.703-1.043-1.186-1.359-1.447-.317-.26-1.02-.753-2.105-1.48-.497-.159-.963-.33-1.392-.512-.295-.068-.51-.113-.644-.136-.68-.159-1.132-.25-1.359-.272l-2.104-.068-1.596.068h-1.358l-2.987.239-.103.238ZM1.008 45.885a5.876 5.876 0 0 1 1.12-.22c.361-.034.689-.086.984-.154.272-.022.486-.044.645-.068 1.605-.113 2.619-.285 3.036-.513.42-.23.741-.593.968-1.095.588-1.528.961-2.726 1.12-3.593.068-.497.124-.837.17-1.02.045-.272.09-.624.134-1.053.183-.975.284-1.576.307-1.803.069-.612.226-1.467.476-2.565.248-1.1.464-2.352.645-3.758.09-.793.159-1.292.204-1.496.497-2.425.85-4.294 1.052-5.609.883-5.508 1.528-9.112 1.936-10.812.136-1.29.396-3.013.781-5.167l.068-1.685c0-.381-.136-.696-.409-.943-.521-.472-1.35-.786-2.487-.944-1.137-.157-2.033-.236-2.693-.236l-.408.035-.58-.239a7.994 7.994 0 0 1-.033-.61l.033-.375a160.4 160.4 0 0 1 2.319-.068c3.089 0 5.168.023 6.236.068.746.023 1.346.033 1.8.033.498 0 1.301-.018 2.41-.056.726-.03 1.27-.045 1.631-.045 3.396 0 5.752.159 7.064.475 1.788.408 3.181 1.052 4.177 1.934 1.471 1.312 2.472 2.53 3.006 3.648.532 1.12.797 2.484.797 4.09a6.78 6.78 0 0 1-.525 2.58c-.354.858-.914 1.708-1.684 2.545-.25.272-1.144.984-2.687 2.139-.339.204-.77.45-1.29.745l-3.026 1.46c1.632.341 3.013.863 4.148 1.567.339.204.679.373 1.019.51.317.272.624.515.918.731.294.216.566.427.816.63.612.726 1.042 1.362 1.292 1.907l.544 1.055c.158.317.346 1.044.56 2.179.216 1.134.324 2.145.324 3.029 0 .727-.024 1.227-.069 1.499l-.713 2.212c-.996 1.838-1.79 3.184-2.378 4.034-.589.851-1.641 1.89-3.157 3.114-.816.66-1.983 1.282-3.499 1.873-.657.25-2.049.556-4.177.919l-.476.034c-.135 0-.804.046-2.004.136-.679.068-1.233.102-1.664.102-.905 0-2.807-.091-5.705-.272-1.066-.046-1.903-.147-2.514-.306l-2.886-.101-.407.033-1.428.204-1.087-.068-2.004.238c-.882.181-1.63.272-2.241.272-.18 0-.385-.011-.612-.034l.103-1.122Z" fill="#231F20"/>
  <path d="M17.758 21.782c2.595-.045 4.311-.159 5.147-.34 1.761-.361 3.21-.876 4.35-1.543 1.14-.668 2.207-1.578 3.2-2.732.587-.68 1.095-1.634 1.523-2.866.43-1.234.643-2.315.643-3.242a8.35 8.35 0 0 0-.405-2.648c-.183-.542-.579-1.277-1.19-2.205-.838-.927-1.438-1.492-1.8-1.697-.724-.384-2.004-.78-3.838-1.187l-.611.033-2.684-.068c-.748 0-1.348.192-1.801.578-.294.294-.498.87-.611 1.73-.243 2.443-.585 4.627-1.025 6.548l-1.028 5.77-.138 1.765c-.045.521-.102.984-.17 1.392l-.035.27c0 .114.157.26.473.442Zm-1.092 1.905c-.114 1.203-.517 3.302-1.205 6.298-.205.84-.48 2.544-.824 5.108-.916 3.994-1.375 6.56-1.375 7.694 0 1.09.266 1.834.8 2.231.532.397 2.126.596 4.779.596 2.156 0 4.039-.284 5.65-.852a9.53 9.53 0 0 1 .85-.408c1.043-.455 1.883-.977 2.517-1.567 1.27-1.201 2.178-2.349 2.723-3.438.908-1.907 1.407-3.052 1.496-3.439.387-1.816.58-3.381.58-4.699 0-.568-.081-1.197-.239-1.889a14.503 14.503 0 0 0-.745-2.265c-.59-.703-1.043-1.186-1.359-1.447-.317-.26-1.02-.753-2.105-1.48-.497-.159-.963-.33-1.392-.512-.295-.068-.51-.113-.644-.136-.68-.159-1.132-.25-1.359-.272l-2.104-.068-1.596.068h-1.358l-2.987.239-.103.238ZM1.008 45.885a5.876 5.876 0 0 1 1.12-.22c.361-.034.689-.086.984-.154.272-.022.486-.044.645-.068 1.605-.113 2.619-.285 3.036-.513.42-.23.741-.593.968-1.095.588-1.528.961-2.726 1.12-3.593.068-.497.124-.837.17-1.02.045-.272.09-.624.134-1.053.183-.975.284-1.576.307-1.803.069-.612.226-1.467.476-2.565.248-1.1.464-2.352.645-3.758.09-.793.159-1.292.204-1.496.497-2.425.85-4.294 1.052-5.609.883-5.508 1.528-9.112 1.936-10.812.136-1.29.396-3.013.781-5.167l.068-1.685c0-.381-.136-.696-.409-.943-.521-.472-1.35-.786-2.487-.944-1.137-.157-2.033-.236-2.693-.236l-.408.035-.58-.239a7.994 7.994 0 0 1-.033-.61l.033-.375a160.4 160.4 0 0 1 2.319-.068c3.089 0 5.168.023 6.236.068.746.023 1.346.033 1.8.033.498 0 1.301-.018 2.41-.056.726-.03 1.27-.045 1.631-.045 3.396 0 5.752.159 7.064.475 1.788.408 3.181 1.052 4.177 1.934 1.471 1.312 2.472 2.53 3.006 3.648.532 1.12.797 2.484.797 4.09a6.78 6.78 0 0 1-.525 2.58c-.354.858-.914 1.708-1.684 2.545-.25.272-1.144.984-2.687 2.139-.339.204-.77.45-1.29.745l-3.026 1.46c1.632.341 3.013.863 4.148 1.567.339.204.679.373 1.019.51.317.272.624.515.918.731.294.216.566.427.816.63.612.726 1.042 1.362 1.292 1.907l.544 1.055c.158.317.346 1.044.56 2.179.216 1.134.324 2.145.324 3.029 0 .727-.024 1.227-.069 1.499l-.713 2.212c-.996 1.838-1.79 3.184-2.378 4.034-.589.851-1.641 1.89-3.157 3.114-.816.66-1.983 1.282-3.499 1.873-.657.25-2.049.556-4.177.919l-.476.034c-.135 0-.804.046-2.004.136-.679.068-1.233.102-1.664.102-.905 0-2.807-.091-5.705-.272-1.066-.046-1.903-.147-2.514-.306l-2.886-.101-.407.033-1.428.204-1.087-.068-2.004.238c-.882.181-1.63.272-2.241.272-.18 0-.385-.011-.612-.034l.103-1.122Z" stroke="#231F20" stroke-width=".667" stroke-miterlimit="10"/>
  <path d="M50.403 21.51c-.75.544-1.45 1.178-2.108 1.904-.181.204-1.212 1.564-3.093 4.078l-1.394.07c.566-1.224 1.616-2.732 3.154-4.523 1.536-1.79 2.87-3.013 4.002-3.67.723-.431 1.536-.68 2.442-.748.565.157.954.37 1.17.64.215.27.323.596.323.977s-.045.762-.136 1.144c-.25 1.236-.745 3.01-1.488 5.321-.74 2.312-1.404 4.136-1.988 5.473l-1.768 4.182-.136.612c.317-.543.963-1.756 1.937-3.637 3.695-7.002 6.358-11.322 7.99-12.962 1.201-1.166 2.606-1.75 4.216-1.75.905 0 1.756.36 2.549 1.086.59.568.884 1.316.884 2.245 0 1.042-.33 1.938-.985 2.686-.455.521-1.1.782-1.938.782-.704 0-1.197-.164-1.48-.493-.284-.33-.458-1.15-.526-2.465-.295-.59-.624-.884-.987-.884s-.747.192-1.156.576c-1.09.974-3.144 4.092-6.164 9.352-3.017 5.26-4.908 8.916-5.67 10.962-.76 2.048-1.378 3.458-1.854 4.226-.248.39-.71.585-1.384.585-.608 0-1.041-.108-1.3-.323a1.04 1.04 0 0 1-.388-.833c0-.453.113-.974.341-1.564.974-2.38 2.538-6.765 4.691-13.156l2.38-7.274c.159-.65.272-1.063.339-1.243l.205-.504c0-.223-.227-.514-.68-.872Z" fill="#231F20"/>
  <path d="M50.403 21.51c-.75.544-1.45 1.178-2.108 1.904-.181.204-1.212 1.564-3.093 4.078l-1.394.07c.566-1.224 1.616-2.732 3.154-4.523 1.536-1.79 2.87-3.013 4.002-3.67.723-.431 1.536-.68 2.442-.748.565.157.954.37 1.17.64.215.27.323.596.323.977s-.045.762-.136 1.144c-.25 1.236-.745 3.01-1.488 5.321-.74 2.312-1.404 4.136-1.988 5.473l-1.768 4.182-.136.612c.317-.543.963-1.756 1.937-3.637 3.695-7.002 6.358-11.322 7.99-12.962 1.201-1.166 2.606-1.75 4.216-1.75.905 0 1.756.36 2.549 1.086.59.568.884 1.316.884 2.245 0 1.042-.33 1.938-.985 2.686-.455.521-1.1.782-1.938.782-.704 0-1.197-.164-1.48-.493-.284-.33-.458-1.15-.526-2.465-.295-.59-.624-.884-.987-.884s-.747.192-1.156.576c-1.09.974-3.144 4.092-6.164 9.352-3.017 5.26-4.908 8.916-5.67 10.962-.76 2.048-1.378 3.458-1.854 4.226-.248.39-.71.585-1.384.585-.608 0-1.041-.108-1.3-.323a1.04 1.04 0 0 1-.388-.833c0-.453.113-.974.341-1.564.974-2.38 2.538-6.765 4.691-13.156l2.38-7.274c.159-.65.272-1.063.339-1.243l.205-.504c0-.223-.227-.514-.68-.872Z" stroke="#231F20" stroke-width=".667" stroke-miterlimit="10"/>
  <path d="M69.978 44.152a5.359 5.359 0 0 0 1.473-.579c.257-.135 1.168-.758 2.734-1.87 2.852-2.787 4.465-4.385 4.839-4.793.817-.883 1.741-2.095 2.77-3.637.28-.385.878-1.45 1.788-3.196l.885-2.345c.317-1.383.475-2.176.475-2.381 0-.634-.265-1.234-.79-1.8-.352-.34-.923-.511-1.716-.511-.91 0-1.692.146-2.346.441a17.292 17.292 0 0 0-4.026 2.585c-1.633 1.427-3.208 3.258-4.725 5.49-1.518 2.233-2.593 4.097-3.222 5.592-.864 2.063-1.294 3.604-1.294 4.624 0 .839.176 1.462.525 1.87.35.407.794.611 1.332.611.188 0 .62-.033 1.298-.101Zm16.595-22.303c.227-.385.376-.69.443-.917.272-.68.545-1.121.819-1.325.634-.069 1.1-.102 1.394-.102.387 0 .761.079 1.124.238l.102.409c0 .137-.056.34-.17.612-.066.137-.216.568-.442 1.292l-.273.68-2.243 6.085c-.954 2.743-1.787 4.928-2.502 6.56a47.327 47.327 0 0 0-1.853 4.98c-.521 1.69-.999 2.895-1.43 3.62l-.136.327c0 .132.12.306.36.524.955-.567 1.76-1.179 2.42-1.836 1.698-1.7 2.706-2.755 3.024-3.162.235-.294.458-.566.67-.817.253.228.488.465.7.716-.608.883-1.63 2.084-3.063 3.603-1.433 1.519-2.727 2.595-3.877 3.23-.89.475-1.727.714-2.508.714-.5 0-.875-.11-1.126-.334a1.108 1.108 0 0 1-.373-.866c0-.31.114-.898.34-1.759.567-1.494.963-2.481 1.19-2.957.226-.476.532-1.212.918-2.21.225-.612.69-1.677 1.394-3.196-.443.431-.991 1.066-1.643 1.904-1.888 2.313-4.055 4.5-6.501 6.562-.56.476-1.913 1.236-4.056 2.277-.793.295-1.725.487-2.797.579-.909-.024-1.515-.114-1.817-.272-.56-.295-1.014-.76-1.364-1.394-.256-.477-.385-1.213-.385-2.211 0-1.448.324-3.058.973-4.827 1.112-3.014 2.235-5.245 3.37-6.698 1.946-2.515 3.874-4.509 5.786-5.982 1.91-1.474 3.666-2.55 5.263-3.23 2.108-.906 3.939-1.36 5.49-1.36.51 0 .995.046 1.46.136.463.091.903.227 1.32.407Z" fill="#231F20"/>
  <path d="M69.978 44.152a5.359 5.359 0 0 0 1.473-.579c.257-.135 1.168-.758 2.734-1.87 2.852-2.787 4.465-4.385 4.839-4.793.817-.883 1.741-2.095 2.77-3.637.28-.385.878-1.45 1.788-3.196l.885-2.345c.317-1.383.475-2.176.475-2.381 0-.634-.265-1.234-.79-1.8-.352-.34-.923-.511-1.716-.511-.91 0-1.692.146-2.346.441a17.292 17.292 0 0 0-4.026 2.585c-1.633 1.427-3.208 3.258-4.725 5.49-1.518 2.233-2.593 4.097-3.222 5.592-.864 2.063-1.294 3.604-1.294 4.624 0 .839.176 1.462.525 1.87.35.407.794.611 1.332.611.188 0 .62-.033 1.298-.101Zm16.595-22.303c.227-.385.376-.69.443-.917.272-.68.545-1.121.819-1.325.634-.069 1.1-.102 1.394-.102.387 0 .761.079 1.124.238l.102.409c0 .137-.056.34-.17.612-.066.137-.216.568-.442 1.292l-.273.68-2.243 6.085c-.954 2.743-1.787 4.928-2.502 6.56a47.327 47.327 0 0 0-1.853 4.98c-.521 1.69-.999 2.895-1.43 3.62l-.136.327c0 .132.12.306.36.524.955-.567 1.76-1.179 2.42-1.836 1.698-1.7 2.706-2.755 3.024-3.162.235-.294.458-.566.67-.817.253.228.488.465.7.716-.608.883-1.63 2.084-3.063 3.603-1.433 1.519-2.727 2.595-3.877 3.23-.89.475-1.727.714-2.508.714-.5 0-.875-.11-1.126-.334a1.108 1.108 0 0 1-.373-.866c0-.31.114-.898.34-1.759.567-1.494.963-2.481 1.19-2.957.226-.476.532-1.212.918-2.21.225-.612.69-1.677 1.394-3.196-.443.431-.991 1.066-1.643 1.904-1.888 2.313-4.055 4.5-6.501 6.562-.56.476-1.913 1.236-4.056 2.277-.793.295-1.725.487-2.797.579-.909-.024-1.515-.114-1.817-.272-.56-.295-1.014-.76-1.364-1.394-.256-.477-.385-1.213-.385-2.211 0-1.448.324-3.058.973-4.827 1.112-3.014 2.235-5.245 3.37-6.698 1.946-2.515 3.874-4.509 5.786-5.982 1.91-1.474 3.666-2.55 5.263-3.23 2.108-.906 3.939-1.36 5.49-1.36.51 0 .995.046 1.46.136.463.091.903.227 1.32.407Z" stroke="#231F20" stroke-width=".667" stroke-miterlimit="10"/>
  <path d="M92.49 40.65c1.134 0 2.062.873 2.788 2.618.362.861.714 1.428 1.054 1.699.316.296.736.442 1.257.442.975 0 1.904-.453 2.788-1.361.68-.68 1.02-1.724 1.02-3.132 0-1.088-.385-2.721-1.157-4.901-1.087-3.154-1.631-5.627-1.631-7.42 0-2.61.703-4.924 2.108-6.944 1.405-2.02 3.627-3.03 6.663-3.03 1.293 0 2.322.35 3.093 1.053.771.703 1.156 1.554 1.156 2.55 0 .68-.187 1.23-.56 1.65-.375.418-.799.629-1.275.629-.998 0-1.892-.483-2.685-1.446-.795-.964-1.327-1.524-1.599-1.682-.27-.138-.692-.204-1.258-.204-.634 0-1.195.271-1.682.817-.489.544-.73 1.203-.73 1.974-.002 1.84.545 4.4 1.638 7.675 1.095 3.277 1.636 5.824 1.624 7.64 0 1.159-.357 2.334-1.07 3.524-.715 1.194-1.826 2.203-3.332 3.032-1.508.828-3.055 1.242-4.64 1.242-1.904 0-3.327-.407-4.267-1.225-.941-.814-1.41-1.789-1.41-2.922 0-.68.191-1.23.578-1.648.384-.42.893-.63 1.53-.63Z" fill="#231F20"/>
  <path d="M92.49 40.65c1.134 0 2.062.873 2.788 2.618.362.861.714 1.428 1.054 1.699.316.296.736.442 1.257.442.975 0 1.904-.453 2.788-1.361.68-.68 1.02-1.724 1.02-3.132 0-1.088-.385-2.721-1.157-4.901-1.087-3.154-1.631-5.627-1.631-7.42 0-2.61.703-4.924 2.108-6.944 1.405-2.02 3.627-3.03 6.663-3.03 1.293 0 2.322.35 3.093 1.053.771.703 1.156 1.554 1.156 2.55 0 .68-.187 1.23-.56 1.65-.375.418-.799.629-1.275.629-.998 0-1.892-.483-2.685-1.446-.795-.964-1.327-1.524-1.599-1.682-.27-.138-.692-.204-1.258-.204-.634 0-1.195.271-1.682.817-.489.544-.73 1.203-.73 1.974-.002 1.84.545 4.4 1.638 7.675 1.095 3.277 1.636 5.824 1.624 7.64 0 1.159-.357 2.334-1.07 3.524-.715 1.194-1.826 2.203-3.332 3.032-1.508.828-3.055 1.242-4.64 1.242-1.904 0-3.327-.407-4.267-1.225-.941-.814-1.41-1.789-1.41-2.922 0-.68.191-1.23.578-1.648.384-.42.893-.63 1.53-.63Z" stroke="#231F20" stroke-width=".667" stroke-miterlimit="10"/>
  <path d="M112.786 40.65c1.133 0 2.061.873 2.788 2.618.361.861.713 1.428 1.053 1.699.316.296.736.442 1.258.442.974 0 1.904-.453 2.788-1.361.68-.68 1.02-1.724 1.02-3.132 0-1.088-.386-2.721-1.158-4.901-1.086-3.154-1.63-5.627-1.63-7.42 0-2.61.702-4.924 2.108-6.944 1.405-2.02 3.626-3.03 6.662-3.03 1.294 0 2.323.35 3.094 1.053.77.703 1.156 1.554 1.156 2.55 0 .68-.187 1.23-.56 1.65-.375.418-.799.629-1.275.629-.999 0-1.892-.483-2.685-1.446-.795-.964-1.327-1.524-1.599-1.682-.271-.138-.692-.204-1.259-.204-.633 0-1.194.271-1.681.817-.489.544-.731 1.203-.731 1.974-.001 1.84.546 4.4 1.639 7.675 1.095 3.277 1.636 5.824 1.624 7.64 0 1.159-.357 2.334-1.071 3.524-.714 1.194-1.825 2.203-3.332 3.032-1.508.828-3.054 1.242-4.64 1.242-1.904 0-3.326-.407-4.266-1.225-.942-.814-1.411-1.789-1.411-2.922 0-.68.192-1.23.579-1.648.384-.42.893-.63 1.529-.63Z" fill="#231F20"/>
  <path d="M112.786 40.65c1.133 0 2.061.873 2.788 2.618.361.861.713 1.428 1.053 1.699.316.296.736.442 1.258.442.974 0 1.904-.453 2.788-1.361.68-.68 1.02-1.724 1.02-3.132 0-1.088-.386-2.721-1.158-4.901-1.086-3.154-1.63-5.627-1.63-7.42 0-2.61.702-4.924 2.108-6.944 1.405-2.02 3.626-3.03 6.662-3.03 1.294 0 2.323.35 3.094 1.053.77.703 1.156 1.554 1.156 2.55 0 .68-.187 1.23-.56 1.65-.375.418-.799.629-1.275.629-.999 0-1.892-.483-2.685-1.446-.795-.964-1.327-1.524-1.599-1.682-.271-.138-.692-.204-1.259-.204-.633 0-1.194.271-1.681.817-.489.544-.731 1.203-.731 1.974-.001 1.84.546 4.4 1.639 7.675 1.095 3.277 1.636 5.824 1.624 7.64 0 1.159-.357 2.334-1.071 3.524-.714 1.194-1.825 2.203-3.332 3.032-1.508.828-3.054 1.242-4.64 1.242-1.904 0-3.326-.407-4.266-1.225-.942-.814-1.411-1.789-1.411-2.922 0-.68.192-1.23.579-1.648.384-.42.893-.63 1.529-.63Z" stroke="#231F20" stroke-width=".667" stroke-miterlimit="10"/>
  <path d="M137.977 32.49c.726.024 1.859-.26 3.4-.849.839-.317 1.95-.94 3.332-1.87.544-.363 1.167-.98 1.87-1.853a10.203 10.203 0 0 0 1.597-2.72c.363-.94.545-1.908.545-2.905 0-.659-.193-1.203-.578-1.633-.386-.43-.816-.646-1.292-.646-.612 0-1.338.351-2.176 1.055-1.406 1.224-2.879 3.275-4.419 6.152-1.156 2.199-1.916 3.956-2.279 5.27Zm-.578 1.735c-.747 2.056-1.12 4.133-1.12 6.236 0 1.536.361 2.768 1.086 3.693.476.634 1.123.95 1.939.95.497 0 .94-.102 1.325-.306a8.794 8.794 0 0 0 2.159-1.52c.601-.589 1.229-1.356 1.887-2.302a13.11 13.11 0 0 0 1.598-3.182h.475c.272 0 .579.023.919.068-.68 2.53-2.358 5.014-5.032 7.454-1.678 1.513-3.411 2.27-5.2 2.27-1.203 0-2.223-.545-3.06-1.632-1.111-1.429-1.667-3.4-1.667-5.916 0-1.088.164-2.392.493-3.909.328-1.519.708-2.788 1.139-3.808a38.25 38.25 0 0 1 2.277-4.488l2.618-3.808c1.701-1.812 2.653-2.81 2.856-2.99.794-.682 1.592-1.195 2.397-1.547a6.167 6.167 0 0 1 2.499-.527c1.11 0 2.084.465 2.924 1.396.837.932 1.258 2.103 1.258 3.51 0 1.25-.324 2.482-.969 3.697-.647 1.216-1.344 2.108-2.091 2.674l-2.822 1.84c-.318.16-1.168.448-2.55.87-1.382.42-3.162.846-5.338 1.277Z" fill="#231F20"/>
  <path d="M137.977 32.49c.726.024 1.859-.26 3.4-.849.839-.317 1.95-.94 3.332-1.87.544-.363 1.167-.98 1.87-1.853a10.203 10.203 0 0 0 1.597-2.72c.363-.94.545-1.908.545-2.905 0-.659-.193-1.203-.578-1.633-.386-.43-.816-.646-1.292-.646-.612 0-1.338.351-2.176 1.055-1.406 1.224-2.879 3.275-4.419 6.152-1.156 2.199-1.916 3.956-2.279 5.27Zm-.578 1.735c-.747 2.056-1.12 4.133-1.12 6.236 0 1.536.361 2.768 1.086 3.693.476.634 1.123.95 1.939.95.497 0 .94-.102 1.325-.306a8.794 8.794 0 0 0 2.159-1.52c.601-.589 1.229-1.356 1.887-2.302a13.11 13.11 0 0 0 1.598-3.182h.475c.272 0 .579.023.919.068-.68 2.53-2.358 5.014-5.032 7.454-1.678 1.513-3.411 2.27-5.2 2.27-1.203 0-2.223-.545-3.06-1.632-1.111-1.429-1.667-3.4-1.667-5.916 0-1.088.164-2.392.493-3.909.328-1.519.708-2.788 1.139-3.808a38.25 38.25 0 0 1 2.277-4.488l2.618-3.808c1.701-1.812 2.653-2.81 2.856-2.99.794-.682 1.592-1.195 2.397-1.547a6.167 6.167 0 0 1 2.499-.527c1.11 0 2.084.465 2.924 1.396.837.932 1.258 2.103 1.258 3.51 0 1.25-.324 2.482-.969 3.697-.647 1.216-1.344 2.108-2.091 2.674l-2.822 1.84c-.318.16-1.168.448-2.55.87-1.382.42-3.162.846-5.338 1.277Z" stroke="#231F20" stroke-width=".667" stroke-miterlimit="10"/>
  <path d="M160.619 21.51a13.737 13.737 0 0 0-2.108 1.904c-.181.204-1.212 1.564-3.093 4.078l-1.394.07c.566-1.224 1.616-2.732 3.154-4.523 1.536-1.79 2.87-3.013 4.002-3.67.723-.431 1.536-.68 2.442-.748.565.157.954.37 1.17.64.215.27.323.596.323.977s-.045.762-.136 1.144c-.249 1.236-.745 3.01-1.488 5.321-.74 2.312-1.404 4.136-1.988 5.473l-1.768 4.182-.136.612c.317-.543.963-1.756 1.937-3.637 3.695-7.002 6.358-11.322 7.99-12.962 1.201-1.166 2.606-1.75 4.216-1.75.905 0 1.756.36 2.549 1.086.589.568.884 1.316.884 2.245 0 1.042-.329 1.938-.985 2.686-.455.521-1.1.782-1.938.782-.704 0-1.197-.164-1.48-.493-.284-.33-.458-1.15-.526-2.465-.295-.59-.624-.884-.987-.884s-.747.192-1.156.576c-1.089.974-3.144 4.092-6.164 9.352-3.017 5.26-4.908 8.916-5.669 10.962-.76 2.048-1.379 3.458-1.855 4.226-.248.39-.711.585-1.384.585-.608 0-1.041-.108-1.3-.323a1.04 1.04 0 0 1-.388-.833c0-.453.113-.974.341-1.564.974-2.38 2.538-6.765 4.691-13.156l2.38-7.274c.159-.65.272-1.063.339-1.243l.205-.504c0-.223-.227-.514-.68-.872Z" fill="#231F20"/>
  <path d="M160.619 21.51a13.737 13.737 0 0 0-2.108 1.904c-.181.204-1.212 1.564-3.093 4.078l-1.394.07c.566-1.224 1.616-2.732 3.154-4.523 1.536-1.79 2.87-3.013 4.002-3.67.723-.431 1.536-.68 2.442-.748.565.157.954.37 1.17.64.215.27.323.596.323.977s-.045.762-.136 1.144c-.249 1.236-.745 3.01-1.488 5.321-.74 2.312-1.404 4.136-1.988 5.473l-1.768 4.182-.136.612c.317-.543.963-1.756 1.937-3.637 3.695-7.002 6.358-11.322 7.99-12.962 1.201-1.166 2.606-1.75 4.216-1.75.905 0 1.756.36 2.549 1.086.589.568.884 1.316.884 2.245 0 1.042-.329 1.938-.985 2.686-.455.521-1.1.782-1.938.782-.704 0-1.197-.164-1.48-.493-.284-.33-.458-1.15-.526-2.465-.295-.59-.624-.884-.987-.884s-.747.192-1.156.576c-1.089.974-3.144 4.092-6.164 9.352-3.017 5.26-4.908 8.916-5.669 10.962-.76 2.048-1.379 3.458-1.855 4.226-.248.39-.711.585-1.384.585-.608 0-1.041-.108-1.3-.323a1.04 1.04 0 0 1-.388-.833c0-.453.113-.974.341-1.564.974-2.38 2.538-6.765 4.691-13.156l2.38-7.274c.159-.65.272-1.063.339-1.243l.205-.504c0-.223-.227-.514-.68-.872Z" stroke="#231F20" stroke-width=".667" stroke-miterlimit="10"/>
  <path d="M184.959 6.246c0-.794.305-1.502.917-2.126.612-.622 1.328-.934 2.143-.934.771 0 1.428.272 1.972.816.544.544.816 1.168.816 1.869 0 .907-.34 1.735-1.02 2.483-.408.43-1.156.645-2.244.645-.725 0-1.337-.25-1.835-.748-.5-.499-.749-1.167-.749-2.005Zm-1.937 15.264c-.476 0-.827.034-1.054.1-1.066.569-1.848 1.056-2.346 1.464a19.707 19.707 0 0 0-2.89 2.788l-1.97.442c1.745-2.358 3.684-4.204 5.816-5.541 2.132-1.337 3.809-2.007 5.034-2.007.522 0 .912.13 1.174.392.258.26.39.595.39 1.003 0 1.112-.634 2.959-1.904 5.544a94.757 94.757 0 0 0-1.122 2.448 98.003 98.003 0 0 1-4.356 8.428 58.98 58.98 0 0 0-1.634 3.06c-.317.635-.6 1.167-.849 1.596-.704 1.18-1.055 2.052-1.055 2.619 0 .158.063.3.187.425a.626.626 0 0 0 .46.187c.249 0 .628-.136 1.139-.408.85-.452 1.866-1.207 3.048-2.262a18.607 18.607 0 0 0 3.12-3.62h1.498c-.688 1.224-1.701 2.63-3.041 4.216-1.339 1.587-2.861 2.855-4.568 3.807-1.279.725-2.417 1.088-3.412 1.088-.759 0-1.315-.153-1.671-.459-.356-.306-.533-.708-.533-1.206 0-1.746 1.281-5.032 3.841-9.86l5.474-10.334c.566-1.065.964-1.904 1.189-2.516.137-.385.205-.645.205-.782 0-.114-.057-.316-.17-.612Z" fill="#231F20"/>
  <path d="M184.959 6.246c0-.794.305-1.502.917-2.126.612-.622 1.328-.934 2.143-.934.771 0 1.428.272 1.972.816.544.544.816 1.168.816 1.869 0 .907-.34 1.735-1.02 2.483-.408.43-1.156.645-2.244.645-.725 0-1.337-.25-1.835-.748-.5-.499-.749-1.167-.749-2.005Zm-1.937 15.264c-.476 0-.827.034-1.054.1-1.066.569-1.848 1.056-2.346 1.464a19.707 19.707 0 0 0-2.89 2.788l-1.97.442c1.745-2.358 3.684-4.204 5.816-5.541 2.132-1.337 3.809-2.007 5.034-2.007.522 0 .912.13 1.174.392.258.26.39.595.39 1.003 0 1.112-.634 2.959-1.904 5.544a94.757 94.757 0 0 0-1.122 2.448 98.003 98.003 0 0 1-4.356 8.428 58.98 58.98 0 0 0-1.634 3.06c-.317.635-.6 1.167-.849 1.596-.704 1.18-1.055 2.052-1.055 2.619 0 .158.063.3.187.425a.626.626 0 0 0 .46.187c.249 0 .628-.136 1.139-.408.85-.452 1.866-1.207 3.048-2.262a18.607 18.607 0 0 0 3.12-3.62h1.498c-.688 1.224-1.701 2.63-3.041 4.216-1.339 1.587-2.861 2.855-4.568 3.807-1.279.725-2.417 1.088-3.412 1.088-.759 0-1.315-.153-1.671-.459-.356-.306-.533-.708-.533-1.206 0-1.746 1.281-5.032 3.841-9.86l5.474-10.334c.566-1.065.964-1.904 1.189-2.516.137-.385.205-.645.205-.782 0-.114-.057-.316-.17-.612Z" stroke="#231F20" stroke-width=".667" stroke-miterlimit="10"/>
  <path d="M195.26 32.49c.725.024 1.858-.26 3.4-.849.838-.317 1.949-.94 3.332-1.87.544-.363 1.166-.98 1.869-1.853.703-.872 1.235-1.78 1.597-2.72.363-.94.546-1.908.546-2.905 0-.659-.194-1.203-.579-1.633-.385-.43-.816-.646-1.292-.646-.612 0-1.337.351-2.176 1.055-1.405 1.224-2.879 3.275-4.419 6.152-1.156 2.199-1.916 3.956-2.278 5.27Zm-.579 1.735c-.747 2.056-1.12 4.133-1.12 6.236 0 1.536.361 2.768 1.087 3.693.476.634 1.122.95 1.938.95.498 0 .94-.102 1.326-.306a8.807 8.807 0 0 0 2.158-1.52c.602-.589 1.23-1.356 1.887-2.302a13.113 13.113 0 0 0 1.599-3.182h.474c.272 0 .579.023.919.068-.68 2.53-2.357 5.014-5.032 7.454-1.677 1.513-3.411 2.27-5.2 2.27-1.203 0-2.223-.545-3.06-1.632-1.111-1.429-1.667-3.4-1.667-5.916 0-1.088.164-2.392.494-3.909.328-1.519.708-2.788 1.138-3.808a38.102 38.102 0 0 1 2.278-4.488l2.617-3.808c1.701-1.812 2.653-2.81 2.856-2.99.795-.682 1.592-1.195 2.397-1.547a6.17 6.17 0 0 1 2.499-.527c1.111 0 2.084.465 2.924 1.396.837.932 1.259 2.103 1.259 3.51 0 1.25-.324 2.482-.97 3.697-.646 1.216-1.344 2.108-2.09 2.674l-2.823 1.84c-.317.16-1.168.448-2.549.87-1.383.42-3.163.846-5.339 1.277Z" fill="#231F20"/>
  <path d="M195.26 32.49c.725.024 1.858-.26 3.4-.849.838-.317 1.949-.94 3.332-1.87.544-.363 1.166-.98 1.869-1.853.703-.872 1.235-1.78 1.597-2.72.363-.94.546-1.908.546-2.905 0-.659-.194-1.203-.579-1.633-.385-.43-.816-.646-1.292-.646-.612 0-1.337.351-2.176 1.055-1.405 1.224-2.879 3.275-4.419 6.152-1.156 2.199-1.916 3.956-2.278 5.27Zm-.579 1.735c-.747 2.056-1.12 4.133-1.12 6.236 0 1.536.361 2.768 1.087 3.693.476.634 1.122.95 1.938.95.498 0 .94-.102 1.326-.306a8.807 8.807 0 0 0 2.158-1.52c.602-.589 1.23-1.356 1.887-2.302a13.113 13.113 0 0 0 1.599-3.182h.474c.272 0 .579.023.919.068-.68 2.53-2.357 5.014-5.032 7.454-1.677 1.513-3.411 2.27-5.2 2.27-1.203 0-2.223-.545-3.06-1.632-1.111-1.429-1.667-3.4-1.667-5.916 0-1.088.164-2.392.494-3.909.328-1.519.708-2.788 1.138-3.808a38.102 38.102 0 0 1 2.278-4.488l2.617-3.808c1.701-1.812 2.653-2.81 2.856-2.99.795-.682 1.592-1.195 2.397-1.547a6.17 6.17 0 0 1 2.499-.527c1.111 0 2.084.465 2.924 1.396.837.932 1.259 2.103 1.259 3.51 0 1.25-.324 2.482-.97 3.697-.646 1.216-1.344 2.108-2.09 2.674l-2.823 1.84c-.317.16-1.168.448-2.549.87-1.383.42-3.163.846-5.339 1.277Z" stroke="#231F20" stroke-width=".667" stroke-miterlimit="10"/>
  <path d="m240.137 2.574.102-.986c2.778-.226 4.883-.34 6.318-.34h1.502v.456l-1.053 3.298c-.045.09-.873 2.188-2.483 6.29l-4.592 11.966c-.817 2.242-2.176 5.71-4.081 10.4l-1.123 2.958c-.792 2.152-1.428 3.603-1.904 4.352-.748 1.22-1.121 2.123-1.121 2.71l.135.541c.742-.067 1.66-.577 2.754-1.53 1.6-1.337 3.052-3.047 4.358-5.133.421-.09.748-.136.98-.136l.378.034c-.849 1.654-1.762 3.004-2.742 4.045-1.546 1.633-2.612 2.664-3.199 3.095-1.307.997-2.557 1.756-3.755 2.278-.761.34-1.512.508-2.252.508-.392 0-.686-.1-.881-.305-.196-.203-.293-.465-.293-.781 0-1.066 1.813-5.747 5.438-14.04 1.111-2.516 2.267-5.395 3.468-8.636 2.108-5.666 3.728-9.7 4.862-12.103 1.133-2.403 1.96-4.567 2.482-6.493.046-.196.067-.36.067-.49 0-.326-.159-.63-.475-.914-.409-.348-1.372-.696-2.89-1.044Z" fill="#231F20"/>
  <path d="m240.137 2.574.102-.986c2.778-.226 4.883-.34 6.318-.34h1.502v.456l-1.053 3.298c-.045.09-.873 2.188-2.483 6.29l-4.592 11.966c-.817 2.242-2.176 5.71-4.081 10.4l-1.123 2.958c-.792 2.152-1.428 3.603-1.904 4.352-.748 1.22-1.121 2.123-1.121 2.71l.135.541c.742-.067 1.66-.577 2.754-1.53 1.6-1.337 3.052-3.047 4.358-5.133.421-.09.748-.136.98-.136l.378.034c-.849 1.654-1.762 3.004-2.742 4.045-1.546 1.633-2.612 2.664-3.199 3.095-1.307.997-2.557 1.756-3.755 2.278-.761.34-1.512.508-2.252.508-.392 0-.686-.1-.881-.305-.196-.203-.293-.465-.293-.781 0-1.066 1.813-5.747 5.438-14.04 1.111-2.516 2.267-5.395 3.468-8.636 2.108-5.666 3.728-9.7 4.862-12.103 1.133-2.403 1.96-4.567 2.482-6.493.046-.196.067-.36.067-.49 0-.326-.159-.63-.475-.914-.409-.348-1.372-.696-2.89-1.044Z" stroke="#231F20" stroke-width=".667" stroke-miterlimit="10"/>
  <path d="M248.193 32.49c.725.024 1.858-.26 3.4-.849.838-.317 1.949-.94 3.332-1.87.544-.363 1.166-.98 1.869-1.853.703-.872 1.235-1.78 1.597-2.72.363-.94.546-1.908.546-2.905 0-.659-.194-1.203-.579-1.633-.385-.43-.816-.646-1.292-.646-.612 0-1.337.351-2.176 1.055-1.405 1.224-2.879 3.275-4.419 6.152-1.156 2.199-1.916 3.956-2.278 5.27Zm-.579 1.735c-.747 2.056-1.12 4.133-1.12 6.236 0 1.536.361 2.768 1.087 3.693.476.634 1.122.95 1.938.95.498 0 .94-.102 1.326-.306a8.807 8.807 0 0 0 2.158-1.52c.602-.589 1.23-1.356 1.887-2.302a13.113 13.113 0 0 0 1.599-3.182h.474c.272 0 .579.023.919.068-.68 2.53-2.357 5.014-5.032 7.454-1.677 1.513-3.411 2.27-5.2 2.27-1.203 0-2.223-.545-3.06-1.632-1.111-1.429-1.667-3.4-1.667-5.916 0-1.088.164-2.392.494-3.909.328-1.519.708-2.788 1.138-3.808a38.102 38.102 0 0 1 2.278-4.488l2.617-3.808c1.701-1.812 2.653-2.81 2.856-2.99.795-.682 1.592-1.195 2.397-1.547a6.17 6.17 0 0 1 2.499-.527c1.111 0 2.084.465 2.924 1.396.837.932 1.259 2.103 1.259 3.51 0 1.25-.324 2.482-.97 3.697-.646 1.216-1.344 2.108-2.09 2.674l-2.823 1.84c-.317.16-1.168.448-2.549.87-1.383.42-3.163.846-5.339 1.277Z" fill="#231F20"/>
  <path d="M248.193 32.49c.725.024 1.858-.26 3.4-.849.838-.317 1.949-.94 3.332-1.87.544-.363 1.166-.98 1.869-1.853.703-.872 1.235-1.78 1.597-2.72.363-.94.546-1.908.546-2.905 0-.659-.194-1.203-.579-1.633-.385-.43-.816-.646-1.292-.646-.612 0-1.337.351-2.176 1.055-1.405 1.224-2.879 3.275-4.419 6.152-1.156 2.199-1.916 3.956-2.278 5.27Zm-.579 1.735c-.747 2.056-1.12 4.133-1.12 6.236 0 1.536.361 2.768 1.087 3.693.476.634 1.122.95 1.938.95.498 0 .94-.102 1.326-.306a8.807 8.807 0 0 0 2.158-1.52c.602-.589 1.23-1.356 1.887-2.302a13.113 13.113 0 0 0 1.599-3.182h.474c.272 0 .579.023.919.068-.68 2.53-2.357 5.014-5.032 7.454-1.677 1.513-3.411 2.27-5.2 2.27-1.203 0-2.223-.545-3.06-1.632-1.111-1.429-1.667-3.4-1.667-5.916 0-1.088.164-2.392.494-3.909.328-1.519.708-2.788 1.138-3.808a38.102 38.102 0 0 1 2.278-4.488l2.617-3.808c1.701-1.812 2.653-2.81 2.856-2.99.795-.682 1.592-1.195 2.397-1.547a6.17 6.17 0 0 1 2.499-.527c1.111 0 2.084.465 2.924 1.396.837.932 1.259 2.103 1.259 3.51 0 1.25-.324 2.482-.97 3.697-.646 1.216-1.344 2.108-2.09 2.674l-2.823 1.84c-.317.16-1.168.448-2.549.87-1.383.42-3.163.846-5.339 1.277Z" stroke="#231F20" stroke-width=".667" stroke-miterlimit="10"/>
  <path d="M276.411 45.273c.446-.088 1.146-.167 2.103-.235.957-.068 1.704-.145 2.239-.236 1.402-.112 2.437-.458 3.105-1.042.423-.382.701-.931.836-1.648l2.029-9.383c.346-1.677.62-2.868.827-3.57l.104-.85 1.617-8.77c.047-.545.228-1.36.551-2.449.321-1.088.561-2.764.723-5.032l.516-2.514.441-4.296c0-.406-.147-.687-.441-.846-.658-.36-2.934-.81-6.831-1.352l.308-1.088 12.616-.068c.251.295.457.602.619.918.276.453.894 1.372 1.858 2.753l1.963 2.755c.78 1.269 1.581 2.514 2.408 3.738a59.233 59.233 0 0 1 2.307 3.707c.505.839 4.049 6.425 10.634 16.759 1.24 1.928 2.102 3.322 2.583 4.182a91.342 91.342 0 0 0 2.821 4.794c.286-1.406.516-2.878.691-4.42.92-4.374 1.457-7.32 1.611-8.838.088-.838.197-1.633.329-2.381.109-.499.251-1.416.427-2.753l.526-3.807c.02-.43.284-2.397.788-5.899.503-3.502.756-5.882.756-7.142 0-.36-.104-.867-.312-1.52-.668-.427-2.32-.843-4.95-1.248a57.931 57.931 0 0 1-2.182-.408c-.07-.34-.104-.6-.104-.783v-.305l.442-.034c.429 0 3.206.126 8.329.379.884.043 1.484.063 1.801.063 1.496 0 2.98-.068 4.454-.204 1.042-.091 1.846-.136 2.414-.136a8.01 8.01 0 0 1-.405 1.469c-3.188.29-5.207.572-6.06.847-.471.16-.792.354-.96.582-.168.228-.432 1.268-.789 3.119-.484 2.63-.802 4.556-.954 5.78a38.925 38.925 0 0 1-.493 3.093 155.063 155.063 0 0 0-.428 2.312l-1.283 9.282-2.3 13.869c-.46 3.039-.7 4.817-.722 5.337h-.812c-.227 0-.578-.021-1.052-.066a31.88 31.88 0 0 0-1.618-2.684l-9.844-15.218a30.447 30.447 0 0 1-1.136-1.834l-2.477-3.67-7.848-12.194c-1.079-1.631-1.996-2.91-2.753-3.84a7.794 7.794 0 0 0-.62-.967 16.29 16.29 0 0 1-.826-1.24 12.147 12.147 0 0 1-.482-.747c-.183.679-.424 1.915-.723 3.704l-.791 4.354c-.414 2.514-1.125 6.334-2.134 11.456l-.792 4.08-.827 6.05a46.953 46.953 0 0 1-.791 4.692c-.321 1.428-.482 2.596-.482 3.503 0 .27.146.565.441.883.543.228 1.279.464 2.205.714.431.135 1.087.272 1.97.407.157.024 1.368.307 3.63.85l-.304 1.191c-.54-.114-1.485-.238-2.834-.376-3.151-.317-5.356-.474-6.616-.474-.586 0-1.328.022-2.228.068-2.588.113-4.242.17-4.96.17-.384 0-1.002-.012-1.858-.036v-1.257Z" fill="#231F20"/>
  <path d="M276.411 45.273c.446-.088 1.146-.167 2.103-.235.957-.068 1.704-.145 2.239-.236 1.402-.112 2.437-.458 3.105-1.042.423-.382.701-.931.836-1.648l2.029-9.383c.346-1.677.62-2.868.827-3.57l.104-.85 1.617-8.77c.047-.545.228-1.36.551-2.449.321-1.088.561-2.764.723-5.032l.516-2.514.441-4.296c0-.406-.147-.687-.441-.846-.658-.36-2.934-.81-6.831-1.352l.308-1.088 12.616-.068c.251.295.457.602.619.918.276.453.894 1.372 1.858 2.753l1.963 2.755c.78 1.269 1.581 2.514 2.408 3.738a59.233 59.233 0 0 1 2.307 3.707c.505.839 4.049 6.425 10.634 16.759 1.24 1.928 2.102 3.322 2.583 4.182a91.342 91.342 0 0 0 2.821 4.794c.286-1.406.516-2.878.691-4.42.92-4.374 1.457-7.32 1.611-8.838.088-.838.197-1.633.329-2.381.109-.499.251-1.416.427-2.753l.526-3.807c.02-.43.284-2.397.788-5.899.503-3.502.756-5.882.756-7.142 0-.36-.104-.867-.312-1.52-.668-.427-2.32-.843-4.95-1.248a57.931 57.931 0 0 1-2.182-.408c-.07-.34-.104-.6-.104-.783v-.305l.442-.034c.429 0 3.206.126 8.329.379.884.043 1.484.063 1.801.063 1.496 0 2.98-.068 4.454-.204 1.042-.091 1.846-.136 2.414-.136a8.01 8.01 0 0 1-.405 1.469c-3.188.29-5.207.572-6.06.847-.471.16-.792.354-.96.582-.168.228-.432 1.268-.789 3.119-.484 2.63-.802 4.556-.954 5.78a38.925 38.925 0 0 1-.493 3.093 155.063 155.063 0 0 0-.428 2.312l-1.283 9.282-2.3 13.869c-.46 3.039-.7 4.817-.722 5.337h-.812c-.227 0-.578-.021-1.052-.066a31.88 31.88 0 0 0-1.618-2.684l-9.844-15.218a30.447 30.447 0 0 1-1.136-1.834l-2.477-3.67-7.848-12.194c-1.079-1.631-1.996-2.91-2.753-3.84a7.794 7.794 0 0 0-.62-.967 16.29 16.29 0 0 1-.826-1.24 12.147 12.147 0 0 1-.482-.747c-.183.679-.424 1.915-.723 3.704l-.791 4.354c-.414 2.514-1.125 6.334-2.134 11.456l-.792 4.08-.827 6.05a46.953 46.953 0 0 1-.791 4.692c-.321 1.428-.482 2.596-.482 3.503 0 .27.146.565.441.883.543.228 1.279.464 2.205.714.431.135 1.087.272 1.97.407.157.024 1.368.307 3.63.85l-.304 1.191c-.54-.114-1.485-.238-2.834-.376-3.151-.317-5.356-.474-6.616-.474-.586 0-1.328.022-2.228.068-2.588.113-4.242.17-4.96.17-.384 0-1.002-.012-1.858-.036v-1.257Z" stroke="#231F20" stroke-width=".667" stroke-miterlimit="10"/>
  <path d="M338.522 42.622c0 1.042.243 1.813.731 2.31.486.5 1.274.75 2.362.75 1.064 0 2.142-.522 3.23-1.564 1.949-1.904 3.897-5.179 5.848-9.826 1.948-4.645 2.922-8.306 2.922-10.98 0-.952-.237-1.706-.713-2.26-.476-.557-1.019-.834-1.631-.834-1.338 0-2.732.781-4.182 2.345-2.471 2.63-4.602 6.256-6.391 10.879-1.452 3.764-2.176 6.822-2.176 9.18Zm17.677-15.47c0 5.26-1.593 9.928-4.776 14.007-3.185 4.08-6.488 6.12-9.91 6.12-1.836 0-3.32-.685-4.454-2.057-1.133-1.37-1.7-3.517-1.7-6.441 0-1.972.443-4.245 1.327-6.816.884-2.574 2.028-4.709 3.433-6.41.318-.385.68-.85 1.088-1.393a16.888 16.888 0 0 1 4.284-3.944c1.654-1.066 3.342-1.598 5.064-1.598 1.587 0 2.926.663 4.012 1.988 1.09 1.326 1.632 3.508 1.632 6.544Z" fill="#231F20"/>
  <path d="M338.522 42.622c0 1.042.243 1.813.731 2.31.486.5 1.274.75 2.362.75 1.064 0 2.142-.522 3.23-1.564 1.949-1.904 3.897-5.179 5.848-9.826 1.948-4.645 2.922-8.306 2.922-10.98 0-.952-.237-1.706-.713-2.26-.476-.557-1.019-.834-1.631-.834-1.338 0-2.732.781-4.182 2.345-2.471 2.63-4.602 6.256-6.391 10.879-1.452 3.764-2.176 6.822-2.176 9.18Zm17.677-15.47c0 5.26-1.593 9.928-4.776 14.007-3.185 4.08-6.488 6.12-9.91 6.12-1.836 0-3.32-.685-4.454-2.057-1.133-1.37-1.7-3.517-1.7-6.441 0-1.972.443-4.245 1.327-6.816.884-2.574 2.028-4.709 3.433-6.41.318-.385.68-.85 1.088-1.393a16.888 16.888 0 0 1 4.284-3.944c1.654-1.066 3.342-1.598 5.064-1.598 1.587 0 2.926.663 4.012 1.988 1.09 1.326 1.632 3.508 1.632 6.544Z" stroke="#231F20" stroke-width=".667" stroke-miterlimit="10"/>
  <path d="M365.815 44.152a5.355 5.355 0 0 0 1.472-.579c.257-.135 1.168-.758 2.735-1.87 2.852-2.787 4.465-4.385 4.838-4.793.818-.883 1.742-2.095 2.771-3.637.28-.385.877-1.45 1.788-3.196l.884-2.345c.317-1.383.476-2.176.476-2.381 0-.634-.265-1.234-.791-1.8-.352-.34-.922-.511-1.716-.511-.91 0-1.692.146-2.345.441a17.294 17.294 0 0 0-4.027 2.585c-1.633 1.427-3.208 3.258-4.725 5.49-1.517 2.233-2.592 4.097-3.221 5.592-.864 2.063-1.295 3.604-1.295 4.624 0 .839.176 1.462.525 1.87.351.407.795.611 1.332.611.188 0 .62-.033 1.299-.101Zm16.595-22.303c.226-.385.376-.69.442-.917.272-.68.546-1.121.819-1.325a14.59 14.59 0 0 1 1.395-.102c.386 0 .761.079 1.124.238l.101.409c0 .137-.056.34-.169.612-.067.137-.216.568-.443 1.292l-.272.68-2.244 6.085c-.953 2.743-1.787 4.928-2.501 6.56a47.332 47.332 0 0 0-1.854 4.98c-.521 1.69-.998 2.895-1.429 3.62l-.136.327c0 .132.12.306.36.524.955-.567 1.76-1.179 2.419-1.836 1.698-1.7 2.706-2.755 3.025-3.162.235-.294.457-.566.669-.817.254.228.488.465.7.716-.608.883-1.629 2.084-3.062 3.603-1.434 1.519-2.727 2.595-3.878 3.23-.89.475-1.726.714-2.508.714-.5 0-.874-.11-1.125-.334a1.108 1.108 0 0 1-.373-.866c0-.31.113-.898.34-1.759.566-1.494.962-2.481 1.19-2.957.226-.476.531-1.212.918-2.21.225-.612.69-1.677 1.393-3.196-.443.431-.991 1.066-1.643 1.904-1.888 2.313-4.054 4.5-6.501 6.562-.56.476-1.912 1.236-4.056 2.277-.792.295-1.724.487-2.796.579-.909-.024-1.516-.114-1.817-.272-.56-.295-1.015-.76-1.364-1.394-.256-.477-.386-1.213-.386-2.211 0-1.448.324-3.058.974-4.827 1.112-3.014 2.234-5.245 3.37-6.698 1.946-2.515 3.874-4.509 5.786-5.982 1.909-1.474 3.665-2.55 5.262-3.23 2.108-.906 3.939-1.36 5.491-1.36.509 0 .995.046 1.459.136.464.091.904.227 1.32.407Z" fill="#231F20"/>
  <path d="M365.815 44.152a5.355 5.355 0 0 0 1.472-.579c.257-.135 1.168-.758 2.735-1.87 2.852-2.787 4.465-4.385 4.838-4.793.818-.883 1.742-2.095 2.771-3.637.28-.385.877-1.45 1.788-3.196l.884-2.345c.317-1.383.476-2.176.476-2.381 0-.634-.265-1.234-.791-1.8-.352-.34-.922-.511-1.716-.511-.91 0-1.692.146-2.345.441a17.294 17.294 0 0 0-4.027 2.585c-1.633 1.427-3.208 3.258-4.725 5.49-1.517 2.233-2.592 4.097-3.221 5.592-.864 2.063-1.295 3.604-1.295 4.624 0 .839.176 1.462.525 1.87.351.407.795.611 1.332.611.188 0 .62-.033 1.299-.101Zm16.595-22.303c.226-.385.376-.69.442-.917.272-.68.546-1.121.819-1.325a14.59 14.59 0 0 1 1.395-.102c.386 0 .761.079 1.124.238l.101.409c0 .137-.056.34-.169.612-.067.137-.216.568-.443 1.292l-.272.68-2.244 6.085c-.953 2.743-1.787 4.928-2.501 6.56a47.332 47.332 0 0 0-1.854 4.98c-.521 1.69-.998 2.895-1.429 3.62l-.136.327c0 .132.12.306.36.524.955-.567 1.76-1.179 2.419-1.836 1.698-1.7 2.706-2.755 3.025-3.162.235-.294.457-.566.669-.817.254.228.488.465.7.716-.608.883-1.629 2.084-3.062 3.603-1.434 1.519-2.727 2.595-3.878 3.23-.89.475-1.726.714-2.508.714-.5 0-.874-.11-1.125-.334a1.108 1.108 0 0 1-.373-.866c0-.31.113-.898.34-1.759.566-1.494.962-2.481 1.19-2.957.226-.476.531-1.212.918-2.21.225-.612.69-1.677 1.393-3.196-.443.431-.991 1.066-1.643 1.904-1.888 2.313-4.054 4.5-6.501 6.562-.56.476-1.912 1.236-4.056 2.277-.792.295-1.724.487-2.796.579-.909-.024-1.516-.114-1.817-.272-.56-.295-1.015-.76-1.364-1.394-.256-.477-.386-1.213-.386-2.211 0-1.448.324-3.058.974-4.827 1.112-3.014 2.234-5.245 3.37-6.698 1.946-2.515 3.874-4.509 5.786-5.982 1.909-1.474 3.665-2.55 5.262-3.23 2.108-.906 3.939-1.36 5.491-1.36.509 0 .995.046 1.459.136.464.091.904.227 1.32.407Z" stroke="#231F20" stroke-width=".667" stroke-miterlimit="10"/>
  <path d="M398.864 6.246c0-.794.306-1.502.918-2.126.612-.622 1.328-.934 2.142-.934.771 0 1.428.272 1.972.816.544.544.816 1.168.816 1.869 0 .907-.34 1.735-1.02 2.483-.408.43-1.156.645-2.244.645-.725 0-1.337-.25-1.834-.748-.5-.499-.75-1.167-.75-2.005Zm-1.937 15.264c-.476 0-.827.034-1.053.1-1.067.569-1.848 1.056-2.347 1.464a19.652 19.652 0 0 0-2.889 2.788l-1.971.442c1.745-2.358 3.684-4.204 5.816-5.541 2.132-1.337 3.809-2.007 5.035-2.007.521 0 .912.13 1.173.392.259.26.391.595.391 1.003 0 1.112-.635 2.959-1.904 5.544a89.855 89.855 0 0 0-1.123 2.448 97.439 97.439 0 0 1-4.356 8.428 58.277 58.277 0 0 0-1.633 3.06c-.318.635-.6 1.167-.85 1.596-.704 1.18-1.054 2.052-1.054 2.619 0 .158.062.3.186.425a.63.63 0 0 0 .46.187c.25 0 .628-.136 1.139-.408.851-.452 1.867-1.207 3.048-2.262a18.573 18.573 0 0 0 3.12-3.62h1.499c-.688 1.224-1.702 2.63-3.042 4.216-1.338 1.587-2.861 2.855-4.568 3.807-1.278.725-2.417 1.088-3.412 1.088-.758 0-1.314-.153-1.67-.459-.356-.306-.534-.708-.534-1.206 0-1.746 1.282-5.032 3.842-9.86l5.473-10.334c.567-1.065.964-1.904 1.189-2.516.138-.385.206-.645.206-.782 0-.114-.058-.316-.171-.612Z" fill="#231F20"/>
  <path d="M398.864 6.246c0-.794.306-1.502.918-2.126.612-.622 1.328-.934 2.142-.934.771 0 1.428.272 1.972.816.544.544.816 1.168.816 1.869 0 .907-.34 1.735-1.02 2.483-.408.43-1.156.645-2.244.645-.725 0-1.337-.25-1.834-.748-.5-.499-.75-1.167-.75-2.005Zm-1.937 15.264c-.476 0-.827.034-1.053.1-1.067.569-1.848 1.056-2.347 1.464a19.652 19.652 0 0 0-2.889 2.788l-1.971.442c1.745-2.358 3.684-4.204 5.816-5.541 2.132-1.337 3.809-2.007 5.035-2.007.521 0 .912.13 1.173.392.259.26.391.595.391 1.003 0 1.112-.635 2.959-1.904 5.544a89.855 89.855 0 0 0-1.123 2.448 97.439 97.439 0 0 1-4.356 8.428 58.277 58.277 0 0 0-1.633 3.06c-.318.635-.6 1.167-.85 1.596-.704 1.18-1.054 2.052-1.054 2.619 0 .158.062.3.186.425a.63.63 0 0 0 .46.187c.25 0 .628-.136 1.139-.408.851-.452 1.867-1.207 3.048-2.262a18.573 18.573 0 0 0 3.12-3.62h1.499c-.688 1.224-1.702 2.63-3.042 4.216-1.338 1.587-2.861 2.855-4.568 3.807-1.278.725-2.417 1.088-3.412 1.088-.758 0-1.314-.153-1.67-.459-.356-.306-.534-.708-.534-1.206 0-1.746 1.282-5.032 3.842-9.86l5.473-10.334c.567-1.065.964-1.904 1.189-2.516.138-.385.206-.645.206-.782 0-.114-.058-.316-.171-.612Z" stroke="#231F20" stroke-width=".667" stroke-miterlimit="10"/>
  <path d="m416.338 2.574.103-.986c2.777-.226 4.883-.34 6.317-.34h1.503v.456l-1.053 3.298c-.046.09-.874 2.188-2.483 6.29l-4.592 11.966c-.817 2.242-2.176 5.71-4.081 10.4l-1.123 2.958c-.792 2.152-1.428 3.603-1.904 4.352-.748 1.22-1.121 2.123-1.121 2.71l.134.541c.743-.067 1.66-.577 2.755-1.53 1.6-1.337 3.052-3.047 4.357-5.133.422-.09.748-.136.98-.136l.379.034c-.849 1.654-1.763 3.004-2.743 4.045-1.545 1.633-2.612 2.664-3.198 3.095-1.307.997-2.558 1.756-3.755 2.278-.761.34-1.512.508-2.252.508-.392 0-.687-.1-.881-.305-.196-.203-.294-.465-.294-.781 0-1.066 1.814-5.747 5.439-14.04 1.111-2.516 2.267-5.395 3.468-8.636 2.108-5.666 3.728-9.7 4.861-12.103 1.134-2.403 1.96-4.567 2.483-6.493.045-.196.067-.36.067-.49 0-.326-.159-.63-.475-.914-.409-.348-1.372-.696-2.891-1.044Z" fill="#231F20"/>
  <path d="m416.338 2.574.103-.986c2.777-.226 4.883-.34 6.317-.34h1.503v.456l-1.053 3.298c-.046.09-.874 2.188-2.483 6.29l-4.592 11.966c-.817 2.242-2.176 5.71-4.081 10.4l-1.123 2.958c-.792 2.152-1.428 3.603-1.904 4.352-.748 1.22-1.121 2.123-1.121 2.71l.134.541c.743-.067 1.66-.577 2.755-1.53 1.6-1.337 3.052-3.047 4.357-5.133.422-.09.748-.136.98-.136l.379.034c-.849 1.654-1.763 3.004-2.743 4.045-1.545 1.633-2.612 2.664-3.198 3.095-1.307.997-2.558 1.756-3.755 2.278-.761.34-1.512.508-2.252.508-.392 0-.687-.1-.881-.305-.196-.203-.294-.465-.294-.781 0-1.066 1.814-5.747 5.439-14.04 1.111-2.516 2.267-5.395 3.468-8.636 2.108-5.666 3.728-9.7 4.861-12.103 1.134-2.403 1.96-4.567 2.483-6.493.045-.196.067-.36.067-.49 0-.326-.159-.63-.475-.914-.409-.348-1.372-.696-2.891-1.044Z" stroke="#231F20" stroke-width=".667" stroke-miterlimit="10"/>
  <path d="m431.569 2.574.103-.986c2.777-.226 4.882-.34 6.317-.34h1.503v.456l-1.054 3.298c-.045.09-.873 2.188-2.482 6.29l-4.592 11.966c-.818 2.242-2.176 5.71-4.082 10.4l-1.122 2.958c-.792 2.152-1.428 3.603-1.904 4.352-.748 1.22-1.122 2.123-1.122 2.71l.135.541c.743-.067 1.66-.577 2.755-1.53 1.6-1.337 3.052-3.047 4.357-5.133.421-.09.748-.136.98-.136l.379.034c-.85 1.654-1.763 3.004-2.743 4.045-1.545 1.633-2.612 2.664-3.199 3.095-1.306.997-2.557 1.756-3.754 2.278-.762.34-1.512.508-2.252.508-.392 0-.687-.1-.882-.305-.196-.203-.293-.465-.293-.781 0-1.066 1.813-5.747 5.439-14.04 1.11-2.516 2.266-5.395 3.468-8.636 2.108-5.666 3.728-9.7 4.861-12.103 1.133-2.403 1.96-4.567 2.483-6.493.045-.196.066-.36.066-.49 0-.326-.158-.63-.474-.914-.41-.348-1.372-.696-2.891-1.044Z" fill="#231F20"/>
  <path d="m431.569 2.574.103-.986c2.777-.226 4.882-.34 6.317-.34h1.503v.456l-1.054 3.298c-.045.09-.873 2.188-2.482 6.29l-4.592 11.966c-.818 2.242-2.176 5.71-4.082 10.4l-1.122 2.958c-.792 2.152-1.428 3.603-1.904 4.352-.748 1.22-1.122 2.123-1.122 2.71l.135.541c.743-.067 1.66-.577 2.755-1.53 1.6-1.337 3.052-3.047 4.357-5.133.421-.09.748-.136.98-.136l.379.034c-.85 1.654-1.763 3.004-2.743 4.045-1.545 1.633-2.612 2.664-3.199 3.095-1.306.997-2.557 1.756-3.754 2.278-.762.34-1.512.508-2.252.508-.392 0-.687-.1-.882-.305-.196-.203-.293-.465-.293-.781 0-1.066 1.813-5.747 5.439-14.04 1.11-2.516 2.266-5.395 3.468-8.636 2.108-5.666 3.728-9.7 4.861-12.103 1.133-2.403 1.96-4.567 2.483-6.493.045-.196.066-.36.066-.49 0-.326-.158-.63-.474-.914-.41-.348-1.372-.696-2.891-1.044Z" stroke="#231F20" stroke-width=".667" stroke-miterlimit="10"/>
  <path d="M439.626 32.49c.726.024 1.859-.26 3.4-.849.839-.317 1.95-.94 3.332-1.87.544-.363 1.167-.98 1.87-1.853a10.203 10.203 0 0 0 1.597-2.72c.363-.94.545-1.908.545-2.905 0-.659-.193-1.203-.578-1.633-.386-.43-.816-.646-1.292-.646-.612 0-1.338.351-2.176 1.055-1.406 1.224-2.879 3.275-4.419 6.152-1.156 2.199-1.916 3.956-2.279 5.27Zm-.578 1.735c-.747 2.056-1.12 4.133-1.12 6.236 0 1.536.361 2.768 1.086 3.693.476.634 1.123.95 1.939.95.497 0 .94-.102 1.325-.306a8.794 8.794 0 0 0 2.159-1.52c.601-.589 1.229-1.356 1.887-2.302a13.11 13.11 0 0 0 1.598-3.182h.475c.272 0 .579.023.919.068-.68 2.53-2.358 5.014-5.032 7.454-1.678 1.513-3.411 2.27-5.2 2.27-1.203 0-2.223-.545-3.06-1.632-1.111-1.429-1.667-3.4-1.667-5.916 0-1.088.164-2.392.493-3.909.328-1.519.708-2.788 1.139-3.808a38.25 38.25 0 0 1 2.277-4.488l2.618-3.808c1.701-1.812 2.653-2.81 2.856-2.99.794-.682 1.592-1.195 2.397-1.547a6.167 6.167 0 0 1 2.499-.527c1.11 0 2.084.465 2.924 1.396.837.932 1.258 2.103 1.258 3.51 0 1.25-.324 2.482-.969 3.697-.647 1.216-1.344 2.108-2.091 2.674l-2.822 1.84c-.318.16-1.168.448-2.55.87-1.382.42-3.162.846-5.338 1.277Z" fill="#231F20"/>
  <path d="M439.626 32.49c.726.024 1.859-.26 3.4-.849.839-.317 1.95-.94 3.332-1.87.544-.363 1.167-.98 1.87-1.853a10.203 10.203 0 0 0 1.597-2.72c.363-.94.545-1.908.545-2.905 0-.659-.193-1.203-.578-1.633-.386-.43-.816-.646-1.292-.646-.612 0-1.338.351-2.176 1.055-1.406 1.224-2.879 3.275-4.419 6.152-1.156 2.199-1.916 3.956-2.279 5.27Zm-.578 1.735c-.747 2.056-1.12 4.133-1.12 6.236 0 1.536.361 2.768 1.086 3.693.476.634 1.123.95 1.939.95.497 0 .94-.102 1.325-.306a8.794 8.794 0 0 0 2.159-1.52c.601-.589 1.229-1.356 1.887-2.302a13.11 13.11 0 0 0 1.598-3.182h.475c.272 0 .579.023.919.068-.68 2.53-2.358 5.014-5.032 7.454-1.678 1.513-3.411 2.27-5.2 2.27-1.203 0-2.223-.545-3.06-1.632-1.111-1.429-1.667-3.4-1.667-5.916 0-1.088.164-2.392.493-3.909.328-1.519.708-2.788 1.139-3.808a38.25 38.25 0 0 1 2.277-4.488l2.618-3.808c1.701-1.812 2.653-2.81 2.856-2.99.794-.682 1.592-1.195 2.397-1.547a6.167 6.167 0 0 1 2.499-.527c1.11 0 2.084.465 2.924 1.396.837.932 1.258 2.103 1.258 3.51 0 1.25-.324 2.482-.969 3.697-.647 1.216-1.344 2.108-2.091 2.674l-2.822 1.84c-.318.16-1.168.448-2.55.87-1.382.42-3.162.846-5.338 1.277Z" stroke="#231F20" stroke-width=".667" stroke-miterlimit="10"/>
  <path d="M455.027 40.65c1.134 0 2.062.873 2.788 2.618.362.861.714 1.428 1.054 1.699.316.296.736.442 1.257.442.975 0 1.904-.453 2.788-1.361.68-.68 1.02-1.724 1.02-3.132 0-1.088-.385-2.721-1.157-4.901-1.087-3.154-1.631-5.627-1.631-7.42 0-2.61.703-4.924 2.108-6.944 1.405-2.02 3.627-3.03 6.663-3.03 1.293 0 2.322.35 3.093 1.053.771.703 1.156 1.554 1.156 2.55 0 .68-.187 1.23-.56 1.65-.375.418-.799.629-1.275.629-.998 0-1.892-.483-2.685-1.446-.795-.964-1.327-1.524-1.599-1.682-.27-.138-.692-.204-1.258-.204-.634 0-1.195.271-1.682.817-.489.544-.73 1.203-.73 1.974-.002 1.84.545 4.4 1.638 7.675 1.095 3.277 1.636 5.824 1.624 7.64 0 1.159-.357 2.334-1.07 3.524-.715 1.194-1.826 2.203-3.332 3.032-1.508.828-3.055 1.242-4.64 1.242-1.904 0-3.327-.407-4.267-1.225-.941-.814-1.411-1.789-1.411-2.922 0-.68.192-1.23.579-1.648.384-.42.893-.63 1.529-.63Z" fill="#231F20"/>
  <path d="M455.027 40.65c1.134 0 2.062.873 2.788 2.618.362.861.714 1.428 1.054 1.699.316.296.736.442 1.257.442.975 0 1.904-.453 2.788-1.361.68-.68 1.02-1.724 1.02-3.132 0-1.088-.385-2.721-1.157-4.901-1.087-3.154-1.631-5.627-1.631-7.42 0-2.61.703-4.924 2.108-6.944 1.405-2.02 3.627-3.03 6.663-3.03 1.293 0 2.322.35 3.093 1.053.771.703 1.156 1.554 1.156 2.55 0 .68-.187 1.23-.56 1.65-.375.418-.799.629-1.275.629-.998 0-1.892-.483-2.685-1.446-.795-.964-1.327-1.524-1.599-1.682-.27-.138-.692-.204-1.258-.204-.634 0-1.195.271-1.682.817-.489.544-.73 1.203-.73 1.974-.002 1.84.545 4.4 1.638 7.675 1.095 3.277 1.636 5.824 1.624 7.64 0 1.159-.357 2.334-1.07 3.524-.715 1.194-1.826 2.203-3.332 3.032-1.508.828-3.055 1.242-4.64 1.242-1.904 0-3.327-.407-4.267-1.225-.941-.814-1.411-1.789-1.411-2.922 0-.68.192-1.23.579-1.648.384-.42.893-.63 1.529-.63Z" stroke="#231F20" stroke-width=".667" stroke-miterlimit="10"/>
</svg>