<svg width="591" height="127" viewBox="0 0 591 127" fill="none" xmlns="http://www.w3.org/2000/svg">
<path d="M182.534 25.304L182.713 23.591C187.545 23.197 191.208 23 193.704 23H196.319V23.793L194.486 29.526C194.407 29.684 192.967 33.33 190.167 40.461L182.177 61.267C180.755 65.167 178.391 71.196 175.076 79.35L173.123 84.494C171.745 88.236 170.639 90.758 169.81 92.061C168.509 94.18 167.86 95.751 167.86 96.771L168.094 97.713C169.386 97.597 170.982 96.709 172.886 95.054C175.67 92.728 178.196 89.754 180.468 86.128C181.201 85.971 181.769 85.892 182.173 85.892L182.831 85.95C181.354 88.827 179.765 91.173 178.06 92.983C175.371 95.823 173.515 97.615 172.494 98.364C170.221 100.098 168.045 101.417 165.962 102.326C164.637 102.917 163.331 103.209 162.044 103.209C161.362 103.209 160.849 103.033 160.51 102.678C160.169 102.326 160 101.869 160 101.32C160 99.468 163.155 91.328 169.462 76.909C171.395 72.534 173.406 67.529 175.496 61.893C179.164 52.043 181.982 45.028 183.954 40.851C185.926 36.673 187.364 32.911 188.274 29.561C188.352 29.22 188.39 28.935 188.39 28.71C188.39 28.142 188.114 27.613 187.564 27.12C186.852 26.514 185.177 25.909 182.534 25.304Z" fill="#231F20"/>
<path d="M182.534 25.304L182.713 23.591C187.545 23.197 191.208 23 193.704 23H196.319V23.793L194.486 29.526C194.407 29.684 192.967 33.33 190.167 40.461L182.177 61.267C180.755 65.167 178.391 71.196 175.076 79.35L173.123 84.494C171.745 88.236 170.639 90.758 169.81 92.061C168.509 94.18 167.86 95.751 167.86 96.771L168.094 97.713C169.386 97.597 170.982 96.709 172.886 95.054C175.67 92.728 178.196 89.754 180.468 86.128C181.201 85.971 181.769 85.892 182.173 85.892L182.831 85.95C181.354 88.827 179.765 91.173 178.06 92.983C175.371 95.823 173.515 97.615 172.494 98.364C170.221 100.098 168.045 101.417 165.962 102.326C164.637 102.917 163.331 103.209 162.044 103.209C161.362 103.209 160.849 103.033 160.51 102.678C160.169 102.326 160 101.869 160 101.32C160 99.468 163.155 91.328 169.462 76.909C171.395 72.534 173.406 67.529 175.496 61.893C179.164 52.043 181.982 45.028 183.954 40.851C185.926 36.673 187.364 32.911 188.274 29.561C188.352 29.22 188.39 28.935 188.39 28.71C188.39 28.142 188.114 27.613 187.564 27.12C186.852 26.514 185.177 25.909 182.534 25.304Z" stroke="#231F20" stroke-width="0.667" stroke-miterlimit="10"/>
<path d="M196.55 77.32C197.812 77.362 199.784 76.868 202.466 75.843C203.925 75.292 205.857 74.209 208.263 72.593C209.209 71.96 210.293 70.889 211.515 69.371C212.738 67.855 213.663 66.276 214.294 64.642C214.925 63.007 215.243 61.324 215.243 59.59C215.243 58.445 214.907 57.499 214.236 56.75C213.566 56.004 212.817 55.628 211.989 55.628C210.924 55.628 209.662 56.238 208.203 57.462C205.758 59.59 203.194 63.156 200.515 68.158C198.504 71.981 197.181 75.037 196.55 77.32ZM195.544 80.336C194.245 83.911 193.595 87.523 193.595 91.179C193.595 93.849 194.224 95.991 195.486 97.6C196.314 98.701 197.439 99.251 198.859 99.251C199.724 99.251 200.494 99.075 201.164 98.72C202.624 97.976 203.874 97.092 204.92 96.075C205.966 95.052 207.059 93.719 208.203 92.073C209.346 90.425 210.274 88.582 210.984 86.542H211.81C212.283 86.542 212.817 86.582 213.408 86.66C212.225 91.058 209.307 95.377 204.653 99.619C201.735 102.251 198.719 103.565 195.606 103.565C193.514 103.565 191.739 102.619 190.282 100.73C188.35 98.245 187.383 94.818 187.383 90.444C187.383 88.552 187.668 86.285 188.241 83.647C188.812 81.006 189.473 78.799 190.222 77.026C191.369 74.3403 192.693 71.7333 194.184 69.222L198.738 62.602C201.698 59.451 203.354 57.717 203.707 57.402C205.09 56.217 206.477 55.325 207.878 54.713C209.247 54.1075 210.728 53.7955 212.225 53.797C214.158 53.797 215.851 54.606 217.312 56.224C218.769 57.844 219.502 59.88 219.502 62.326C219.502 64.5 218.939 66.642 217.816 68.754C216.691 70.868 215.478 72.419 214.178 73.405L209.267 76.601C208.715 76.882 207.235 77.383 204.832 78.115C202.426 78.846 199.33 79.587 195.544 80.336Z" fill="#231F20"/>
<path d="M196.55 77.32C197.812 77.362 199.784 76.868 202.466 75.843C203.925 75.292 205.857 74.209 208.263 72.593C209.209 71.96 210.293 70.889 211.515 69.371C212.738 67.855 213.663 66.276 214.294 64.642C214.925 63.007 215.243 61.324 215.243 59.59C215.243 58.445 214.907 57.499 214.236 56.75C213.566 56.004 212.817 55.628 211.989 55.628C210.924 55.628 209.662 56.238 208.203 57.462C205.758 59.59 203.194 63.156 200.515 68.158C198.504 71.981 197.181 75.037 196.55 77.32ZM195.544 80.336C194.245 83.911 193.595 87.523 193.595 91.179C193.595 93.849 194.224 95.991 195.486 97.6C196.314 98.701 197.439 99.251 198.859 99.251C199.724 99.251 200.494 99.075 201.164 98.72C202.624 97.976 203.874 97.092 204.92 96.075C205.966 95.052 207.059 93.719 208.203 92.073C209.346 90.425 210.274 88.582 210.984 86.542H211.81C212.283 86.542 212.817 86.582 213.408 86.66C212.225 91.058 209.307 95.377 204.653 99.619C201.735 102.251 198.719 103.565 195.606 103.565C193.514 103.565 191.739 102.619 190.282 100.73C188.35 98.245 187.383 94.818 187.383 90.444C187.383 88.552 187.668 86.285 188.241 83.647C188.812 81.006 189.473 78.799 190.222 77.026C191.369 74.3403 192.693 71.7333 194.184 69.222L198.738 62.602C201.698 59.451 203.354 57.717 203.707 57.402C205.09 56.217 206.477 55.325 207.878 54.713C209.247 54.1075 210.728 53.7955 212.225 53.797C214.158 53.797 215.851 54.606 217.312 56.224C218.769 57.844 219.502 59.88 219.502 62.326C219.502 64.5 218.939 66.642 217.816 68.754C216.691 70.868 215.478 72.419 214.178 73.405L209.267 76.601C208.715 76.882 207.235 77.383 204.832 78.115C202.426 78.846 199.33 79.587 195.544 80.336Z" stroke="#231F20" stroke-width="0.667" stroke-miterlimit="10"/>
<path d="M245.646 99.545C246.421 99.392 247.639 99.2551 249.305 99.1371C250.97 99.0191 252.269 98.8841 253.2 98.7271C255.64 98.5321 257.44 97.9291 258.602 96.9141C259.338 96.2511 259.823 95.2961 260.057 94.0481L263.588 77.735C264.188 74.818 264.666 72.7481 265.026 71.5291L265.207 70.05L268.021 54.8C268.102 53.854 268.417 52.4361 268.979 50.5441C269.538 48.6521 269.955 45.738 270.236 41.795L271.134 37.423L271.902 29.953C271.902 29.249 271.647 28.7591 271.134 28.4841C269.99 27.8581 266.03 27.0741 259.25 26.1331L259.786 24.2411L281.735 24.123C282.155 24.611 282.516 25.1463 282.812 25.718C283.292 26.506 284.368 28.1031 286.045 30.5051L289.46 35.295C290.81 37.4917 292.207 39.6589 293.65 41.795C295.067 43.893 296.406 46.0428 297.663 48.2401C298.542 49.6981 304.708 59.4111 316.165 77.3781C318.323 80.7301 319.821 83.1551 320.659 84.6501C322.209 87.4779 323.846 90.2572 325.568 92.984C326.08 90.4411 326.481 87.877 326.769 85.299C328.37 77.695 329.305 72.5721 329.571 69.9341C329.725 68.4761 329.915 67.094 330.144 65.793C330.335 64.926 330.581 63.3321 330.887 61.0061L331.803 54.388C331.838 53.639 332.297 50.219 333.174 44.132C334.049 38.042 334.489 33.9041 334.489 31.7131C334.489 31.0871 334.308 30.2061 333.947 29.0721C332.784 28.3281 329.91 27.6051 325.333 26.9001C324.064 26.6879 322.798 26.4516 321.538 26.1911C321.415 25.6001 321.357 25.148 321.357 24.83V24.2991L322.125 24.2411C322.872 24.2411 327.704 24.4591 336.617 24.9001C338.155 24.9741 339.199 25.0081 339.751 25.0081C342.353 25.0081 344.935 24.8901 347.499 24.6541C349.313 24.4961 350.712 24.4171 351.7 24.4171C351.54 25.3081 351.308 26.161 350.995 26.972C345.448 27.477 341.936 27.967 340.451 28.444C339.632 28.722 339.073 29.061 338.781 29.457C338.489 29.854 338.029 31.6621 337.408 34.8801C336.566 39.4511 336.014 42.801 335.749 44.929C335.482 47.055 335.197 48.852 334.891 50.308C334.633 51.6459 334.385 52.9856 334.146 54.3271L331.914 70.4651L327.913 94.579C327.113 99.863 326.695 102.955 326.656 103.859H325.243C324.848 103.859 324.238 103.822 323.412 103.743C322.551 102.143 321.612 100.585 320.599 99.0771L303.472 72.6181C302.775 71.5789 302.116 70.5152 301.495 69.429L297.185 63.0491L283.531 41.8461C281.654 39.0111 280.058 36.7881 278.74 35.1721C278.423 34.5852 278.062 34.0226 277.662 33.489C277.151 32.7922 276.672 32.0728 276.226 31.3331C276.026 31.0571 275.746 30.6261 275.386 30.0341C275.068 31.2141 274.648 33.3631 274.129 36.4751L272.753 44.0441C272.032 48.4161 270.795 55.0581 269.039 63.9621L267.661 71.056L266.223 81.576C265.866 84.532 265.406 87.251 264.847 89.734C264.288 92.217 264.008 94.2481 264.008 95.8241C264.008 96.2951 264.263 96.807 264.775 97.359C265.72 97.755 267 98.166 268.612 98.601C269.362 98.836 270.503 99.074 272.039 99.308C272.312 99.35 274.419 99.8421 278.355 100.788L277.826 102.858C276.887 102.658 275.242 102.443 272.895 102.204C267.413 101.652 263.576 101.379 261.384 101.379C260.365 101.379 259.073 101.418 257.508 101.497C253.005 101.694 250.128 101.794 248.878 101.794C248.21 101.794 247.136 101.773 245.646 101.731V99.545Z" fill="#231F20"/>
<path d="M245.646 99.545C246.421 99.392 247.639 99.2551 249.305 99.1371C250.97 99.0191 252.269 98.8841 253.2 98.7271C255.64 98.5321 257.44 97.9291 258.602 96.9141C259.338 96.2511 259.823 95.2961 260.057 94.0481L263.588 77.735C264.188 74.818 264.666 72.7481 265.026 71.5291L265.207 70.05L268.021 54.8C268.102 53.854 268.417 52.4361 268.979 50.5441C269.538 48.6521 269.955 45.738 270.236 41.795L271.134 37.423L271.902 29.953C271.902 29.249 271.647 28.7591 271.134 28.4841C269.99 27.8581 266.03 27.0741 259.25 26.1331L259.786 24.2411L281.735 24.123C282.155 24.611 282.516 25.1463 282.812 25.718C283.292 26.506 284.368 28.1031 286.045 30.5051L289.46 35.295C290.81 37.4917 292.207 39.6589 293.65 41.795C295.067 43.893 296.406 46.0428 297.663 48.2401C298.542 49.6981 304.708 59.4111 316.165 77.3781C318.323 80.7301 319.821 83.1551 320.659 84.6501C322.209 87.4779 323.846 90.2572 325.568 92.984C326.08 90.4411 326.481 87.877 326.769 85.299C328.37 77.695 329.305 72.5721 329.571 69.9341C329.725 68.4761 329.915 67.094 330.144 65.793C330.335 64.926 330.581 63.3321 330.887 61.0061L331.803 54.388C331.838 53.639 332.297 50.219 333.174 44.132C334.049 38.042 334.489 33.9041 334.489 31.7131C334.489 31.0871 334.308 30.2061 333.947 29.0721C332.784 28.3281 329.91 27.6051 325.333 26.9001C324.064 26.6879 322.798 26.4516 321.538 26.1911C321.415 25.6001 321.357 25.148 321.357 24.83V24.2991L322.125 24.2411C322.872 24.2411 327.704 24.4591 336.617 24.9001C338.155 24.9741 339.199 25.0081 339.751 25.0081C342.353 25.0081 344.935 24.8901 347.499 24.6541C349.313 24.4961 350.712 24.4171 351.7 24.4171C351.54 25.3081 351.308 26.161 350.995 26.972C345.448 27.477 341.936 27.967 340.451 28.444C339.632 28.722 339.073 29.061 338.781 29.457C338.489 29.854 338.029 31.6621 337.408 34.8801C336.566 39.4511 336.014 42.801 335.749 44.929C335.482 47.055 335.197 48.852 334.891 50.308C334.633 51.6459 334.385 52.9856 334.146 54.3271L331.914 70.4651L327.913 94.579C327.113 99.863 326.695 102.955 326.656 103.859H325.243C324.848 103.859 324.238 103.822 323.412 103.743C322.551 102.143 321.612 100.585 320.599 99.0771L303.472 72.6181C302.775 71.5789 302.116 70.5152 301.495 69.429L297.185 63.0491L283.531 41.8461C281.654 39.0111 280.058 36.7881 278.74 35.1721C278.423 34.5852 278.062 34.0226 277.662 33.489C277.151 32.7922 276.672 32.0728 276.226 31.3331C276.026 31.0571 275.746 30.6261 275.386 30.0341C275.068 31.2141 274.648 33.3631 274.129 36.4751L272.753 44.0441C272.032 48.4161 270.795 55.0581 269.039 63.9621L267.661 71.056L266.223 81.576C265.866 84.532 265.406 87.251 264.847 89.734C264.288 92.217 264.008 94.2481 264.008 95.8241C264.008 96.2951 264.263 96.807 264.775 97.359C265.72 97.755 267 98.166 268.612 98.601C269.362 98.836 270.503 99.074 272.039 99.308C272.312 99.35 274.419 99.8421 278.355 100.788L277.826 102.858C276.887 102.658 275.242 102.443 272.895 102.204C267.413 101.652 263.576 101.379 261.384 101.379C260.365 101.379 259.073 101.418 257.508 101.497C253.005 101.694 250.128 101.794 248.878 101.794C248.21 101.794 247.136 101.773 245.646 101.731V99.545Z" stroke="#231F20" stroke-width="0.667" stroke-miterlimit="10"/>
<path d="M353.709 94.936C353.709 96.748 354.131 98.088 354.98 98.953C355.827 99.82 357.198 100.256 359.091 100.256C360.942 100.256 362.816 99.349 364.709 97.537C368.101 94.226 371.49 88.533 374.884 80.453C378.273 72.377 379.969 66.011 379.969 61.363C379.969 59.707 379.556 58.395 378.728 57.431C377.899 56.464 376.955 55.982 375.891 55.982C373.561 55.982 371.137 57.34 368.613 60.06C364.315 64.634 360.608 70.937 357.495 78.974C354.968 85.519 353.709 90.837 353.709 94.936ZM384.464 68.039C384.464 77.185 381.692 85.301 376.155 92.392C370.613 99.486 364.867 103.033 358.912 103.033C355.718 103.033 353.136 101.842 351.164 99.456C349.192 97.073 348.206 93.341 348.206 88.257C348.206 84.828 348.976 80.878 350.514 76.406C352.052 71.932 354.043 68.22 356.488 65.262C357.137 64.4681 357.768 63.6603 358.381 62.839C360.449 60.1388 362.971 57.8186 365.834 55.982C368.711 54.13 371.648 53.205 374.645 53.205C377.405 53.205 379.734 54.357 381.625 56.661C383.52 58.966 384.464 62.761 384.464 68.039Z" fill="#231F20"/>
<path d="M353.709 94.936C353.709 96.748 354.131 98.088 354.98 98.953C355.827 99.82 357.198 100.256 359.091 100.256C360.942 100.256 362.816 99.349 364.709 97.537C368.101 94.226 371.49 88.533 374.884 80.453C378.273 72.377 379.969 66.011 379.969 61.363C379.969 59.707 379.556 58.395 378.728 57.431C377.899 56.464 376.955 55.982 375.891 55.982C373.561 55.982 371.137 57.34 368.613 60.06C364.315 64.634 360.608 70.937 357.495 78.974C354.968 85.519 353.709 90.837 353.709 94.936ZM384.464 68.039C384.464 77.185 381.692 85.301 376.155 92.392C370.613 99.486 364.867 103.033 358.912 103.033C355.718 103.033 353.136 101.842 351.164 99.456C349.192 97.073 348.206 93.341 348.206 88.257C348.206 84.828 348.976 80.878 350.514 76.406C352.052 71.932 354.043 68.22 356.488 65.262C357.137 64.4681 357.768 63.6603 358.381 62.839C360.449 60.1388 362.971 57.8186 365.834 55.982C368.711 54.13 371.648 53.205 374.645 53.205C377.405 53.205 379.734 54.357 381.625 56.661C383.52 58.966 384.464 62.761 384.464 68.039Z" stroke="#231F20" stroke-width="0.667" stroke-miterlimit="10"/>
<path d="M401.194 97.596C402.168 97.357 403.022 97.025 403.755 96.59C404.203 96.355 405.787 95.271 408.513 93.339C413.475 88.492 416.282 85.7151 416.932 85.0051C418.354 83.4681 419.961 81.361 421.752 78.681C422.239 78.011 423.278 76.159 424.863 73.124L426.401 69.046C426.953 66.642 427.229 65.263 427.229 64.906C427.229 63.805 426.767 62.762 425.853 61.776C425.241 61.185 424.248 60.889 422.868 60.889C421.283 60.889 419.924 61.144 418.787 61.656C416.255 62.8229 413.898 64.3357 411.782 66.151C408.94 68.632 406.2 71.814 403.56 75.695C400.92 79.578 399.051 82.819 397.956 85.418C396.452 89.004 395.703 91.684 395.703 93.458C395.703 94.916 396.009 96.001 396.617 96.708C397.227 97.417 398 97.772 398.935 97.772C399.262 97.772 400.013 97.714 401.194 97.596ZM430.066 58.818C430.46 58.148 430.72 57.617 430.836 57.223C431.309 56.041 431.785 55.274 432.261 54.919C433.365 54.801 434.174 54.743 434.687 54.743C435.36 54.743 436.012 54.88 436.643 55.156L436.819 55.867C436.819 56.106 436.722 56.458 436.524 56.931C436.408 57.17 436.149 57.919 435.754 59.178L435.281 60.36L431.377 70.94C429.718 75.709 428.268 79.509 427.025 82.346C425.789 85.1697 424.712 88.0606 423.8 91.0051C422.893 93.9421 422.063 96.038 421.314 97.299L421.077 97.8671C421.077 98.0961 421.286 98.4 421.703 98.778C423.364 97.793 424.765 96.729 425.911 95.586C428.867 92.63 430.621 90.796 431.175 90.089C431.583 89.577 431.971 89.104 432.339 88.668C432.78 89.065 433.189 89.477 433.557 89.913C432.5 91.448 430.723 93.536 428.229 96.177C425.735 98.817 423.485 100.688 421.483 101.794C419.933 102.619 418.479 103.034 417.119 103.034C416.249 103.034 415.598 102.842 415.162 102.455C414.73 102.07 414.512 101.567 414.512 100.948C414.512 100.408 414.709 99.388 415.104 97.89C416.089 95.291 416.778 93.576 417.175 92.748C417.567 91.921 418.098 90.641 418.771 88.907C419.163 87.843 419.973 85.991 421.195 83.35C420.425 84.099 419.472 85.202 418.337 86.661C415.052 90.68 411.283 94.482 407.026 98.069C406.052 98.896 403.699 100.218 399.969 102.028C398.591 102.541 396.97 102.874 395.105 103.034C393.523 102.993 392.467 102.837 391.943 102.561C390.969 102.049 390.177 101.24 389.57 100.139C389.124 99.309 388.899 98.029 388.899 96.293C388.899 93.775 389.463 90.977 390.593 87.901C392.527 82.662 394.481 78.781 396.457 76.256C399.842 71.882 403.196 68.416 406.523 65.854C409.845 63.293 412.9 61.422 415.679 60.239C419.346 58.663 422.531 57.872 425.232 57.872C426.118 57.872 426.962 57.954 427.77 58.111C428.558 58.2636 429.328 58.5006 430.066 58.818Z" fill="#231F20"/>
<path d="M401.194 97.596C402.168 97.357 403.022 97.025 403.755 96.59C404.203 96.355 405.787 95.271 408.513 93.339C413.475 88.492 416.282 85.7151 416.932 85.0051C418.354 83.4681 419.961 81.361 421.752 78.681C422.239 78.011 423.278 76.159 424.863 73.124L426.401 69.046C426.953 66.642 427.229 65.263 427.229 64.906C427.229 63.805 426.767 62.762 425.853 61.776C425.241 61.185 424.248 60.889 422.868 60.889C421.283 60.889 419.924 61.144 418.787 61.656C416.255 62.8229 413.898 64.3357 411.782 66.151C408.94 68.632 406.2 71.814 403.56 75.695C400.92 79.578 399.051 82.819 397.956 85.418C396.452 89.004 395.703 91.684 395.703 93.458C395.703 94.916 396.009 96.001 396.617 96.708C397.227 97.417 398 97.772 398.935 97.772C399.262 97.772 400.013 97.714 401.194 97.596ZM430.066 58.818C430.46 58.148 430.72 57.617 430.836 57.223C431.309 56.041 431.785 55.274 432.261 54.919C433.365 54.801 434.174 54.743 434.687 54.743C435.36 54.743 436.012 54.88 436.643 55.156L436.819 55.867C436.819 56.106 436.722 56.458 436.524 56.931C436.408 57.17 436.149 57.919 435.754 59.178L435.281 60.36L431.377 70.94C429.718 75.709 428.268 79.509 427.025 82.346C425.789 85.1697 424.712 88.0606 423.8 91.0051C422.893 93.9421 422.063 96.038 421.314 97.299L421.077 97.8671C421.077 98.0961 421.286 98.4 421.703 98.778C423.364 97.793 424.765 96.729 425.911 95.586C428.867 92.63 430.621 90.796 431.175 90.089C431.583 89.577 431.971 89.104 432.339 88.668C432.78 89.065 433.189 89.477 433.557 89.913C432.5 91.448 430.723 93.536 428.229 96.177C425.735 98.817 423.485 100.688 421.483 101.794C419.933 102.619 418.479 103.034 417.119 103.034C416.249 103.034 415.598 102.842 415.162 102.455C414.73 102.07 414.512 101.567 414.512 100.948C414.512 100.408 414.709 99.388 415.104 97.89C416.089 95.291 416.778 93.576 417.175 92.748C417.567 91.921 418.098 90.641 418.771 88.907C419.163 87.843 419.973 85.991 421.195 83.35C420.425 84.099 419.472 85.202 418.337 86.661C415.052 90.68 411.283 94.482 407.026 98.069C406.052 98.896 403.699 100.218 399.969 102.028C398.591 102.541 396.97 102.874 395.105 103.034C393.523 102.993 392.467 102.837 391.943 102.561C390.969 102.049 390.177 101.24 389.57 100.139C389.124 99.309 388.899 98.029 388.899 96.293C388.899 93.775 389.463 90.977 390.593 87.901C392.527 82.662 394.481 78.781 396.457 76.256C399.842 71.882 403.196 68.416 406.523 65.854C409.845 63.293 412.9 61.422 415.679 60.239C419.346 58.663 422.531 57.872 425.232 57.872C426.118 57.872 426.962 57.954 427.77 58.111C428.558 58.2636 429.328 58.5006 430.066 58.818Z" stroke="#231F20" stroke-width="0.667" stroke-miterlimit="10"/>
<path d="M458.695 31.689C458.695 30.309 459.226 29.078 460.291 27.993C461.355 26.911 462.601 26.368 464.018 26.368C465.359 26.368 466.503 26.841 467.449 27.787C468.396 28.733 468.869 29.818 468.869 31.037C468.869 32.613 468.278 34.053 467.094 35.354C466.385 36.102 465.083 36.476 463.19 36.476C461.928 36.476 460.864 36.042 459.998 35.175C459.128 34.308 458.695 33.147 458.695 31.689ZM455.324 58.228C454.496 58.228 453.886 58.288 453.491 58.404C451.635 59.392 450.276 60.238 449.408 60.947C447.634 62.329 445.959 63.942 444.382 65.795L440.953 66.564C443.989 62.463 447.362 59.255 451.072 56.93C454.781 54.604 457.699 53.441 459.831 53.441C460.738 53.441 461.418 53.668 461.873 54.122C462.323 54.574 462.552 55.156 462.552 55.866C462.552 57.799 461.448 61.01 459.24 65.505C458.964 66.057 458.312 67.478 457.286 69.761C454.999 74.7657 452.47 79.6562 449.708 84.415C448.84 85.915 447.894 87.686 446.866 89.735C446.402 90.675 445.909 91.6004 445.388 92.51C444.163 94.562 443.553 96.078 443.553 97.063C443.553 97.339 443.662 97.587 443.878 97.803C444.096 98.018 444.361 98.127 444.678 98.127C445.112 98.127 445.771 97.891 446.66 97.418C448.14 96.632 449.907 95.32 451.963 93.486C454.036 91.6304 455.86 89.5149 457.391 87.192H459.998C458.801 89.32 457.038 91.764 454.707 94.522C452.378 97.281 449.729 99.486 446.759 101.141C444.535 102.402 442.554 103.033 440.823 103.033C439.503 103.033 438.536 102.766 437.916 102.235C437.297 101.702 436.988 101.004 436.988 100.137C436.988 97.103 439.218 91.388 443.672 82.996L453.194 65.027C454.18 63.175 454.872 61.717 455.264 60.653C455.503 59.983 455.621 59.531 455.621 59.292C455.621 59.095 455.521 58.743 455.324 58.228Z" fill="#231F20"/>
<path d="M458.695 31.689C458.695 30.309 459.226 29.078 460.291 27.993C461.355 26.911 462.601 26.368 464.018 26.368C465.359 26.368 466.503 26.841 467.449 27.787C468.396 28.733 468.869 29.818 468.869 31.037C468.869 32.613 468.278 34.053 467.094 35.354C466.385 36.102 465.083 36.476 463.19 36.476C461.928 36.476 460.864 36.042 459.998 35.175C459.128 34.308 458.695 33.147 458.695 31.689ZM455.324 58.228C454.496 58.228 453.886 58.288 453.491 58.404C451.635 59.392 450.276 60.238 449.408 60.947C447.634 62.329 445.959 63.942 444.382 65.795L440.953 66.564C443.989 62.463 447.362 59.255 451.072 56.93C454.781 54.604 457.699 53.441 459.831 53.441C460.738 53.441 461.418 53.668 461.873 54.122C462.323 54.574 462.552 55.156 462.552 55.866C462.552 57.799 461.448 61.01 459.24 65.505C458.964 66.057 458.312 67.478 457.286 69.761C454.999 74.7657 452.47 79.6562 449.708 84.415C448.84 85.915 447.894 87.686 446.866 89.735C446.402 90.675 445.909 91.6004 445.388 92.51C444.163 94.562 443.553 96.078 443.553 97.063C443.553 97.339 443.662 97.587 443.878 97.803C444.096 98.018 444.361 98.127 444.678 98.127C445.112 98.127 445.771 97.891 446.66 97.418C448.14 96.632 449.907 95.32 451.963 93.486C454.036 91.6304 455.86 89.5149 457.391 87.192H459.998C458.801 89.32 457.038 91.764 454.707 94.522C452.378 97.281 449.729 99.486 446.759 101.141C444.535 102.402 442.554 103.033 440.823 103.033C439.503 103.033 438.536 102.766 437.916 102.235C437.297 101.702 436.988 101.004 436.988 100.137C436.988 97.103 439.218 91.388 443.672 82.996L453.194 65.027C454.18 63.175 454.872 61.717 455.264 60.653C455.503 59.983 455.621 59.531 455.621 59.292C455.621 59.095 455.521 58.743 455.324 58.228Z" stroke="#231F20" stroke-width="0.667" stroke-miterlimit="10"/>
<path d="M489.097 25.304L489.275 23.591C494.107 23.197 497.77 23 500.266 23H502.881V23.793L501.048 29.526C500.969 29.684 499.529 33.33 496.729 40.461L488.739 61.267C487.317 65.167 484.953 71.196 481.638 79.35L479.685 84.494C478.307 88.236 477.201 90.758 476.373 92.061C475.071 94.18 474.422 95.751 474.422 96.771L474.656 97.713C475.948 97.597 477.544 96.709 479.449 95.054C482.232 92.728 484.759 89.754 487.03 86.128C487.763 85.971 488.331 85.892 488.735 85.892L489.394 85.95C487.916 88.827 486.327 91.173 484.622 92.983C481.933 95.823 480.077 97.615 479.057 98.364C476.783 100.098 474.607 101.417 472.524 102.326C471.199 102.917 469.893 103.209 468.606 103.209C467.924 103.209 467.411 103.033 467.073 102.678C466.732 102.326 466.562 101.869 466.562 101.32C466.562 99.468 469.717 91.328 476.025 76.909C477.957 72.534 479.968 67.529 482.058 61.893C485.726 52.043 488.544 45.028 490.516 40.851C492.488 36.673 493.926 32.911 494.836 29.561C494.915 29.22 494.952 28.935 494.952 28.71C494.952 28.142 494.676 27.613 494.126 27.12C493.414 26.514 491.739 25.909 489.097 25.304Z" fill="#231F20"/>
<path d="M489.097 25.304L489.275 23.591C494.107 23.197 497.77 23 500.266 23H502.881V23.793L501.048 29.526C500.969 29.684 499.529 33.33 496.729 40.461L488.739 61.267C487.317 65.167 484.953 71.196 481.638 79.35L479.685 84.494C478.307 88.236 477.201 90.758 476.373 92.061C475.071 94.18 474.422 95.751 474.422 96.771L474.656 97.713C475.948 97.597 477.544 96.709 479.449 95.054C482.232 92.728 484.759 89.754 487.03 86.128C487.763 85.971 488.331 85.892 488.735 85.892L489.394 85.95C487.916 88.827 486.327 91.173 484.622 92.983C481.933 95.823 480.077 97.615 479.057 98.364C476.783 100.098 474.607 101.417 472.524 102.326C471.199 102.917 469.893 103.209 468.606 103.209C467.924 103.209 467.411 103.033 467.073 102.678C466.732 102.326 466.562 101.869 466.562 101.32C466.562 99.468 469.717 91.328 476.025 76.909C477.957 72.534 479.968 67.529 482.058 61.893C485.726 52.043 488.544 45.028 490.516 40.851C492.488 36.673 493.926 32.911 494.836 29.561C494.915 29.22 494.952 28.935 494.952 28.71C494.952 28.142 494.676 27.613 494.126 27.12C493.414 26.514 491.739 25.909 489.097 25.304Z" stroke="#231F20" stroke-width="0.667" stroke-miterlimit="10"/>
<path d="M515.595 25.304L515.774 23.591C520.606 23.197 524.269 23 526.765 23H529.379V23.793L527.547 29.526C527.468 29.684 526.027 33.33 523.227 40.461L515.238 61.267C513.816 65.167 511.452 71.196 508.137 79.35L506.184 84.494C504.806 88.236 503.699 90.758 502.871 92.061C501.57 94.18 500.92 95.751 500.92 96.771L501.155 97.713C502.447 97.597 504.043 96.709 505.947 95.054C508.731 92.728 511.257 89.754 513.528 86.128C514.261 85.971 514.83 85.892 515.233 85.892L515.892 85.95C514.414 88.827 512.825 91.173 511.12 92.983C508.432 95.823 506.576 97.615 505.555 98.364C503.282 100.098 501.106 101.417 499.023 102.326C497.698 102.917 496.392 103.209 495.105 103.209C494.423 103.209 493.91 103.033 493.571 102.678C493.23 102.326 493.061 101.869 493.061 101.32C493.061 99.468 496.216 91.328 502.523 76.909C504.456 72.534 506.467 67.529 508.557 61.893C512.225 52.043 515.043 45.028 517.015 40.851C518.987 36.673 520.425 32.911 521.334 29.561C521.413 29.22 521.45 28.935 521.45 28.71C521.45 28.142 521.174 27.613 520.625 27.12C519.912 26.514 518.237 25.909 515.595 25.304Z" fill="#231F20"/>
<path d="M515.595 25.304L515.774 23.591C520.606 23.197 524.269 23 526.765 23H529.379V23.793L527.547 29.526C527.468 29.684 526.027 33.33 523.227 40.461L515.238 61.267C513.816 65.167 511.452 71.196 508.137 79.35L506.184 84.494C504.806 88.236 503.699 90.758 502.871 92.061C501.57 94.18 500.92 95.751 500.92 96.771L501.155 97.713C502.447 97.597 504.043 96.709 505.947 95.054C508.731 92.728 511.257 89.754 513.528 86.128C514.261 85.971 514.83 85.892 515.233 85.892L515.892 85.95C514.414 88.827 512.825 91.173 511.12 92.983C508.432 95.823 506.576 97.615 505.555 98.364C503.282 100.098 501.106 101.417 499.023 102.326C497.698 102.917 496.392 103.209 495.105 103.209C494.423 103.209 493.91 103.033 493.571 102.678C493.23 102.326 493.061 101.869 493.061 101.32C493.061 99.468 496.216 91.328 502.523 76.909C504.456 72.534 506.467 67.529 508.557 61.893C512.225 52.043 515.043 45.028 517.015 40.851C518.987 36.673 520.425 32.911 521.334 29.561C521.413 29.22 521.45 28.935 521.45 28.71C521.45 28.142 521.174 27.613 520.625 27.12C519.912 26.514 518.237 25.909 515.595 25.304Z" stroke="#231F20" stroke-width="0.667" stroke-miterlimit="10"/>
<path d="M529.613 77.32C530.875 77.362 532.847 76.868 535.529 75.843C536.988 75.292 538.92 74.209 541.326 72.593C542.272 71.96 543.356 70.889 544.578 69.371C545.801 67.855 546.726 66.276 547.357 64.642C547.988 63.007 548.306 61.324 548.306 59.59C548.306 58.445 547.97 57.499 547.299 56.75C546.629 56.004 545.88 55.628 545.052 55.628C543.987 55.628 542.725 56.238 541.266 57.462C538.821 59.59 536.257 63.156 533.578 68.158C531.567 71.981 530.244 75.037 529.613 77.32ZM528.607 80.336C527.308 83.911 526.658 87.523 526.658 91.179C526.658 93.849 527.287 95.991 528.549 97.6C529.377 98.701 530.502 99.251 531.922 99.251C532.787 99.251 533.557 99.075 534.227 98.72C535.687 97.976 536.937 97.092 537.983 96.075C539.029 95.052 540.122 93.719 541.266 92.073C542.409 90.425 543.337 88.582 544.047 86.542H544.873C545.346 86.542 545.88 86.582 546.471 86.66C545.288 91.058 542.37 95.377 537.716 99.619C534.798 102.251 531.782 103.565 528.669 103.565C526.577 103.565 524.802 102.619 523.345 100.73C521.413 98.245 520.446 94.818 520.446 90.444C520.446 88.552 520.731 86.285 521.304 83.647C521.875 81.006 522.536 78.799 523.285 77.026C524.433 74.3403 525.756 71.7333 527.247 69.222L531.801 62.602C534.761 59.451 536.417 57.717 536.77 57.402C538.153 56.217 539.54 55.325 540.941 54.713C542.31 54.1075 543.791 53.7955 545.288 53.797C547.221 53.797 548.914 54.606 550.375 56.224C551.832 57.844 552.565 59.88 552.565 62.326C552.565 64.5 552.002 66.642 550.879 68.754C549.754 70.868 548.541 72.419 547.241 73.405L542.33 76.601C541.778 76.882 540.298 77.383 537.895 78.115C535.489 78.846 532.393 79.587 528.607 80.336Z" fill="#231F20"/>
<path d="M529.613 77.32C530.875 77.362 532.847 76.868 535.529 75.843C536.988 75.292 538.92 74.209 541.326 72.593C542.272 71.96 543.356 70.889 544.578 69.371C545.801 67.855 546.726 66.276 547.357 64.642C547.988 63.007 548.306 61.324 548.306 59.59C548.306 58.445 547.97 57.499 547.299 56.75C546.629 56.004 545.88 55.628 545.052 55.628C543.987 55.628 542.725 56.238 541.266 57.462C538.821 59.59 536.257 63.156 533.578 68.158C531.567 71.981 530.244 75.037 529.613 77.32ZM528.607 80.336C527.308 83.911 526.658 87.523 526.658 91.179C526.658 93.849 527.287 95.991 528.549 97.6C529.377 98.701 530.502 99.251 531.922 99.251C532.787 99.251 533.557 99.075 534.227 98.72C535.687 97.976 536.937 97.092 537.983 96.075C539.029 95.052 540.122 93.719 541.266 92.073C542.409 90.425 543.337 88.582 544.047 86.542H544.873C545.346 86.542 545.88 86.582 546.471 86.66C545.288 91.058 542.37 95.377 537.716 99.619C534.798 102.251 531.782 103.565 528.669 103.565C526.577 103.565 524.802 102.619 523.345 100.73C521.413 98.245 520.446 94.818 520.446 90.444C520.446 88.552 520.731 86.285 521.304 83.647C521.875 81.006 522.536 78.799 523.285 77.026C524.433 74.3403 525.756 71.7333 527.247 69.222L531.801 62.602C534.761 59.451 536.417 57.717 536.77 57.402C538.153 56.217 539.54 55.325 540.941 54.713C542.31 54.1075 543.791 53.7955 545.288 53.797C547.221 53.797 548.914 54.606 550.375 56.224C551.832 57.844 552.565 59.88 552.565 62.326C552.565 64.5 552.002 66.642 550.879 68.754C549.754 70.868 548.541 72.419 547.241 73.405L542.33 76.601C541.778 76.882 540.298 77.383 537.895 78.115C535.489 78.846 532.393 79.587 528.607 80.336Z" stroke="#231F20" stroke-width="0.667" stroke-miterlimit="10"/>
<path d="M556.409 91.5081C558.38 91.5081 559.995 93.0241 561.259 96.0591C561.888 97.5561 562.5 98.5421 563.092 99.0121C563.642 99.5271 564.372 99.782 565.279 99.782C566.975 99.782 568.592 98.994 570.13 97.415C571.313 96.233 571.905 94.4171 571.905 91.9691C571.905 90.0781 571.234 87.2381 569.891 83.4471C568.001 77.9651 567.054 73.6641 567.054 70.5461C567.054 66.0101 568.277 61.9851 570.722 58.4731C573.167 54.9611 577.031 53.2061 582.314 53.2061C584.564 53.2061 586.355 53.816 587.696 55.037C589.036 56.259 589.707 57.738 589.707 59.47C589.707 60.652 589.382 61.6101 588.732 62.3371C588.081 63.0651 587.343 63.4321 586.515 63.4321C584.777 63.4321 583.223 62.5921 581.843 60.9191C580.46 59.2431 579.535 58.2691 579.061 57.9931C578.59 57.7541 577.857 57.638 576.871 57.638C575.77 57.638 574.793 58.1111 573.946 59.0591C573.095 60.0051 572.675 61.1511 572.675 62.4931C572.673 65.6921 573.624 70.1411 575.526 75.8371C577.43 81.5351 578.372 85.9631 578.351 89.1201C578.351 91.1351 577.73 93.177 576.489 95.247C575.245 97.322 573.313 99.077 570.692 100.519C568.068 101.959 565.377 102.677 562.619 102.677C559.306 102.677 556.831 101.97 555.195 100.549C553.558 99.133 552.741 97.438 552.741 95.468C552.741 94.285 553.075 93.3301 553.748 92.6021C554.416 91.8721 555.302 91.5081 556.409 91.5081Z" fill="#231F20"/>
<path d="M556.409 91.5081C558.38 91.5081 559.995 93.0241 561.259 96.0591C561.888 97.5561 562.5 98.5421 563.092 99.0121C563.642 99.5271 564.372 99.782 565.279 99.782C566.975 99.782 568.592 98.994 570.13 97.415C571.313 96.233 571.905 94.4171 571.905 91.9691C571.905 90.0781 571.234 87.2381 569.891 83.4471C568.001 77.9651 567.054 73.6641 567.054 70.5461C567.054 66.0101 568.277 61.9851 570.722 58.4731C573.167 54.9611 577.031 53.2061 582.314 53.2061C584.564 53.2061 586.355 53.816 587.696 55.037C589.036 56.259 589.707 57.738 589.707 59.47C589.707 60.652 589.382 61.6101 588.732 62.3371C588.081 63.0651 587.343 63.4321 586.515 63.4321C584.777 63.4321 583.223 62.5921 581.843 60.9191C580.46 59.2431 579.535 58.2691 579.061 57.9931C578.59 57.7541 577.857 57.638 576.871 57.638C575.77 57.638 574.793 58.1111 573.946 59.0591C573.095 60.0051 572.675 61.1511 572.675 62.4931C572.673 65.6921 573.624 70.1411 575.526 75.8371C577.43 81.5351 578.372 85.9631 578.351 89.1201C578.351 91.1351 577.73 93.177 576.489 95.247C575.245 97.322 573.313 99.077 570.692 100.519C568.068 101.959 565.377 102.677 562.619 102.677C559.306 102.677 556.831 101.97 555.195 100.549C553.558 99.133 552.741 97.438 552.741 95.468C552.741 94.285 553.075 93.3301 553.748 92.6021C554.416 91.8721 555.302 91.5081 556.409 91.5081Z" stroke="#231F20" stroke-width="0.667" stroke-miterlimit="10"/>
<path d="M60.8382 4.95271C59.3686 5.45882 57.8428 5.70296 56.6413 6.46185C54.816 7.61397 53.5534 6.46563 52.1038 5.84447C51.6346 5.64462 51.1244 5.52795 50.6779 5.28813C49.9737 4.91004 49.0008 4.60216 48.7246 3.9972C48.51 3.52782 48.9878 2.32332 49.5007 2.0176C51.2546 0.974052 53.161 -0.430307 55.2246 0.126035C57.1055 0.632685 59.1605 0.510073 60.8917 2.1791C62.5105 3.73956 63.5088 5.20063 63.9936 7.39089C64.3936 9.19387 65.1184 11.0287 66.875 12.2953C67.6361 12.8452 67.936 14.2112 68.1668 15.2672C68.449 16.5635 68.4273 17.9247 68.5592 19.2539C68.6646 20.3083 68.7246 21.2703 67.8193 22.1367C66.4302 23.4654 66.8615 25.311 66.7275 26.9784C66.6832 27.5132 66.7199 28.0544 66.7199 28.6691H64.9433C64.9433 27.9118 64.9892 27.174 64.9357 26.4437C64.6093 22.04 64.5141 17.5973 63.8185 13.2525C63.4434 10.9169 63.0348 8.37124 61.343 6.39812C61.1366 6.15613 61.1101 5.75805 60.8382 4.95271ZM47.0323 6.55746C46.8945 7.56049 46.795 8.50411 46.6296 9.43693C46.1432 12.1895 45.7297 14.962 45.0989 17.6827C44.4503 20.4827 45.1805 23.1283 45.5729 25.842C45.7243 26.8812 46.1334 28.1846 44.8541 28.9726C44.5546 29.1563 44.106 29.4571 43.905 29.3545C43.6244 29.2103 43.3672 28.7458 43.351 28.4066C43.2883 27.1092 43.3261 25.8069 43.3261 24.6256C42.3164 23.6868 41.2468 22.9307 40.5188 21.9276C40.0496 21.2816 39.9118 20.271 39.9242 19.4268C39.9442 18.0608 40.3934 16.6899 40.3231 15.3379C40.2442 13.7948 40.5285 12.6653 42.1397 12.2446C43.7596 11.8211 43.9817 10.454 44.2347 9.16578C44.4855 7.88944 45.5351 6.70005 47.0323 6.55692V6.55746ZM57.9049 24.025L61.1036 25.1684C61.0533 25.748 61.0122 26.2352 60.9658 26.7673C59.8513 26.9876 58.7627 27.1291 57.732 27.4532C57.4374 27.5472 57.1655 28.1624 57.1401 28.5551C57.0963 29.2017 57.2634 29.8622 57.3471 30.5714H54.3793C54.5209 29.8649 54.729 29.2389 54.7403 28.6107C54.7468 28.2262 54.5549 27.7017 54.2663 27.4786C53.8236 27.1356 53.221 26.9979 52.6226 26.7462C53.3588 23.9926 55.9981 25.8517 57.7682 24.4031C56.8153 24.2616 56.2186 24.1103 55.6192 24.1006C54.5636 24.0828 53.7388 23.8424 53.582 22.6206C53.4264 21.4053 53.835 20.7696 55.1716 20.6632C55.6343 20.6264 56.1235 20.0128 56.4672 19.5613C57.0223 18.831 57.5601 18.6457 58.1168 19.457C58.8405 20.5103 59.8626 21.5636 58.3752 22.8432C58.0909 23.0884 58.0557 23.622 57.9049 24.025Z" fill="#231F20"/>
<path d="M60.8771 9.90631C61.0003 10.7527 61.063 11.1897 61.1457 11.7655C60.4312 11.9837 59.7561 12.2926 59.0529 12.3828C57.2963 12.6081 57.2914 12.5681 57.1282 14.5067C57.9573 14.9485 58.9827 15.2704 58.4989 16.698C58.1065 17.8571 57.3968 17.5919 56.4439 17.4429V14.0184C55.8418 13.7078 54.7997 12.9165 54.5868 13.098C53.2939 14.1961 53.3253 14.9388 54.3749 16.1795C54.3609 16.227 54.3625 16.2945 54.3311 16.3172C53.8133 16.6953 53.2901 17.0675 52.7702 17.4418C52.5318 16.5225 51.3784 15.7009 52.4718 14.6304C52.5556 14.5493 52.5253 14.3511 52.568 14.0756C51.2654 13.2654 48.236 14.5477 48.897 10.9428L60.8771 9.90631Z" fill="#231F20"/>
<path d="M120.006 37.1217C120.527 31.2563 123.66 31.2563 123.66 31.2563L123.921 42.9865C123.921 42.9865 119.484 42.9865 120.006 37.1217ZM123.182 53.8379C123.113 54.1312 122.221 54.3137 121.68 54.3877C120.992 54.4806 120.228 54.2489 119.595 54.4569C118.861 54.6956 117.771 55.1601 117.654 55.7051C117.362 57.0501 116.553 57.9651 115.536 58.4809C114.775 58.8682 113.582 58.8142 112.726 58.5263C110.928 57.9192 109.228 57.0225 107.481 56.2599C106.718 55.9266 105.963 55.5323 105.162 55.3395C103.807 55.0127 104.291 54.2176 104.589 53.3237C107.78 53.3237 111.005 53.3107 114.229 53.3345C114.759 53.3383 115.353 53.3723 115.806 53.6067C117.139 54.2954 117.74 54.1949 118.278 52.8527C118.453 52.4206 118.514 51.9523 118.251 51.6428C119.506 51.3862 120.905 51.2258 122.064 51.4186C122.319 51.6228 122.555 51.8432 122.738 52.0938C123.08 52.5594 123.307 53.3123 123.182 53.8379ZM111.088 64.3511C109.691 63.9368 108.374 63.0742 107.203 62.1673C106.603 61.7028 106.384 60.7452 105.881 59.7983C108.778 59.4488 110.748 60.7938 112.874 61.4776C113.357 61.6326 113.602 62.5244 114.011 63.1644C112.763 63.7078 111.768 64.5542 111.088 64.3511ZM110.239 43.1145C105.93 43.1631 106.172 36.5405 106.172 36.5405L112.056 36.3115V42.7931C111.539 42.9865 110.944 43.107 110.239 43.1145ZM116.622 50.5749C117.962 50.0061 119.801 50.1817 121.207 50.8828L116.442 50.8931C116.508 50.7278 116.557 50.6025 116.622 50.5749ZM93.1189 37.139L101.832 36.8009C102.025 39.75 101.493 43.6655 97.185 43.713C92.8767 43.7616 93.1189 37.139 93.1189 37.139ZM90.1548 54.0021C87.4566 54.4731 86.1762 54.0734 85.7038 52.6512C85.5216 52.104 85.7838 51.841 87.7387 50.596C88.5684 51.3063 89.3873 52.0047 90.3666 52.8429C90.3066 53.1768 90.2272 53.604 90.1548 54.0021ZM64.6681 69.7719C63.3239 71.2795 61.2149 71.5765 56.2623 71.7116L67.2647 38.8761L67.262 38.9058C67.262 38.9058 67.2458 39.0273 67.216 39.2326C67.6857 48.6617 66.5275 64.0508 64.6681 69.7719ZM55.8375 81.0468C55.3013 81.0468 54.787 80.834 54.4077 80.4552C54.0285 80.0764 53.8152 79.5625 53.815 79.0267C53.815 78.4905 54.0281 77.9762 54.4075 77.5971C54.7869 77.2179 55.3015 77.0049 55.838 77.0049C56.3746 77.0049 56.8892 77.2179 57.2686 77.5971C57.648 77.9762 57.8611 78.4905 57.8611 79.0267C57.8607 79.5627 57.6473 80.0766 57.2678 80.4554C56.8883 80.8342 56.3739 81.0469 55.8375 81.0468ZM55.8375 88.9355C55.3011 88.9354 54.7868 88.7224 54.4075 88.3434C54.0282 87.9643 53.8151 87.4503 53.815 86.9143C53.815 86.3781 54.0281 85.8639 54.4075 85.4847C54.7869 85.1056 55.3015 84.8926 55.838 84.8926C56.3746 84.8926 56.8892 85.1056 57.2686 85.4847C57.648 85.8639 57.8611 86.3781 57.8611 86.9143C57.8607 87.4504 57.6473 87.9644 57.2679 88.3434C56.8884 88.7224 56.374 88.9354 55.8375 88.9355ZM55.8375 98.0347C55.3013 98.0347 54.7871 97.8218 54.4079 97.4429C54.0288 97.064 53.8158 96.5501 53.8158 96.0143C53.8158 95.4784 54.0288 94.9645 54.4079 94.5857C54.7871 94.2068 55.3013 93.9939 55.8375 93.9939C56.374 93.994 56.8884 94.207 57.2679 94.586C57.6473 94.965 57.8607 95.479 57.8611 96.0151C57.8607 96.551 57.6473 97.0649 57.2678 97.4436C56.8883 97.8224 56.3738 98.0349 55.8375 98.0347ZM44.4649 67.5595C43.1509 64.3862 42.5969 60.1078 42.5969 56.544C42.5969 52.5334 42.4991 45.5349 42.4299 41.1112C45.1297 49.2813 50.7238 65.8678 52.7091 71.7467C48.5073 71.6392 45.9745 69.7633 44.4649 67.5595ZM14.0981 110.576C13.9403 111.774 13.5555 113.016 12.9458 114.048C12.7004 114.463 11.5708 114.555 10.88 114.475C9.1823 114.279 7.74025 114.511 6.56251 115.888C6.19281 115.541 5.39774 115.12 5.7015 114.448C6.22795 113.276 7.57702 113.511 6.63926 112.282C5.76419 111.135 1.78073 107.236 2.24826 103.105C2.32231 103.09 2.39257 103.073 2.47419 103.067C5.75555 102.829 9.04556 102.72 12.3339 102.603C12.6312 102.592 13.129 102.803 13.2095 103.027C13.583 104.072 13.9916 105.14 14.1057 106.229C14.2565 107.665 14.2862 109.148 14.0981 110.576ZM138.409 50.8055C134.999 50.8055 131.589 50.7877 128.179 50.8115C127.133 50.8191 126.61 50.4269 126.569 49.3342C126.411 45.0552 126.156 40.779 126.051 36.5005C125.963 32.8957 126.035 29.2881 126.029 25.6816C126.029 25.2835 126.149 24.7498 125.943 24.5095C124.846 23.2348 123.813 21.899 122.267 21.0564C121.79 20.7955 121.357 20.0182 121.329 19.4576C121.22 17.3084 121.3 15.1521 121.271 12.9986C121.266 12.5762 121.154 11.8238 120.984 11.7925C119.984 11.6023 118.909 11.3857 117.946 11.5883C117.497 11.6834 116.987 12.6864 116.95 13.3049C116.826 15.4011 116.923 17.5088 116.89 19.6126C116.873 20.7555 116.628 21.8201 115.312 22.188C113.329 22.7416 112.093 24.3345 112.092 26.3616C112.09 29.2038 112.092 32.0514 112.092 35.067L104.329 35.3684C104.329 35.3684 104.039 43.45 108.962 44.3304C109.079 44.3893 109.192 44.4578 109.313 44.5086C110.235 44.8867 110.328 45.4647 110.289 46.2549C110.266 46.7043 110.284 47.1569 110.284 47.6074C110.284 48.1259 110.29 48.5213 110.308 48.8659C110.159 49.3731 109.763 50.3421 108.902 50.9093L98.8265 50.9309V44.9434C99.1357 44.8746 99.4391 44.7819 99.734 44.6663C100.001 44.6393 100.231 44.5891 100.369 44.4503C100.425 44.3936 100.476 44.3347 100.531 44.2785C103.348 42.5857 103.734 38.7259 103.53 35.6336L94.6512 35.9777C94.4528 35.9815 94.2534 35.989 94.0528 36.0015L91.5417 36.0992C91.5417 36.0992 91.252 44.325 96.3224 45.0736C96.5294 45.4117 96.6959 45.7585 96.7877 46.109C97.205 47.6971 96.8915 49.4763 96.8915 51.2668L90.2575 49.069C92.2097 45.1001 90.8947 41.5665 89.2721 37.1098C89.2154 36.6842 89.1143 36.2823 88.8781 36.0231C87.0939 31.0403 80.8112 32.0033 73.435 32.6407C72.8897 32.6142 72.2465 32.6985 71.8211 32.443C70.3817 31.5815 69.0981 31.7641 67.8317 32.752L67.8165 32.6321L67.7614 32.7887C67.6836 32.8146 67.5106 32.8849 67.7133 32.9291L55.0965 69.3998L56.0142 44.4438C57.3444 45.745 59.4999 47.925 60.6895 47.0759C62.1565 46.0291 62.5753 41.2143 62.5753 41.2143C62.5753 41.2143 59.4318 40.1675 57.7541 40.1675C56.078 40.1675 55.4483 38.7027 52.7242 40.1675C52.7242 40.1675 47.2749 41.0047 47.2749 43.0978C47.2749 45.1914 48.1122 47.703 49.9996 46.6562C51.2806 45.9448 52.7556 44.4633 53.8977 43.8475L53.8852 69.2658L42.4586 36.8241C42.3834 35.612 42.2932 34.1385 42.2256 32.9988C41.857 32.4765 41.4154 32.2226 40.8225 32.1778L40.7987 32.1098L40.7998 32.1773C40.3074 32.1449 39.7118 32.2513 38.9507 32.4879C38.9507 32.4879 4.16432 32.671 0.348946 67.0545C0.11177 67.6174 -0.00654223 68.2231 0.00141174 68.8337C0.0116812 70.3088 0.00897659 71.784 0.0127601 73.2585C0.0127601 73.4492 -0.0023794 73.6242 0.000323089 73.816C0.00248508 74.3194 0.010059 74.799 0.017626 75.277C0.0203285 78.7885 0.0165456 82.301 0.0165456 85.8119V102.715C0.138158 102.814 0.30841 102.891 0.48299 102.963C0.324391 103.719 0.203889 104.482 0.121938 105.25C0.04015 105.53 0.00240252 105.82 0.0100549 106.111C0.0300534 107.713 -0.0348024 109.319 0.0478937 110.917C0.0727566 111.401 0.431645 111.891 0.704596 112.336C1.18888 113.128 1.83478 113.838 2.21421 114.672C2.78497 115.923 3.05684 117.319 3.69625 118.525C4.27945 119.623 6.81222 119.837 7.37541 118.842C8.27913 117.243 9.6574 117.002 11.2081 117.107C13.2631 117.246 14.7667 116.177 16.1499 114.919C16.5568 114.549 16.819 113.826 16.8341 113.256C16.9033 110.552 16.8882 107.846 16.8503 105.143C16.8406 104.359 17.2206 103.41 16.1331 102.899C16.0255 102.849 16.1774 102.116 16.3077 101.732C16.4131 101.418 16.7876 101.169 16.8303 100.862C17.0438 99.2943 17.2757 97.7203 17.3368 96.1409C17.4211 93.9912 17.3422 91.835 17.3644 89.6809C17.3795 88.2295 17.3244 86.7609 17.5249 85.3322C17.7622 83.6567 18.2437 82.0163 18.6161 80.3613C18.6713 80.1183 18.6724 79.859 18.7551 79.6273C19.3896 77.8594 20.0074 76.0835 20.6998 74.3366C20.9641 73.6685 21.4084 73.0711 21.7905 72.4073C23.1136 73.325 23.5336 74.1579 23.5212 75.4099C23.4531 82.0201 23.4233 88.633 23.5147 95.2421C23.5222 95.7515 23.5595 96.2576 23.5849 96.7659C23.5747 96.9112 23.5595 97.0376 23.5536 97.2029C23.3466 102.586 23.733 126.126 23.733 126.126L25.6864 124.955L25.9107 100.375L30.9335 100.222C30.9335 100.222 47.2312 113.323 48.7332 113.843C50.2363 114.362 54.6284 104.782 56.1305 105.417C57.6341 106.052 62.9504 114.998 64.4536 114.478C65.9556 113.958 78.7859 99.587 79.9988 99.6448C80.8177 99.6837 84.145 99.8274 86.2329 99.9165L89.5489 101.032C89.4164 100.604 89.4791 99.0588 89.3975 98.6202C89.2797 97.9893 89.4013 97.3168 89.3224 96.6746C89.0403 94.3817 88.6738 92.098 88.4257 89.8013C88.2063 87.7791 88.1484 85.7379 87.9306 83.7145C87.7198 81.7673 87.395 79.8326 87.1231 77.908C87.1831 77.8956 87.2258 77.8843 87.2772 77.8719C88.4322 80.2398 90.6099 83.4466 94.0166 83.708C98.7022 84.0678 103.934 86.5832 108.338 80.2382C108.473 80.068 108.6 79.8828 108.713 79.6748C109.3 78.7496 109.871 77.6666 110.423 76.3805C111.235 74.9529 112.108 73.5583 112.888 72.1129C113.604 70.7869 113.96 69.154 114.954 68.1148C116.651 66.3442 117.427 64.3571 117.436 62.0242C117.446 59.3311 119.629 58.4804 121.34 57.2272C121.617 57.0242 122.094 57.1144 122.441 56.9782C123.169 56.6925 123.992 56.4824 124.561 55.9914C125.317 55.3389 125.804 54.3796 126.533 53.6872C126.938 53.3015 127.599 52.9947 128.151 52.9834C131.56 52.9207 134.971 52.951 138.381 52.9521C139.167 52.9521 139.977 52.9337 139.999 51.868C140.025 50.7483 139.182 50.8045 138.409 50.8055Z" fill="#231F20"/>
<path d="M87.0577 98.9734C87.1442 99.2316 88.8619 125.143 89.4635 126.43C90.0639 127.717 90.4077 126.517 90.4077 125.83C90.4077 125.143 89.2916 97.858 89.2916 97.858L87.0577 98.9734Z" fill="#231F20"/>
</svg>
