<svg width="260" height="236" viewBox="0 0 260 236" fill="none" xmlns="http://www.w3.org/2000/svg">
<path d="M112.56 9.16934C109.841 10.1063 107.018 10.5583 104.795 11.9633C101.418 14.0963 99.0817 11.9703 96.3997 10.8203C95.5317 10.4503 94.5877 10.2343 93.7617 9.79034C92.4587 9.09034 90.6587 8.52034 90.1477 7.40034C89.7507 6.53134 90.6346 4.30134 91.5836 3.73534C94.8286 1.80334 98.3557 -0.796661 102.174 0.233339C105.654 1.17134 109.456 0.944339 112.659 4.03434C115.654 6.92334 117.501 9.62834 118.398 13.6833C119.138 17.0213 120.479 20.4183 123.729 22.7633C125.137 23.7813 125.692 26.3103 126.119 28.2653C126.641 30.6653 126.601 33.1853 126.845 35.6463C127.04 37.5983 127.151 39.3793 125.476 40.9833C122.906 43.4433 123.704 46.8603 123.456 49.9473C123.374 50.9373 123.442 51.9393 123.442 53.0773H120.155C120.155 51.6753 120.24 50.3093 120.141 48.9573C119.537 40.8043 119.361 32.5793 118.074 24.5353C117.38 20.2113 116.624 15.4983 113.494 11.8453C113.112 11.3973 113.063 10.6603 112.56 9.16934ZM87.0167 12.1403C86.7617 13.9973 86.5777 15.7443 86.2717 17.4713C85.3717 22.5673 84.6067 27.7003 83.4397 32.7373C82.2397 37.9213 83.5907 42.8193 84.3167 47.8433C84.5967 49.7673 85.3537 52.1803 82.9867 53.6393C82.4327 53.9793 81.6027 54.5363 81.2307 54.3463C80.7117 54.0793 80.2357 53.2193 80.2057 52.5913C80.0897 50.1893 80.1597 47.7783 80.1597 45.5913C78.2917 43.8533 76.3127 42.4533 74.9657 40.5963C74.0977 39.4003 73.8427 37.5293 73.8657 35.9663C73.9027 33.4373 74.7337 30.8993 74.6037 28.3963C74.4577 25.5393 74.9837 23.4483 77.9647 22.6693C80.9617 21.8853 81.3727 19.3543 81.8407 16.9693C82.3047 14.6063 84.2467 12.4043 87.0167 12.1393V12.1403ZM107.133 44.4793L113.051 46.5963C112.958 47.6693 112.882 48.5713 112.796 49.5563C110.734 49.9643 108.72 50.2263 106.813 50.8263C106.268 51.0003 105.765 52.1393 105.718 52.8663C105.637 54.0633 105.946 55.2863 106.101 56.5993H100.61C100.872 55.2913 101.257 54.1323 101.278 52.9693C101.29 52.2573 100.935 51.2863 100.401 50.8733C99.5817 50.2383 98.4666 49.9833 97.3596 49.5173C98.7216 44.4193 103.605 47.8613 106.88 45.1793C105.117 44.9173 104.013 44.6373 102.904 44.6193C100.951 44.5863 99.4247 44.1413 99.1347 41.8793C98.8467 39.6293 99.6027 38.4523 102.076 38.2553C102.932 38.1873 103.837 37.0513 104.473 36.2153C105.5 34.8633 106.495 34.5203 107.525 36.0223C108.864 37.9723 110.755 39.9223 108.003 42.2913C107.477 42.7453 107.412 43.7333 107.133 44.4793Z" fill="#231F20"/>
<path d="M112.632 18.3403C112.86 19.9073 112.976 20.7163 113.129 21.7823C111.807 22.1863 110.558 22.7583 109.257 22.9253C106.007 23.3423 105.998 23.2683 105.696 26.8573C107.23 27.6753 109.127 28.2713 108.232 30.9143C107.506 33.0603 106.193 32.5693 104.43 32.2933V25.9533C103.316 25.3783 101.388 23.9133 100.994 24.2493C98.6016 26.2823 98.6596 27.6573 100.602 29.9543C100.576 30.0423 100.579 30.1673 100.521 30.2093C99.5626 30.9093 98.5946 31.5983 97.6326 32.2913C97.1916 30.5893 95.0576 29.0683 97.0806 27.0863C97.2356 26.9363 97.1796 26.5693 97.2586 26.0593C94.8486 24.5593 89.2436 26.9333 90.4666 20.2593L112.632 18.3403Z" fill="#231F20"/>
<path d="M222.029 68.7263C222.994 57.8673 228.789 57.8673 228.789 57.8673L229.272 79.5843C229.272 79.5843 221.064 79.5843 222.029 68.7263ZM227.905 99.6743C227.778 100.217 226.128 100.555 225.126 100.692C223.853 100.864 222.44 100.435 221.268 100.82C219.911 101.262 217.895 102.122 217.677 103.131C217.137 105.621 215.641 107.315 213.759 108.27C212.351 108.987 210.143 108.887 208.561 108.354C205.234 107.23 202.088 105.57 198.857 104.158C197.444 103.541 196.048 102.811 194.565 102.454C192.058 101.849 192.955 100.377 193.505 98.7223C199.409 98.7223 205.376 98.6983 211.34 98.7423C212.321 98.7493 213.421 98.8123 214.258 99.2463C216.724 100.521 217.837 100.335 218.833 97.8503C219.155 97.0503 219.269 96.1833 218.782 95.6103C221.104 95.1353 223.693 94.8383 225.836 95.1953C226.309 95.5733 226.745 95.9813 227.084 96.4453C227.717 97.3073 228.137 98.7013 227.905 99.6743ZM205.529 119.138C202.944 118.371 200.509 116.774 198.342 115.095C197.231 114.235 196.827 112.462 195.895 110.709C201.256 110.062 204.9 112.552 208.834 113.818C209.727 114.105 210.18 115.756 210.938 116.941C208.628 117.947 206.788 119.514 205.529 119.138ZM203.958 79.8213C195.987 79.9113 196.435 67.6503 196.435 67.6503L207.32 67.2263V79.2263C206.364 79.5843 205.264 79.8073 203.958 79.8213ZM215.768 93.6333C218.248 92.5803 221.649 92.9053 224.252 94.2033L215.436 94.2223C215.557 93.9163 215.648 93.6843 215.768 93.6333ZM172.284 68.7583L188.404 68.1323C188.761 73.5923 187.778 80.8413 179.807 80.9293C171.836 81.0193 172.284 68.7583 172.284 68.7583ZM166.8 99.9783C161.808 100.85 159.439 100.11 158.565 97.4773C158.228 96.4643 158.713 95.9773 162.33 93.6723C163.865 94.9873 165.38 96.2803 167.192 97.8323C167.081 98.4503 166.934 99.2413 166.8 99.9783ZM119.646 129.174C117.159 131.965 113.257 132.515 104.094 132.765L124.45 71.9743L124.445 72.0293C124.445 72.0293 124.415 72.2543 124.36 72.6343C125.229 90.0913 123.086 118.582 119.646 129.174ZM103.308 150.048C102.316 150.048 101.364 149.654 100.662 148.953C99.9606 148.252 99.5661 147.3 99.5656 146.308C99.5656 145.316 99.9599 144.364 100.662 143.662C101.364 142.96 102.316 142.565 103.309 142.565C104.301 142.565 105.253 142.96 105.955 143.662C106.657 144.364 107.052 145.316 107.052 146.308C107.051 147.301 106.656 148.252 105.954 148.953C105.252 149.655 104.3 150.049 103.308 150.048ZM103.308 164.653C102.315 164.653 101.364 164.259 100.662 163.557C99.9602 162.855 99.5659 161.904 99.5656 160.911C99.5656 159.919 99.9599 158.967 100.662 158.265C101.364 157.563 102.316 157.168 103.309 157.168C104.301 157.168 105.253 157.563 105.955 158.265C106.657 158.967 107.052 159.919 107.052 160.911C107.051 161.904 106.656 162.856 105.954 163.557C105.252 164.259 104.3 164.653 103.308 164.653ZM103.308 181.499C102.316 181.499 101.364 181.105 100.663 180.404C99.9612 179.702 99.5671 178.751 99.5671 177.759C99.5671 176.767 99.9612 175.815 100.663 175.114C101.364 174.412 102.316 174.018 103.308 174.018C104.3 174.019 105.252 174.413 105.954 175.115C106.656 175.816 107.051 176.768 107.052 177.76C107.051 178.753 106.656 179.704 105.954 180.405C105.252 181.106 104.3 181.5 103.308 181.499ZM82.2666 125.078C79.8356 119.203 78.8106 111.282 78.8106 104.684C78.8106 97.2593 78.6296 84.3023 78.5016 76.1123C83.4966 91.2383 93.8466 121.946 97.5196 132.83C89.7456 132.631 85.0596 129.158 82.2666 125.078ZM26.0836 204.717C25.7916 206.935 25.0796 209.235 23.9516 211.145C23.4976 211.915 21.4076 212.084 20.1296 211.936C16.9886 211.574 14.3206 212.003 12.1416 214.553C11.4576 213.909 9.98662 213.13 10.5486 211.887C11.5226 209.717 14.0186 210.151 12.2836 207.876C10.6646 205.753 3.29461 198.534 4.15961 190.886C4.29661 190.858 4.42661 190.826 4.57761 190.816C10.6486 190.376 16.7356 190.174 22.8196 189.956C23.3696 189.936 24.2906 190.327 24.4396 190.742C25.1306 192.676 25.8866 194.653 26.0976 196.67C26.3766 199.329 26.4316 202.074 26.0836 204.717ZM256.077 94.0603C249.769 94.0603 243.459 94.0273 237.15 94.0713C235.215 94.0853 234.248 93.3593 234.171 91.3363C233.879 83.4143 233.408 75.4973 233.213 67.5763C233.051 60.9023 233.183 54.2233 233.173 47.5463C233.173 46.8093 233.394 45.8213 233.013 45.3763C230.984 43.0163 229.072 40.5433 226.212 38.9833C225.33 38.5003 224.528 37.0613 224.477 36.0233C224.275 32.0443 224.423 28.0523 224.37 24.0653C224.361 23.2833 224.154 21.8903 223.839 21.8323C221.988 21.4803 219.999 21.0793 218.218 21.4543C217.387 21.6303 216.443 23.4873 216.376 24.6323C216.146 28.5133 216.325 32.4153 216.265 36.3103C216.232 38.4263 215.78 40.3973 213.344 41.0783C209.676 42.1033 207.389 45.0523 207.387 48.8053C207.384 54.0673 207.387 59.3393 207.387 64.9223L193.025 65.4803C193.025 65.4803 192.487 80.4423 201.597 82.0723C201.812 82.1813 202.021 82.3083 202.246 82.4023C203.951 83.1023 204.123 84.1723 204.051 85.6353C204.009 86.4673 204.042 87.3053 204.042 88.1393C204.042 89.0993 204.053 89.8313 204.086 90.4693C203.81 91.4083 203.079 93.2023 201.485 94.2523L182.844 94.2923V83.2073C183.416 83.0798 183.977 82.9083 184.523 82.6943C185.017 82.6443 185.442 82.5513 185.697 82.2943C185.801 82.1893 185.896 82.0803 185.998 81.9763C191.209 78.8423 191.923 71.6963 191.547 65.9713L175.119 66.6083C174.752 66.6153 174.383 66.6293 174.012 66.6523L169.366 66.8333C169.366 66.8333 168.83 82.0623 178.211 83.4483C178.594 84.0743 178.902 84.7163 179.072 85.3653C179.844 88.3053 179.264 91.5993 179.264 94.9143L166.99 90.8453C170.602 83.4973 168.169 76.9553 165.167 68.7043C165.062 67.9163 164.875 67.1723 164.438 66.6923C161.137 57.4673 149.513 59.2503 135.866 60.4303C134.857 60.3813 133.667 60.5373 132.88 60.0643C130.217 58.4693 127.842 58.8073 125.499 60.6363L125.471 60.4143L125.369 60.7043C125.225 60.7523 124.905 60.8823 125.28 60.9643L101.937 128.485L103.635 82.2823C106.096 84.6913 110.084 88.7273 112.285 87.1553C114.999 85.2173 115.774 76.3033 115.774 76.3033C115.774 76.3033 109.958 74.3653 106.854 74.3653C103.753 74.3653 102.588 71.6533 97.5476 74.3653C97.5476 74.3653 87.4656 75.9153 87.4656 79.7903C87.4656 83.6663 89.0146 88.3163 92.5066 86.3783C94.8766 85.0613 97.6056 82.3183 99.7186 81.1783L99.6956 128.237L78.5546 68.1753C78.4156 65.9313 78.2486 63.2033 78.1236 61.0933C77.4416 60.1263 76.6246 59.6563 75.5276 59.5733L75.4836 59.4473L75.4856 59.5723C74.5746 59.5123 73.4726 59.7093 72.0646 60.1473C72.0646 60.1473 7.7046 60.4863 0.645602 124.143C0.20679 125.185 -0.0121041 126.307 0.00261192 127.437C0.0216119 130.168 0.016608 132.899 0.023608 135.629C0.023608 135.982 -0.00440224 136.306 0.000597762 136.661C0.00459776 137.593 0.0186107 138.481 0.0326107 139.366C0.0376107 145.867 0.0306118 152.37 0.0306118 158.87V190.164C0.255612 190.347 0.570603 190.489 0.893603 190.623C0.600172 192.023 0.377225 193.436 0.225604 194.858C0.0742834 195.375 0.00444501 195.913 0.0186031 196.451C0.0556031 199.418 -0.0643895 202.39 0.0886105 205.349C0.13461 206.246 0.798607 207.152 1.30361 207.977C2.19961 209.443 3.39461 210.757 4.09661 212.301C5.15261 214.617 5.65561 217.202 6.83861 219.434C7.91761 221.467 12.6036 221.864 13.6456 220.021C15.3176 217.06 17.8676 216.615 20.7366 216.81C24.5386 217.067 27.3206 215.088 29.8796 212.758C30.6326 212.074 31.1176 210.734 31.1456 209.679C31.2736 204.674 31.2456 199.664 31.1756 194.659C31.1576 193.208 31.8606 191.451 29.8486 190.505C29.6496 190.412 29.9306 189.056 30.1716 188.344C30.3666 187.762 31.0596 187.301 31.1386 186.733C31.5336 183.831 31.9626 180.917 32.0756 177.993C32.2316 174.013 32.0856 170.021 32.1266 166.033C32.1546 163.346 32.0526 160.627 32.4236 157.982C32.8626 154.88 33.7536 151.843 34.4426 148.779C34.5446 148.329 34.5466 147.849 34.6996 147.42C35.8736 144.147 37.0166 140.859 38.2976 137.625C38.7866 136.388 39.6086 135.282 40.3156 134.053C42.7636 135.752 43.5406 137.294 43.5176 139.612C43.3916 151.85 43.3366 164.093 43.5056 176.329C43.5196 177.272 43.5886 178.209 43.6356 179.15C43.6166 179.419 43.5886 179.653 43.5776 179.959C43.1946 189.925 43.9096 233.506 43.9096 233.506L47.5236 231.339L47.9386 185.831L57.2316 185.548C57.2316 185.548 87.3846 209.804 90.1636 210.766C92.9446 211.728 101.071 193.991 103.85 195.167C106.632 196.342 116.468 212.904 119.249 211.942C122.028 210.98 145.766 184.373 148.01 184.48C149.525 184.552 155.681 184.818 159.544 184.983L165.679 187.048C165.434 186.255 165.55 183.395 165.399 182.583C165.181 181.415 165.406 180.17 165.26 178.981C164.738 174.736 164.06 170.508 163.601 166.256C163.195 162.512 163.088 158.733 162.685 154.987C162.295 151.382 161.694 147.8 161.191 144.237C161.302 144.214 161.381 144.193 161.476 144.17C163.613 148.554 167.642 154.491 173.945 154.975C182.614 155.641 192.294 160.298 200.441 148.551C200.692 148.236 200.926 147.893 201.135 147.508C202.221 145.795 203.278 143.79 204.299 141.409C205.802 138.766 207.417 136.184 208.86 133.508C210.184 131.053 210.843 128.03 212.683 126.106C215.822 122.828 217.257 119.149 217.274 114.83C217.292 109.844 221.331 108.269 224.498 105.949C225.01 105.573 225.892 105.74 226.534 105.488C227.882 104.959 229.404 104.57 230.457 103.661C231.856 102.453 232.756 100.677 234.106 99.3953C234.855 98.6813 236.078 98.1133 237.099 98.0923C243.406 97.9763 249.716 98.0323 256.026 98.0343C257.48 98.0343 258.979 98.0003 259.02 96.0273C259.067 93.9543 257.508 94.0583 256.077 94.0603Z" fill="#231F20"/>
<path d="M161.07 183.237C161.23 183.715 164.408 231.686 165.521 234.07C166.632 236.453 167.268 234.23 167.268 232.959C167.268 231.686 165.203 181.172 165.203 181.172L161.07 183.237Z" fill="#231F20"/>
</svg>
